<?xml version="1.0" encoding="utf-8"?>
<!-- Generator: Adobe Illustrator 17.0.0, SVG Export Plug-In . SVG Version: 6.00 Build 0)  -->
<!DOCTYPE svg PUBLIC "-//W3C//DTD SVG 1.1//EN" "http://www.w3.org/Graphics/SVG/1.1/DTD/svg11.dtd">
<svg version="1.1" id="Layer_1" xmlns="http://www.w3.org/2000/svg" xmlns:xlink="http://www.w3.org/1999/xlink" x="0px" y="0px"
	 width="288px" height="288px" viewBox="0 0 288 288" enable-background="new 0 0 288 288" xml:space="preserve">
<path fill="#5D4A44" d="M58.83,247.695l-37.471,37.471c-3.808,3.808-9.98,3.808-13.788,0l-4.715-4.715
	c-3.808-3.808-3.808-9.98,0-13.788l37.471-37.471"/>
<path fill="#3D2D27" d="M58.83,247.695l-37.471,37.471c-3.808,3.808-9.98,3.808-13.788,0l-2.055-2.055l44.362-44.362"/>
<path fill="#EDE6D2" d="M287.135,20.34v38.225c0,173.815-108.74,196.239-108.74,196.239s-52.012-10.726-84.092-74.844
	c-3.92-7.826-7.538-16.448-10.726-25.943c-8.467-25.19-13.922-56.524-13.922-95.452V20.34C104.627,6.778,141.508,0,178.395,0
	S252.162,6.777,287.135,20.34z"/>
<path fill="#E3D1C7" d="M210.82,63.456L94.303,179.966c-3.92-7.826-7.538-16.448-10.726-25.943l82.291-87.815L210.82,63.456z"/>
<path fill="#D1A982" d="M178.416,225.363c-7.862-3.076-22.283-10.304-36.782-25.732c-12.45-13.253-22.431-29.948-29.666-49.619
	c-9.417-25.633-14.196-56.397-14.196-91.447V40.293c26.098-8.094,53.138-12.183,80.63-12.183s54.532,4.089,80.63,12.183v18.271
	c0,36.183-5.089,67.785-15.118,93.911c-7.608,19.813-18.06,36.486-31.067,49.563C199.13,215.826,185.729,222.484,178.416,225.363z"
	/>
<path fill="#9F5F35" d="M241.887,35.599v22.966c0,36.191-4.005,67.785-11.909,93.911c-5.99,19.813-14.224,36.486-24.465,49.563
	c-10.797,13.781-21.34,20.439-27.104,23.317l0,0c7.313-2.879,20.713-9.537,34.424-23.317c13.007-13.077,23.458-29.758,31.067-49.563
	c10.037-26.126,15.118-57.727,15.118-93.911V40.293C253.359,38.534,247.637,36.978,241.887,35.599z"/>
<polyline fill="#E3D1C7" points="39.159,215.58 171.849,73.978 216.803,71.226 214.044,116.172 72.449,248.863 "/>
<polygon fill="#FFF4EB" points="216.803,71.226 55.804,232.218 39.159,215.58 171.849,73.978 "/>
<path fill="#9F5F35" d="M66.438,279.993c-8.594-27.941-30.468-49.809-58.403-58.403c1.76-5.708,3.512-11.423,5.272-17.131
	c33.614,10.339,59.923,36.655,70.269,70.269C77.862,276.481,72.147,278.233,66.438,279.993z"/>
</svg>
