<?xml version="1.0" encoding="utf-8"?>
<!-- Generator: Adobe Illustrator 17.0.0, SVG Export Plug-In . SVG Version: 6.00 Build 0)  -->
<!DOCTYPE svg PUBLIC "-//W3C//DTD SVG 1.1//EN" "http://www.w3.org/Graphics/SVG/1.1/DTD/svg11.dtd">
<svg version="1.1" id="Layer_1" xmlns="http://www.w3.org/2000/svg" xmlns:xlink="http://www.w3.org/1999/xlink" x="0px" y="0px"
	 width="288px" height="288px" viewBox="0 0 288 288" enable-background="new 0 0 288 288" xml:space="preserve">
<path fill="#6C200F" d="M176.152,92.169l-86.787,39.346l70.149,154.687l37.772-31.927l48.79-7.195L176.152,92.169z"/>
<path fill="#9F5D36" d="M111.849,93.743l86.787,39.346l-70.149,154.912L90.715,255.85l-49.014-7.195
	C41.7,248.655,111.849,93.743,111.849,93.743z"/>
<path fill="#EFC75E" d="M256.418,112.629c0,8.319-11.916,15.289-13.715,23.158c-1.799,8.094,6.071,19.561,2.698,26.981
	c-3.598,7.42-17.312,8.319-22.259,14.614c-4.947,6.296-2.698,20.235-8.994,25.407s-18.886-0.225-26.081,3.373
	s-11.017,17.087-18.886,18.886c-7.645,1.799-16.862-8.544-24.957-8.544c-8.094,0-17.312,10.342-24.957,8.544
	c-7.869-1.799-11.691-15.289-18.886-18.886c-7.195-3.598-20.01,1.799-26.081-3.373c-6.296-5.171-4.047-19.111-8.993-25.407
	c-4.947-6.296-18.661-7.195-22.259-14.614c-3.373-7.195,4.497-18.886,2.698-26.981c-2.248-7.869-14.164-14.839-14.164-23.158
	S43.498,97.34,45.297,89.471c1.799-8.094-6.071-19.561-2.698-26.981c3.598-7.42,17.312-8.319,22.259-14.614
	s2.698-20.235,8.994-25.407c6.296-5.172,18.886,0.225,26.081-3.373S110.95,2.009,118.819,0.21
	c7.645-1.799,16.862,8.544,24.957,8.544c8.094,0,17.312-10.342,24.957-8.544c7.869,1.799,11.691,15.289,18.886,18.886
	c7.195,3.598,20.01-1.799,26.081,3.373c6.296,5.171,4.047,19.111,8.993,25.407c4.947,6.296,18.661,7.195,22.259,14.614
	c3.373,7.195-4.497,18.886-2.698,26.981C244.502,97.341,256.418,104.311,256.418,112.629z"/>
<path fill="#D7B354" d="M144.001,67.662c-24.957,0-44.967,20.235-44.967,44.967s20.235,44.967,44.967,44.967
	c24.957,0,44.967-20.235,44.967-44.967S168.957,67.662,144.001,67.662z M144.001,132.864c-11.242,0-20.235-8.993-20.235-20.235
	s8.994-20.235,20.235-20.235c11.242,0,20.235,8.994,20.235,20.235C164.236,123.871,155.242,132.864,144.001,132.864z
	 M144.001,31.688c-44.742,0-80.941,36.198-80.941,80.941s36.198,80.941,80.941,80.941s80.94-36.199,80.94-80.941
	S188.743,31.688,144.001,31.688z M144.001,180.08c-37.322,0-67.451-30.128-67.451-67.451s30.128-67.451,67.451-67.451
	s67.451,30.128,67.451,67.451S181.323,180.08,144.001,180.08z"/>
</svg>
