<?xml version="1.0" encoding="utf-8"?>
<!-- Generator: Adobe Illustrator 17.0.0, SVG Export Plug-In . SVG Version: 6.00 Build 0)  -->
<!DOCTYPE svg PUBLIC "-//W3C//DTD SVG 1.1//EN" "http://www.w3.org/Graphics/SVG/1.1/DTD/svg11.dtd">
<svg version="1.1" id="Layer_1" xmlns="http://www.w3.org/2000/svg" xmlns:xlink="http://www.w3.org/1999/xlink" x="0px" y="0px"
	 width="288px" height="288px" viewBox="0 72 288 288" enable-background="new 0 72 288 288" xml:space="preserve">
<path fill="#6C200F" d="M176.152,164.168l-86.787,39.346l70.149,154.687l37.772-31.927l48.79-7.195L176.152,164.168z"/>
<path fill="#9F5D36" d="M111.849,165.742l86.787,39.346L128.487,360l-37.772-32.151l-49.014-7.195
	C41.7,320.654,111.849,165.742,111.849,165.742z"/>
<path fill="#EFC75E" d="M256.418,184.628c0,8.319-11.916,15.289-13.715,23.158c-1.799,8.094,6.071,19.561,2.698,26.981
	c-3.598,7.42-17.312,8.319-22.259,14.614c-4.947,6.296-2.698,20.235-8.994,25.407c-6.296,5.172-18.886-0.225-26.081,3.373
	s-11.017,17.087-18.886,18.886c-7.645,1.799-16.862-8.544-24.957-8.544c-8.094,0-17.312,10.342-24.957,8.544
	c-7.869-1.799-11.691-15.289-18.886-18.886c-7.195-3.598-20.01,1.799-26.081-3.373c-6.296-5.171-4.047-19.111-8.993-25.407
	c-4.947-6.296-18.661-7.195-22.259-14.614c-3.373-7.195,4.497-18.886,2.698-26.981c-2.248-7.869-14.164-14.839-14.164-23.158
	c0-8.319,11.916-15.289,13.715-23.158c1.799-8.094-6.071-19.561-2.698-26.981c3.598-7.42,17.312-8.319,22.259-14.614
	s2.698-20.235,8.994-25.407c6.296-5.172,18.886,0.225,26.081-3.373c7.195-3.598,11.017-17.087,18.886-18.886
	c7.645-1.799,16.862,8.544,24.957,8.544c8.094,0,17.312-10.342,24.957-8.544c7.869,1.799,11.691,15.289,18.886,18.886
	c7.195,3.598,20.01-1.799,26.081,3.373c6.296,5.171,4.047,19.111,8.993,25.407c4.947,6.296,18.661,7.195,22.259,14.614
	c3.373,7.195-4.497,18.886-2.698,26.981C244.502,169.34,256.418,176.31,256.418,184.628z"/>
<path fill="#D7B354" d="M144.001,139.661c-24.957,0-44.967,20.235-44.967,44.967s20.235,44.967,44.967,44.967
	c24.957,0,44.967-20.235,44.967-44.967S168.957,139.661,144.001,139.661z M144.001,204.863c-11.242,0-20.235-8.993-20.235-20.235
	c0-11.242,8.994-20.235,20.235-20.235c11.242,0,20.235,8.994,20.235,20.235C164.236,195.87,155.242,204.863,144.001,204.863z
	 M144.001,103.687c-44.742,0-80.941,36.198-80.941,80.941s36.198,80.941,80.941,80.941s80.94-36.199,80.94-80.941
	S188.743,103.687,144.001,103.687z M144.001,252.079c-37.322,0-67.451-30.128-67.451-67.451s30.128-67.451,67.451-67.451
	s67.451,30.128,67.451,67.451S181.323,252.079,144.001,252.079z"/>
</svg>
