<?xml version="1.0" encoding="utf-8"?>
<!-- Generator: Adobe Illustrator 17.0.0, SVG Export Plug-In . SVG Version: 6.00 Build 0)  -->
<!DOCTYPE svg PUBLIC "-//W3C//DTD SVG 1.1//EN" "http://www.w3.org/Graphics/SVG/1.1/DTD/svg11.dtd">
<svg version="1.1" id="Layer_1" xmlns="http://www.w3.org/2000/svg" xmlns:xlink="http://www.w3.org/1999/xlink" x="0px" y="0px"
	 width="288px" height="288px" viewBox="0 0 288 288" enable-background="new 0 0 288 288" xml:space="preserve">
<g>
	<path fill="#536D55" d="M-286.289,72.409c-0.259,2.261-0.592,4.494-0.984,6.688c-1.316,7.36-3.337,14.3-5.651,20.55
		c-16.488-24.127-44.604-29.805-44.604-29.805c0-14.467-6.968-23.608-13.011-28.814c-4.627-3.982-8.702-5.664-8.702-5.664
		S-317.383,34.247-286.289,72.409z"/>
	<path fill="#536D55" d="M-285.656,59.218v2.287c0,1.297-0.026,2.586-0.08,3.869c-0.1,2.373-0.286,4.72-0.552,7.034
		c-31.095-38.161-72.952-37.044-72.952-37.044c0.559-1.669,0.931-3.337,1.144-4.986C-355.337,9.336-378.4-9.339-378.4-9.339
		c28.88,3.398,49.284,13.855,63.658,26.287C-298.595,30.923-290.052,47.404-285.656,59.218z"/>
</g>
<path fill="#1E3322" d="M-279.275,73.12l-7.732,6.303l-0.266-0.326l-2.886-3.544c-20.942-25.702-47.117-32.657-60.38-34.525
	c-4.627-3.983-8.702-5.664-8.702-5.664c0.559-1.669,0.931-3.337,1.144-4.986c7.327,0.113,43.294,2.393,72.361,34.997
	c1.117,1.25,2.221,2.54,3.311,3.882L-279.275,73.12z"/>
<path fill="#9F5D36" d="M-235.287-35.796c28.914,0,41.306,46.472,41.306,46.472l-0.173,0.425
	c-7.021-2.846-14.587-5.199-22.544-6.968h-0.007V4.126C-216.611-17.925-235.287-35.796-235.287-35.796z"/>
<path fill="#CEA67F" d="M-145.17,64.484c0,23.782-25.377,30.264-59.496,19.846c-0.007-0.007-0.007-0.007-0.014-0.007
	c1.217,4.109,2.4,8.576,3.464,13.27c1.337,5.884,2.473,12.14,3.218,18.556l-6.495-4.202l-39.219,25.39l-17.332-11.216v-0.007
	l-21.886-14.168l-25.324,16.395c3.523-4.155,10.159-14.706,15.338-28.688v-0.007c3.005-8.111,5.511-17.385,6.635-27.239
	c0.406-3.57,0.632-7.214,0.632-10.904v-2.287c-0.02-16.608-0.033-34.778,7.612-46.472c4.082-6.256,10.418-10.657,20.231-11.98
	c-3.969-17.432-17.485-30.363-17.485-30.363c17.445,0,28.874,16.927,35.196,30.343c1.709,0.12,3.41,0.266,5.093,0.439
	c6.283,0.632,12.399,1.629,18.303,2.952h0.007c7.958,1.768,15.524,4.122,22.544,6.968c11.449,4.62,21.454,10.524,29.386,17.286
	C-152.483,38.867-145.17,51.413-145.17,64.484z"/>
<g enable-background="new    ">
	<path fill="#9F5D36" d="M-237.944,5.65c0,0-34.438,40.834-23.103,120.462l-21.886-14.168l-25.324,16.395
		c3.523-4.155,10.159-14.706,15.338-28.688v-0.007c3.005-8.111,5.511-17.385,6.635-27.238c0.406-3.57,0.632-7.214,0.632-10.904
		v-2.287c-0.02-16.608-0.033-34.778,7.612-46.472c4.082-6.256,10.418-10.657,20.231-11.98
		c-3.969-17.432-17.485-30.363-17.485-30.363c17.445,0,28.874,16.927,35.196,30.343c1.709,0.12,3.41,0.266,5.093,0.439
		L-237.944,5.65z"/>
	<path fill="#9F5D36" d="M-201.216,97.592c-34.286-9.959-50.075-35.436-50.075-35.436c16.262,10.378,32.218,17.778,46.605,22.159
		c0,0,0,0,0.007,0.007C-203.464,88.431-202.28,92.899-201.216,97.592z"/>
</g>
<g>
	<path fill="#4D4D4D" d="M-209.828,33.27c-0.765,0-1.532-0.292-2.116-0.876c-1.695-1.695-3.949-2.629-6.347-2.629
		c-2.397,0-4.651,0.933-6.347,2.63c-1.168,1.168-3.063,1.168-4.231,0c-1.169-1.168-1.169-3.062,0-4.231
		c2.825-2.825,6.582-4.381,10.578-4.381c3.995,0,7.752,1.556,10.577,4.382c1.169,1.168,1.169,3.062,0,4.231
		C-208.296,32.978-209.063,33.27-209.828,33.27z"/>
	<path fill="#4D4D4D" d="M-168.97,33.27c-0.765,0-1.532-0.292-2.116-0.876c-1.695-1.695-3.949-2.629-6.347-2.629
		s-4.652,0.933-6.347,2.629c-1.167,1.169-3.062,1.168-4.231,0s-1.169-3.062,0-4.231c2.825-2.825,6.581-4.382,10.577-4.382
		c3.995,0,7.752,1.556,10.577,4.382c1.169,1.168,1.169,3.062,0,4.231C-167.438,32.978-168.204,33.27-168.97,33.27z"/>
</g>
<g enable-background="new    ">
	<path fill="#9F5D36" d="M-169.936,67.688c-1.81,0-3.323-1.519-3.324-3.324c-0.002-1.831,1.549-3.368,3.385-3.323
		c1.745,0.043,3.198,1.463,3.259,3.213C-166.552,66.095-168.093,67.688-169.936,67.688z"/>
	<path fill="#9F5D36" d="M-151.986,63.699c-1.848,0-3.38-1.582-3.321-3.425c0.056-1.765,1.54-3.234,3.318-3.228
		c1.732,0.005,3.216,1.396,3.321,3.128C-148.554,62.046-150.107,63.699-151.986,63.699z"/>
</g>
<path fill="#EEE4D1" d="M-142.493,150.996c0,50.441-36.912,92.273-85.199,99.951c-5.212,0.825-10.564,1.257-16.016,1.257
	c-55.9,0-101.215-45.315-101.215-101.208c0-8.656,1.084-17.911,3.131-27.378l19.646,12.718l13.889-8.995l25.324-16.395l12.751,8.258
	l26.467,17.133l39.219-25.39l6.495,4.202v0.007l32.723,21.182l19.653-12.718C-143.577,133.086-142.493,142.34-142.493,150.996z"/>
<path fill="#CCC8C4" d="M-227.693,250.947c-5.212,0.825-10.564,1.257-16.016,1.257c-55.9,0-101.215-45.315-101.215-101.208
	c0-8.656,1.084-17.911,3.131-27.378l19.646,12.718l13.889-8.995l25.324-16.395l12.752,8.258c0,0-35.908,91.195,42.483,131.737
	C-227.698,250.941-227.693,250.941-227.693,250.947z"/>
<path fill="#536D55" d="M113.404,195.048v-18.892L60.776,191c0,0,3.823-22.491,31.262-30.362c8.321-2.249,15.518-2.249,21.366-1.124
	V81.696h26.314c-2.924-8.771-5.623-15.743-7.872-20.466c-3.823-7.872-7.872-2.699-16.643,4.948
	c-6.298,5.173-22.266,16.643-46.33,22.94c-24.065,6.523-43.407,4.723-51.504,3.374c-11.47-2.024-17.543-4.498-16.868,4.273
	c0.45,7.647,2.249,19.567,6.523,35.535c8.996,34.186,38.909,100.083,95.585,84.79c14.844-4.048,25.415-11.92,32.612-22.041
	L113.404,195.048L113.404,195.048z M28.614,132.749l40.258-10.571c0,0-1.124,15.518-16.193,19.567
	C37.61,145.569,28.614,132.749,28.614,132.749z"/>
<path fill="#CEA67F" d="M265.665,83.27c-10.796,1.799-36.435,4.273-68.146-4.273s-52.853-23.39-61.174-30.362
	c-11.92-9.896-17.093-16.643-22.041-6.298c-4.498,9.221-10.346,24.065-15.968,44.981c-12.145,45.206-21.141,140.566,53.752,160.583
	c75.119,20.016,114.927-67.022,127.072-112.228c5.623-20.916,8.096-36.66,8.771-46.78C288.83,77.197,280.959,80.571,265.665,83.27z
	 M114.978,120.829c0,0,11.92-18.667,32.162-12.82c20.241,5.848,21.816,28.113,21.816,28.113L114.978,120.829z M164.008,202.92
	c-35.31-10.346-40.708-38.459-40.708-38.459l94.685,26.314C217.985,191,198.868,213.041,164.008,202.92z M198.193,145.569
	c0,0,11.47-18.442,30.812-12.82c19.342,5.848,20.916,28.113,20.916,28.113L198.193,145.569z"/>
<path fill="#9F5D36" d="M166.707,203.595l-2.699-0.675c-35.31-10.346-40.708-38.459-40.708-38.459l49.929,13.944l25.639-99.183
	c-0.45-0.225-0.899-0.225-1.349-0.225c-31.712-8.546-52.853-23.39-61.174-30.362c-11.92-9.896-17.093-16.643-22.041-6.298
	c-4.498,9.221-10.346,24.065-15.968,44.981c-11.695,43.407-20.466,132.919,45.431,157.884l11.245,3.374L166.707,203.595
	L166.707,203.595z M114.978,120.829c0,0,11.92-18.667,32.162-12.82c20.241,5.848,21.816,28.113,21.816,28.113L114.978,120.829z"/>
<path fill="#1E3322" d="M94.737,181.554l-33.961,9.671c0,0,3.599-21.141,28.563-29.463L69.996,89.117
	c-0.45,0.225-0.899,0.225-1.574,0.45c-24.065,6.523-43.407,4.723-51.504,3.374c-11.47-2.024-17.543-4.498-16.868,4.273
	c0.45,7.647,2.249,19.567,6.523,35.535c9.446,33.736,39.358,99.633,96.035,84.34l1.349-0.45
	C103.958,216.639,94.737,181.554,94.737,181.554z M28.614,132.749l40.258-10.571c0,0-1.124,15.518-16.193,19.567
	C37.61,145.569,28.614,132.749,28.614,132.749z"/>
</svg>
