<?xml version="1.0" encoding="utf-8"?>
<!-- Generator: Adobe Illustrator 17.0.0, SVG Export Plug-In . SVG Version: 6.00 Build 0)  -->
<!DOCTYPE svg PUBLIC "-//W3C//DTD SVG 1.1//EN" "http://www.w3.org/Graphics/SVG/1.1/DTD/svg11.dtd">
<svg version="1.1" id="Layer_1" xmlns="http://www.w3.org/2000/svg" xmlns:xlink="http://www.w3.org/1999/xlink" x="0px" y="0px"
	 width="288px" height="288px" viewBox="0 0 288 288" enable-background="new 0 0 288 288" xml:space="preserve">
<g>
	<path fill="#536D55" d="M-286.289,72.409c-0.259,2.261-0.592,4.494-0.984,6.688c-1.316,7.36-3.337,14.3-5.651,20.55
		c-16.488-24.127-44.604-29.805-44.604-29.805c0-14.467-6.968-23.608-13.011-28.814c-4.627-3.982-8.702-5.664-8.702-5.664
		S-317.383,34.247-286.289,72.409z"/>
	<path fill="#536D55" d="M-285.656,59.218v2.287c0,1.297-0.026,2.586-0.08,3.869c-0.1,2.373-0.286,4.72-0.552,7.034
		c-31.095-38.161-72.952-37.044-72.952-37.044c0.559-1.669,0.931-3.337,1.144-4.986C-355.337,9.336-378.4-9.339-378.4-9.339
		c28.88,3.398,49.284,13.855,63.658,26.287C-298.595,30.923-290.052,47.404-285.656,59.218z"/>
</g>
<path fill="#1E3322" d="M-279.275,73.12l-7.732,6.303l-0.266-0.326l-2.886-3.544c-20.942-25.702-47.117-32.657-60.38-34.525
	c-4.627-3.983-8.702-5.664-8.702-5.664c0.559-1.669,0.931-3.337,1.144-4.986c7.327,0.113,43.294,2.393,72.361,34.997
	c1.117,1.25,2.221,2.54,3.311,3.882L-279.275,73.12z"/>
<path fill="#9F5D36" d="M-235.287-35.796c28.914,0,41.306,46.472,41.306,46.472l-0.173,0.425
	c-7.021-2.846-14.587-5.199-22.544-6.968h-0.007V4.126C-216.611-17.925-235.287-35.796-235.287-35.796z"/>
<path fill="#CEA67F" d="M-145.17,64.484c0,23.782-25.377,30.264-59.496,19.846c-0.007-0.007-0.007-0.007-0.014-0.007
	c1.217,4.109,2.4,8.576,3.464,13.27c1.337,5.884,2.473,12.14,3.218,18.556l-6.495-4.202l-39.219,25.39l-17.332-11.216v-0.007
	l-21.886-14.168l-25.324,16.395c3.523-4.155,10.159-14.706,15.338-28.688v-0.007c3.005-8.111,5.511-17.385,6.635-27.239
	c0.406-3.57,0.632-7.214,0.632-10.904v-2.287c-0.02-16.608-0.033-34.778,7.612-46.472c4.082-6.256,10.418-10.657,20.231-11.98
	c-3.969-17.432-17.485-30.363-17.485-30.363c17.445,0,28.874,16.927,35.196,30.343c1.709,0.12,3.41,0.266,5.093,0.439
	c6.283,0.632,12.399,1.629,18.303,2.952h0.007c7.958,1.768,15.524,4.122,22.544,6.968c11.449,4.62,21.454,10.524,29.386,17.286
	C-152.483,38.867-145.17,51.413-145.17,64.484z"/>
<g enable-background="new    ">
	<path fill="#9F5D36" d="M-237.944,5.65c0,0-34.438,40.834-23.103,120.462l-21.886-14.168l-25.324,16.395
		c3.523-4.155,10.159-14.706,15.338-28.688v-0.007c3.005-8.111,5.511-17.385,6.635-27.238c0.406-3.57,0.632-7.214,0.632-10.904
		v-2.287c-0.02-16.608-0.033-34.778,7.612-46.472c4.082-6.256,10.418-10.657,20.231-11.98
		c-3.969-17.432-17.485-30.363-17.485-30.363c17.445,0,28.874,16.927,35.196,30.343c1.709,0.12,3.41,0.266,5.093,0.439
		L-237.944,5.65z"/>
	<path fill="#9F5D36" d="M-201.216,97.592c-34.286-9.959-50.075-35.436-50.075-35.436c16.262,10.378,32.218,17.778,46.605,22.159
		c0,0,0,0,0.007,0.007C-203.464,88.431-202.28,92.899-201.216,97.592z"/>
</g>
<g>
	<path fill="#4D4D4D" d="M-209.828,33.27c-0.765,0-1.532-0.292-2.116-0.876c-1.695-1.695-3.949-2.629-6.347-2.629
		c-2.397,0-4.651,0.933-6.347,2.63c-1.168,1.168-3.063,1.168-4.231,0c-1.169-1.168-1.169-3.062,0-4.231
		c2.825-2.825,6.582-4.381,10.578-4.381c3.995,0,7.752,1.556,10.577,4.382c1.169,1.168,1.169,3.062,0,4.231
		C-208.296,32.978-209.063,33.27-209.828,33.27z"/>
	<path fill="#4D4D4D" d="M-168.97,33.27c-0.765,0-1.532-0.292-2.116-0.876c-1.695-1.695-3.949-2.629-6.347-2.629
		s-4.652,0.933-6.347,2.629c-1.167,1.169-3.062,1.168-4.231,0s-1.169-3.062,0-4.231c2.825-2.825,6.581-4.382,10.577-4.382
		c3.995,0,7.752,1.556,10.577,4.382c1.169,1.168,1.169,3.062,0,4.231C-167.438,32.978-168.204,33.27-168.97,33.27z"/>
</g>
<g enable-background="new    ">
	<path fill="#9F5D36" d="M-169.936,67.688c-1.81,0-3.323-1.519-3.324-3.324c-0.002-1.831,1.549-3.368,3.385-3.323
		c1.745,0.043,3.198,1.463,3.259,3.213C-166.552,66.095-168.093,67.688-169.936,67.688z"/>
	<path fill="#9F5D36" d="M-151.986,63.699c-1.848,0-3.38-1.582-3.321-3.425c0.056-1.765,1.54-3.234,3.318-3.228
		c1.732,0.005,3.216,1.396,3.321,3.128C-148.554,62.046-150.107,63.699-151.986,63.699z"/>
</g>
<path fill="#EEE4D1" d="M-142.493,150.996c0,50.441-36.912,92.273-85.199,99.951c-5.212,0.825-10.564,1.257-16.016,1.257
	c-55.9,0-101.215-45.315-101.215-101.208c0-8.656,1.084-17.911,3.131-27.378l19.646,12.718l13.889-8.995l25.324-16.395l12.751,8.258
	l26.467,17.133l39.219-25.39l6.495,4.202v0.007l32.723,21.182l19.653-12.718C-143.577,133.086-142.493,142.34-142.493,150.996z"/>
<path fill="#CCC8C4" d="M-227.693,250.947c-5.212,0.825-10.564,1.257-16.016,1.257c-55.9,0-101.215-45.315-101.215-101.208
	c0-8.656,1.084-17.911,3.131-27.378l19.646,12.718l13.889-8.995l25.324-16.395l12.752,8.258c0,0-35.908,91.195,42.483,131.737
	C-227.698,250.941-227.693,250.941-227.693,250.947z"/>
<g id="pAoIAU_1_">
	
		<image overflow="visible" width="400" height="400" id="pAoIAU_3_" xlink:href="DA0EF44CFD91EBBE.jpg"  transform="matrix(1 0 0 1 362.2523 -67.4614)">
	</image>
</g>
<path fill="#CEA67F" d="M144,288c79.314,0,144-64.689,144-144C288,64.686,223.314,0,144,0S0,64.689,0,144S64.689,288,144,288z"/>
<g>
	<path fill="#EEE4D1" d="M254.469,14.832L240.816-0.67l-3.269,4.967l8.619,16.93c-0.759,0.816,0.66-0.792-2.45,2.69
		s-16.746,19.08-29.255,31.747l-45.67-51.576l-3.212,4.001l29.49,67.287c-8.128,8.344-14.398,14.975-16.028,17.308
		c-4.981,7.13-9.182,16.371-4.227,24.058c8.58,3.177,16.691-2.926,22.574-9.33c1.926-2.096,7.042-9.652,13.43-19.393l72.074,14.23
		l3.212-4.001l-60.235-33.427c9.658-14.956,21.937-31.641,24.662-35.431c2.729-3.791,1.464-2.056,2.096-2.974l18.393,4.751
		l4.142-4.266l-18.089-9.974c1.48-3.337,0.328-4.262-2.61-2.095L254.469,14.832L254.469,14.832z"/>
</g>
<g>
	<path fill="#CCC8C4" d="M254.469,14.832L240.816-0.67l-0.788,1.197l13.266,15.32l1.173-1.015L254.469,14.832L254.469,14.832z"/>
	<path fill="#CCC8C4" d="M274.169,27.93l0.998-1.029l-18.089-9.974l-0.737,1.365l17.83,9.639L274.169,27.93z"/>
	<path fill="#CCC8C4" d="M214.46,55.666L168.79,4.091l-1.237,1.544l44.78,52.193L214.46,55.666z"/>
	<path fill="#CCC8C4" d="M284.87,99.793l1.237-1.544l-60.235-33.427l-1.651,2.545l60.65,32.424L284.87,99.793z"/>
</g>
<path fill="#15BDB1" d="M177.843,112.976c0.888,0.712,1.918,1.17,3.03,1.387l0.452-1.891c-0.723-0.331-1.414-0.754-2.06-1.271
	c-0.643-0.518-1.207-1.102-1.686-1.734l-1.749,0.851c0.453,1.037,1.122,1.943,2.01,2.658L177.843,112.976L177.843,112.976z
	 M182.36,114.513L182.36,114.513c1.681,0.018,3.472-0.443,5.2-1.333c-1.61,0.314-3.268,0.256-4.834-0.191L182.36,114.513z
	 M176.772,108.21L176.772,108.21c-0.777-1.432-1.19-3.037-1.232-4.678c-0.497,1.88-0.557,3.728-0.176,5.365L176.772,108.21z"/>
<polygon fill="#A05D30" points="218.374,82.627 205.309,95.804 208.756,114.037 192.187,105.683 175.912,114.596 178.737,96.256 
	165.231,83.532 183.546,80.551 191.474,63.774 199.968,80.272 "/>
<polygon fill="#A05D30" points="219.699,96.323 202.99,103.348 199.304,121.095 187.46,107.374 169.442,109.353 178.831,93.848 
	171.382,77.324 189.029,81.462 202.442,69.271 203.96,87.333 "/>
<polygon fill="#A05D30" points="219.722,87.263 207.01,106.394 215.564,127.711 193.441,121.533 175.809,136.256 174.849,113.306 
	155.399,101.087 176.928,93.082 182.538,70.808 196.805,88.81 "/>
<path fill="#1E3322" d="M144,71.8c70.389,0,127.445,57.058,127.445,127.445c0,4.42-0.226,8.784-0.663,13.087
	C246.446,257.387,198.801,288,144,288S41.556,257.39,17.22,212.334c-0.439-4.303-0.665-8.67-0.665-13.089
	C16.555,128.856,73.616,71.8,144,71.8z"/>
<path fill="#536D55" d="M223.625,99.74c23.699,18.989,40.47,46.261,45.913,77.435c-0.385-0.59-0.777-1.364-1.172-2.512
	c-2.489,0.816-2.57,0.883-5.508,1.372l-0.13,0.179c-1.169,1.666,0.06,0.961-1.995,2.697c-2.445,2.058-4.038,4.866-6.771,6.532
	c-0.33,2.91,0.242,3.565-0.491,7.025c-0.286,1.276-1.714,4.705-3.388,4.445c-0.53-0.099-2.775-5.653-3.305-7.189
	c-0.899-2.613-1.918-4.542-2.569-7.548c-0.366-1.603-0.613-4.674-0.979-5.752c-1.754,0.26-1.676,1.374-3.349,0.197
	c-1.182-0.852-0.65-1.372-1.307-2.648c-1.385-1.307-2.814-2.613-4.24-3.921c-1.104-0.358-5.347,0.26-7.145,0.065
	c-3.221-0.296-3.505-0.099-5.422-2.679c-3.39,0.167-3.102,1.437-6.41-1.406c-2.162-1.829-1.754-4.77-4.895-3.104
	c-0.119,2.679,1.185,3.271,2.367,4.51c0.855,0.948,1.918,1.6,2.364,2.873c0.042,0.037,0.247,1.242,0.289,1.406
	c3.061,0.197,3.793-1.271,5.466-2.512c1.634,1.533,0.042,1.798,2.409,3.003c1.876,0.951,1.51,0.395,2.73,1.928
	c0.613,2.058-4.198,7.646-5.794,8.659c-1.223,0.785-1.873,0.327-2.977,1.237c-1.632,1.377,0.205,1.18-2.65,2.224
	c-3.061,1.112-6.082,3.463-9.304,3.661c-0.694-1.899-1.387-3.822-2.081-5.749c-2.042-6.568-1.959-4.019-4.043-7.418
	c-0.979-1.473-0.572-2.419-1.223-3.725c-0.452-0.979-1.141-1.406-1.756-2.611c-0.938-1.863-2.037-4.77-4.201-4.476
	c-0.449,1.468,1.998,6.436,2.608,7.643c0.613,1.21,1.592,1.733,1.878,3.466c0.408,2.382-0.08,2.086,1.223,3.687
	c2.736,3.297-0.122,2.712,4.123,5.945c3.18,2.422,2.367,3.138,3.713,6.375c2.081,0.584,8.283-2.188,9.34-1.372
	c1.265,2.252-1.465,5.845-2.159,7.807c-2.287,6.568-6.285,6.472-9.345,11.501c-1.671,2.715-2.447,3.073-3.998,6.342
	c-1.756,3.692,3.549,13.918,0.369,18.202c-0.694,0.977-2.938,1.567-5.752,4.542c-2.98,3.232,0.08,2.679-1.063,8.067
	c-0.896,1.242-1.998,1.307-3.099,2.193c-0.408,1.271-0.08,2.281-0.777,3.853c-0.735,1.894-0.855,0.881-1.92,2.419
	c-0.774,1.205-0.691,1.696-1.59,2.809c-0.774,1.016-1.185,1.304-1.915,1.961c-3.552,3.268-11.182,3.364-11.834,2.907
	c-1.798-1.533-0.572-1.925-1.019-4.082c-0.437-1.897-1.442-3.484-2.281-4.947l-0.086-0.151c-0.406-0.717-0.774-1.406-0.979-2.06
	c-1.47-4.64-0.938-8.163-3.507-12.871c-3.224-6.08,1.793-9.246,1.587-12.679c-0.08-0.915-0.406-1.47-0.491-2.19
	c-0.61-3.791-0.974-7.187-3.505-10.161c-2.777-3.232-2.409-2.091-1.512-7.415c1.141-6.11-1.468-4.544-5.142-4.705
	c-1.798-5.552-5.308-2.845-8.815-1.208c-2.206,1.011-3.019-0.294-5.51,0.065c-5.55,0.751-1.182,3.138-8.61-2.743
	c-3.102-2.452-1.021-1.211-2.855-4.282c-0.61-1.112-2.489-2.58-3.349-3.695c-2.814-3.528,0.533-7.09,0.042-11.14
	c-0.857-7.516-2.081-0.982,2.123-10.065c2.206-4.835,5.55-4.866,6.41-7.025c0.735-1.925,0.244-3.3,1.632-5.064
	c1.223-1.437,2.98-1.143,3.674-3.398c0.979-2.777-0.899-3.133-2.938-3.203c-0.855-2.907-0.855-2.19-0.205-4.869
	c0.369-1.504,0.042-2.224,0.369-3.725c0.816-3.757,7.223-0.031,9.06-1.569c0.855-1.6,0.979-3.167,0-4.705
	c-1.024-1.536-2.367-1.34-3.061-2.809c1.551-1.045,0.408-0.13,1.754-0.426c1.59-0.358,1.385-0.818,3.263-1.174
	c1.676-0.33,2.738-1.863,4.367-2.907c2.325-1.504,1.223-2.847,4.04-3.3c4.529-0.787,1.59-0.655,2.084-4.871
	c0.691-0.26,1.343-0.559,1.995-0.849c1.429,1.863-0.366,1.112,1.346,2.351c0.449-0.26,0.979-0.52,1.47-0.78
	c-0.247-2.029-1.182-1.637-1.796-4.149c-2.245,0.358-3.061,2.252-4.855,1.567c-1.754-0.652-1.837-3.17-1.754-5.261
	c0.652-1.567,3.915-2.416,5.178-2.811c2.045-0.686,1.756-2.058,3.632-3.923c2.45-2.45,0.652,0.034,1.837-3.133
	c2.694-0.101,1.429-0.197,3.019-1.013l0.08-0.031l0.164-0.067c0.941-0.426,2.164-0.522,3.388-0.946
	c4.487-1.502,6.324-0.751,9.587,0.584c2.531,1.047,10.161,1.078,10.732,4.284c-1.834,1.923-3.588,0.52-6.243,0.686
	c0.488,2.481,0.691,2.481,2.938,3.167c0.369-1.177-0.164-0.717,0.449-1.47c0.735,0.164,1.47,0.294,2.203,0.429
	c0.738-2.518,1.592-2.157,4.084-2.452c-0.411-1.733-0.86-1.242,0.078-2.613c2.575,0.265,0.491,0.037,1.756,2.094
	c1.796-0.231,3.552-2.224,6.038-2.484c1.551-0.164,1.47,0.426,3.671,0.195c1.796-0.195,1.712-0.849,3.513-0.096
	c0.65-1.21,0-1.18,1.59-1.47c2.445-0.426,4.57,1.076,6.935,1.406c-1.751-2.154-3.427-1.733-1.263-5.326
	c2.733-0.556,2.977-0.164,4.162,1.897c0.671-0.377,0.956-0.756,1.289-0.948L223.625,99.74z M86.378,275.997L86.378,275.997
	c-4.245-1.855-8.381-3.91-12.4-6.15c-0.049-0.166-0.093-0.348-0.133-0.559c-0.61-3.629,0.94-4.022-0.777-10.068
	c-1.125-3.998-0.673-13.471-1.863-18.327c-0.19-0.774-0.424-1.432-0.706-1.933c-1.101-1.826-3.796-2.676-5.955-4.149
	c-0.125-0.029-0.205-0.065-0.244-0.13c-2.98-2.091-5.796-10.294-8.163-13.362c-1.099-1.473-1.793-0.821-2.284-3.138
	c-0.53-2.123,0.286-1.762,0.982-3.531c-3.632-6.664,4.692-6.568,2.98-14.573c-0.369-1.47-1.427-3.528-2.325-4.178
	c-1.714,0.751-0.902,1.172-1.798,2.611c-1.385-0.785-2.772-1.572-4.118-2.351c-4.204-4.053-1.961-1.114-3.141-3.759
	c-2.531-5.555-4.942-2.447-7.96-5.194c-1.348-1.146-1.592-2.944-3.835-2.613c-3.388,0.457-1.512,0.979-5.019-0.658
	c-2.98-1.406-6.08-3.037-8.163-4.934c-0.08-2.941,0.982-3.074-0.855-5.815c-0.325-0.509-0.691-0.982-1.063-1.434
	c5.741-26.124,19.491-49.241,38.55-66.648c1.481,0.517,3.44,0.177,4.91,0.117c0.528-0.979,0.855-1.831,1.795-2.19
	c0.366-0.13,0.816-0.161,1.427-0.13c0.08,0.486,0.205,0.979,0.327,1.468c0,0.037,0.083,0.361,0.042,0.296
	c0.042-0.067,0.08,0.195,0.119,0.291c2.575-1.502,0.411-1.536,1.796-4.248c-2.162-0.426-1.876-0.167-3.224-1.538
	c1.31-1.437,3.835-1.928,5.713-1.796c-0.125,1.31-0.735,1.276-0.242,2.385c1.468-0.915,2.489-3.362,4.853-2.907
	c0.449,0.325,0.982,0.621,1.47,0.915c-1.226,1.143-3.061,1.21-4.651,1.863c-0.696,7.093,2.245,1.146,1.263,6.014
	c1.754-0.13,3.468-1.406,4.12-2.712c-0.652-0.849-1.592-0.849-2.12-1.863c0.411-1.307,1.289-2.297,2.531-2.886
	c0.839-0.398,1.842-0.61,2.98-0.61c12.975,0.099,6.812,0.686,10.813,2.518c0.896,0.39,2.486,0.59,3.019,1.372
	c0.816,1.242,0.042,2.416,1.346,3.398c1.143,0.849,1.307-0.034,2.816,1.865c-0.325,1.076-1.101,2.188-2.692,2.221
	c-2.203,0.031-0.899-1.473-3.266-1.242c0.044,2.218,2.245,3.071,0.202,4.279c-1.796,1.081-0.655-0.39-1.998,0.361
	c-0.042,0.034-0.164,0.099-0.202,0.133c-0.08,0.065-0.164,0.164-0.205,0.228c-0.242,0.262-0.449,0.491-0.65,0.722
	c-3.263-0.886-2.65-0.491-4.611-2.648c-0.732-0.816-0.855-1.013-2.162-0.915c-0.816,0.031-1.876,0.39-2.653-0.327
	c1.592-1.993,2.369-0.065,4.695-1.244c0.408-0.197,2.977-2.188,3.388-2.648c-0.694-1.569-0.083-0.265-1.099-1.276
	c-2.287-2.317-2.944-1.733-6.038-1.733c-1.452,1.671-2.539,3.736-4.12,4.643c-0.956,0.548-2.091,0.673-3.593,0.031
	c0.694,2.811,2.489,0.655,2.65,4.051c-1.182-0.228-1.796-0.818-3.019-0.392c-2.613,0.979-0.286,0.881-0.083,1.406
	c0,0.034,1.223,0.164,0,0.621c-1.348,0.488-0.205-0.262-2.814-1.798c0.366-0.652,0.735-1.338,1.101-2.024
	c-2.12,0.655-4.775,1.699-7.261,2.907c-2.819,1.406-5.469,3.009-7.062,4.476c-0.042,2.452,0.408,0.816,0.655,3.728
	c3.793,0.226,2.569,1.366,6.365,2.447c0.73,0.2,1.673,0.395,2.816,0.59c0,1.831-1.634,3.203-0.494,5.1
	c2.653,1.857,2.733-1.767,3.388-4.084c8.981-1.876,4.653-4.515,6.973-9.457c0.348-0.738,0.841-1.525,1.554-2.375
	c0.691,0.034,3.507,0.33,4.12,0.457c2.042,0.358,0.94,0.849,3.144,1.829c-0.042,1.767-0.938,4.053,1.673,3.629
	c2-0.356,1.554-1.928,3.998-2.32c1.099,2.582,0.816,3.694,1.304,6.797c5.877,2.289,3.263,4.149,2.12,8.434
	c0.738,0.358,1.51,0.686,2.287,1.011c-0.039,1.242-0.083,2.453-0.122,3.663c-0.122,0-6.287-1.343-6.693-1.47
	c0.938-2.681,2.653-2.712,3.754-5.456c-2.203,0.39-2.042,1.076-3.632,1.567c-1.426,0.426-2.528,0.13-4.038,0.327
	c-0.53,1.762-0.042-1.538,0.125,0.714c0.08,0.852,0.491,0.037-0.083,0.948c-2.042-0.948-1.346-3.17-5.142-1.112
	c0.857,0.392,1.712,0.751,2.611,1.112c-0.119,2.512-0.325,0.618-0.855,2.287c-1.307,4.279,3.549,1.632,4.814,1.406
	c-0.327,2.255-1.715,2.255-3.674,2.873c-2.159,0.655-2.814,1.538-4.529,1.931c0-2.681-0.406-0.426,0.774-2.287
	c-1.715,0.161-2.98,0.946-4.611,1.634l-0.161,0.062c-2.096,0.855-2.414,0.982-2.655,3.661c-1.796,0.554-3.876,1.18-5.142,2.486
	c-1.263,1.208-2.531,2.414-3.757,3.59c-0.119,0.099-0.205,0.197-0.281,0.263c0.449,3.364,0,3.43-2.045,4.741
	c-1.712,1.107-2.284,1.076-3.874,2.481c-5.1,4.575-2.65,2.447-2.369,10.325c-1.06-0.325-2.078-0.686-3.058-1.045
	c-0.777-5.23,0.283-3.494-3.918-4.705c-4.531-1.307-3.921,0.915-5.796,1.307c-2.081,0.454-3.102-1.897-6.121,0.065
	c-1.671,1.141-3.263,1.894-3.671,3.918c-0.488,2.452-1.59,4.245-1.429,6.96c0.289,7.355,6.978,7.776,8.693,4.346
	c1.141-2.287,0.857-3.528,4.57-2.941c0.366,1.961-0.205,3.398-0.696,4.903c-0.325,0.881-1.223,2.481-0.774,3.694
	c2.653,1.078,2.733-0.951,6.243,1.141c0.247,3.494-1.59,7.415,1.101,9.442c2.078,1.536,2.203,0.164,4.038-0.161
	c2.042-0.358,1.676,0.915,3.554,1.211c1.06-1.31,0.61-0.488,1.307-2.094c1.223-2.772,1.549-1.468,4.448-3.165
	c0.283-0.164,0.528-0.33,0.816-0.525c0.325,0.686,0.694,1.34,1.016,1.993c2.123-2.515,2.367-0.065,4.817,0.621
	c1.055,0.289,1.803,0.392,2.382,0.4c1.78,0.026,1.961-0.839,4.391,0.021c0.289,0.135,0.655,0.231,0.982,0.33
	c0.039,0,0.161,0.065,0.161,0.133c0.044,0.034,0.164,0.13,0.205,0.167c0.408,0.454,0.452,0.915,0.777,1.403
	c1.673,1.6,3.346,3.203,4.978,4.77c3.221,1.276,3.221-1.112,6.895,2.447c1.551,1.47,0.855,1.442,1.712,3.333
	c0.125,0.296,0.369,0.587,0.53,0.948c0.327,0.883,0.694,1.73,1.063,2.58c1.671,2.19,3.957,0.818,6.282,3.073
	c1.346,1.307,0.327,0.915,3.305,1.437c4.611,0.751,2.819,0.327,6.326,2.974c1.346,0.979,1.671,0.424,2.936,1.273
	c1.756,2.45,1.307,5.097-0.161,7.254c-4.531,6.599-2.98,5.521-3.185,10.751c-0.164,3.003-1.021,9.213-3.837,9.964
	c-10.239,2.879-4.284,4.871-6.976,9.935c-0.774,1.439-1.348,1.798-1.837,2.944c-2.037,4.767-0.61,6.37-6.651,5.292
	c0.574,1.011,0.205,0.325,0.777,1.239c1.796,2.777,2.081,4.871-1.592,5.552c-3.061,0.59-1.754,0-2.04,3.398
	c-1.185,0.491-1.715,0-2.489,0.785l0.289,0.538L86.378,275.997z M59.485,103.857L59.485,103.857c0.79-0.104,0.787-0.447,2.855-0.948
	c-0.164-0.686-0.289-0.686-0.449-0.946l-0.065-0.13c-0.787,0.665-1.569,1.343-2.341,2.027
	C59.485,103.86,59.485,103.857,59.485,103.857z M168.554,141.748L168.554,141.748l-0.08-0.057c-0.286-0.195-0.569-0.39-0.813-0.618
	c-1.795-1.603-2.167-3.037-4.162-2.679c-0.044,1.504,0.164,1.567,0.896,2.549c2.775,3.463,1.918,2.289,4.079,3.562l0.08,0.047
	c0.512,0.294,1.104,0.704,1.918,1.294c-2.775,2.445-0.202,2.707-1.918,3.526l-0.08,0.039c-0.167,0.062-0.325,0.13-0.447,0.195
	c-0.574-1.439,0.691-0.751-0.777-2.842c-0.816-1.078-1.59-1.406-2.855-1.998c-3.185-1.502-2.775-2.676-4.733-4.638
	c-2.206,0.067-1.712,0.753-3.263,1.538c-1.876,0.912-1.59-0.161-3.796,0.031c-1.795,3.173,0.774,0.525-2.489,3.138
	c-3.918,3.037-0.694,6.207-6.976,7.158c-0.449,0.065-0.613,0-1.06,0.161c-1.187,0.424-0.494,0.065-1.187,0.751
	c0.533,1.244-0.202,1.045,1.92,1.34c3.876,0.52,4.367-1.863,7.184-2.452c1.385-0.294,10.078-0.655,10.689-0.491
	c1.876,2.094,0.327,3.565,0.327,5.326c2.045,1.078,4.939,1.34,6.123,2.452c1.346,1.273,0.694,1.076,1.346,1.304l0.08,0.026
	c0.247,0.07,0.603,0.197,1.226,0.434c1.632,0.554,1.549,0.881,3.302,1.011c1.592-5.326-0.042-4.77,7.63-2.323
	c7.997,2.619,4.406,0.231,7.794,0.59c1.676,0.166,1.226,0.686,3.552,0.392c0.447-0.915,3.751-9.215-0.533-8.168
	c-1.265,0.325-0.406,0.782-2.203,0.325c-1.876-0.486-0.08-0.847-2.159-0.556c-2.045,0.296-4.489,2.094-6.082-4.081
	c-0.61-2.224-1.715-4.149-4.242-0.788c0.652,1.143,1.101,1.242,1.834,2.354c-0.202,0.325-0.896,1.143-1.141,1.406
	c-1.385,1.372,0.574,0.719-1.673,1.011c-1.223-0.915-0.977-2.091-2.162-3.723c-2.081-3.043-0.735-1.634-1.795-4.544
	c-0.834-0.732-2.219-1.281-3.349-2h-0.004V141.748z M212.134,229.715L212.134,229.715c-1.793,0.915-2.04,3.009-3.385,4.183
	c-1.468,1.34-3.43,0.722-3.998,3.203c-0.735,3.102,1.223,2.157-0.938,6.207c-0.774,1.502-0.816,5.258,0.369,6.373
	c3.547,3.427,5.466-5.227,6.282-7.94c0.613-1.928,1.185-4.115,1.837-5.916C212.952,233.898,213.891,232.202,212.134,229.715z
	 M206.26,138.552L206.26,138.552c0.286,3.99,2.65,5.524,4.326,7.352c-0.202,1.897-0.655,1.406-0.613,4.051
	c2,1.442,3.466,2.32,6.082,1.605c0.366-3.203-0.655-3.043-1.632-5.23c0.164-0.262,0.61-0.587,0.691-0.652
	c0.738-0.979,0.369,0.39,0.738-1.276c-1.918-0.618-5.019-2.582-5.261-5.16c0.938-0.751,0.652-0.296,1.343-0.751
	c1.51-0.982,0.369,0.52,1.265-1.146c-0.774-1.502-1.632-1.764-3.507-1.013c-0.816,0.327-2.98,1.863-3.43,2.221L206.26,138.552z
	 M189.57,139.599L189.57,139.599c-1.263-1.762-1.185-2.648-3.632-2.712c-0.977,1.047-2.12,2.613-2.65,4.214
	c-0.816,2.419-0.244,0.751-0.164,3.367c-0.042,0.096,0,0.231,0,0.327c-0.042,1.567-0.411-0.296-0.164,1.143
	c1.92-0.395,0.452-0.361,1.881-0.818c1.346-0.457,5.466-1.699,6.651-1.403c2.814,0.652,5.181,2.876,8.365,0.652
	c-0.166-2.842-3.593-3.921-5.96-5.165c0.125-2.611,0.816-0.553,0.652-3.071c-0.816-0.034-1.307-0.164-2.081,0.164
	c-1.837,0.816-0.816,1.047-0.816,1.34c0.08,1.403,1.837-0.294-0.039,1.439c-0.53,0.455-1.39,0.455-2.042,0.522L189.57,139.599
	L189.57,139.599z M141.909,119.799L141.909,119.799c-0.078,4.575,1.512,3.037,3.019,5.295c-0.691,1.928-0.816,0.426-1.587,2.416
	c-0.694,1.668,0.161,0.167-0.289,3.071c1.185,0.068,2.939-0.356,4.489-0.488c2.206-0.197,2.162-0.392,2.939-2.648
	c-1.223-1.502-2.447-3.006-3.713-4.508c-1.595-2.422,0-0.753-0.488-2.78c-0.366-0.719-0.696-1.434-1.021-2.157
	C143.135,118.723,143.34,118.526,141.909,119.799z"/>
</svg>
