<?xml version="1.0" encoding="utf-8"?>
<!-- Generator: Adobe Illustrator 17.0.0, SVG Export Plug-In . SVG Version: 6.00 Build 0)  -->
<!DOCTYPE svg PUBLIC "-//W3C//DTD SVG 1.1//EN" "http://www.w3.org/Graphics/SVG/1.1/DTD/svg11.dtd">
<svg version="1.1" id="Layer_1" xmlns="http://www.w3.org/2000/svg" xmlns:xlink="http://www.w3.org/1999/xlink" x="0px" y="0px"
	 width="288px" height="288px" viewBox="0 0 288 288" enable-background="new 0 0 288 288" xml:space="preserve">
<g>
	<path fill="#536D55" d="M-286.289,72.409c-0.259,2.261-0.592,4.494-0.984,6.688c-1.316,7.36-3.337,14.3-5.651,20.55
		c-16.488-24.127-44.604-29.805-44.604-29.805c0-14.467-6.968-23.608-13.011-28.814c-4.627-3.982-8.702-5.664-8.702-5.664
		S-317.383,34.247-286.289,72.409z"/>
	<path fill="#536D55" d="M-285.656,59.218v2.287c0,1.297-0.026,2.586-0.08,3.869c-0.1,2.373-0.286,4.72-0.552,7.034
		c-31.095-38.161-72.952-37.044-72.952-37.044c0.559-1.669,0.931-3.337,1.144-4.986C-355.337,9.336-378.4-9.339-378.4-9.339
		c28.88,3.398,49.284,13.855,63.658,26.287C-298.595,30.923-290.052,47.404-285.656,59.218z"/>
</g>
<path fill="#1E3322" d="M-279.275,73.12l-7.732,6.303l-0.266-0.326l-2.886-3.544c-20.942-25.702-47.117-32.657-60.38-34.525
	c-4.627-3.983-8.702-5.664-8.702-5.664c0.559-1.669,0.931-3.337,1.144-4.986c7.327,0.113,43.294,2.393,72.361,34.997
	c1.117,1.25,2.221,2.54,3.311,3.882L-279.275,73.12z"/>
<path fill="#9F5D36" d="M-235.287-35.796c28.914,0,41.306,46.472,41.306,46.472l-0.173,0.425
	c-7.021-2.846-14.587-5.199-22.544-6.968h-0.007V4.126C-216.611-17.925-235.287-35.796-235.287-35.796z"/>
<path fill="#CEA67F" d="M-145.17,64.484c0,23.782-25.377,30.264-59.496,19.846c-0.007-0.007-0.007-0.007-0.014-0.007
	c1.217,4.109,2.4,8.576,3.464,13.27c1.337,5.884,2.473,12.14,3.218,18.556l-6.495-4.202l-39.219,25.39l-17.332-11.216v-0.007
	l-21.886-14.168l-25.324,16.395c3.523-4.155,10.159-14.706,15.338-28.688v-0.007c3.005-8.111,5.511-17.385,6.635-27.239
	c0.406-3.57,0.632-7.214,0.632-10.904v-2.287c-0.02-16.608-0.033-34.778,7.612-46.472c4.082-6.256,10.418-10.657,20.231-11.98
	c-3.969-17.432-17.485-30.363-17.485-30.363c17.445,0,28.874,16.927,35.196,30.343c1.709,0.12,3.41,0.266,5.093,0.439
	c6.283,0.632,12.399,1.629,18.303,2.952h0.007c7.958,1.768,15.524,4.122,22.544,6.968c11.449,4.62,21.454,10.524,29.386,17.286
	C-152.483,38.867-145.17,51.413-145.17,64.484z"/>
<g enable-background="new    ">
	<path fill="#9F5D36" d="M-237.944,5.65c0,0-34.438,40.834-23.103,120.462l-21.886-14.168l-25.324,16.395
		c3.523-4.155,10.159-14.706,15.338-28.688v-0.007c3.005-8.111,5.511-17.385,6.635-27.238c0.406-3.57,0.632-7.214,0.632-10.904
		v-2.287c-0.02-16.608-0.033-34.778,7.612-46.472c4.082-6.256,10.418-10.657,20.231-11.98
		c-3.969-17.432-17.485-30.363-17.485-30.363c17.445,0,28.874,16.927,35.196,30.343c1.709,0.12,3.41,0.266,5.093,0.439
		L-237.944,5.65z"/>
	<path fill="#9F5D36" d="M-201.216,97.592c-34.286-9.959-50.075-35.436-50.075-35.436c16.262,10.378,32.218,17.778,46.605,22.159
		c0,0,0,0,0.007,0.007C-203.464,88.431-202.28,92.899-201.216,97.592z"/>
</g>
<g>
	<path fill="#4D4D4D" d="M-209.828,33.27c-0.765,0-1.532-0.292-2.116-0.876c-1.695-1.695-3.949-2.629-6.347-2.629
		c-2.397,0-4.651,0.933-6.347,2.63c-1.168,1.168-3.063,1.168-4.231,0c-1.169-1.168-1.169-3.062,0-4.231
		c2.825-2.825,6.582-4.381,10.578-4.381c3.995,0,7.752,1.556,10.577,4.382c1.169,1.168,1.169,3.062,0,4.231
		C-208.296,32.978-209.063,33.27-209.828,33.27z"/>
	<path fill="#4D4D4D" d="M-168.97,33.27c-0.765,0-1.532-0.292-2.116-0.876c-1.695-1.695-3.949-2.629-6.347-2.629
		s-4.652,0.933-6.347,2.629c-1.167,1.169-3.062,1.168-4.231,0s-1.169-3.062,0-4.231c2.825-2.825,6.581-4.382,10.577-4.382
		c3.995,0,7.752,1.556,10.577,4.382c1.169,1.168,1.169,3.062,0,4.231C-167.438,32.978-168.204,33.27-168.97,33.27z"/>
</g>
<g enable-background="new    ">
	<path fill="#9F5D36" d="M-169.936,67.688c-1.81,0-3.323-1.519-3.324-3.324c-0.002-1.831,1.549-3.368,3.385-3.323
		c1.745,0.043,3.198,1.463,3.259,3.213C-166.552,66.095-168.093,67.688-169.936,67.688z"/>
	<path fill="#9F5D36" d="M-151.986,63.699c-1.848,0-3.38-1.582-3.321-3.425c0.056-1.765,1.54-3.234,3.318-3.228
		c1.732,0.005,3.216,1.396,3.321,3.128C-148.554,62.046-150.107,63.699-151.986,63.699z"/>
</g>
<path fill="#EEE4D1" d="M-142.493,150.996c0,50.441-36.912,92.273-85.199,99.951c-5.212,0.825-10.564,1.257-16.016,1.257
	c-55.9,0-101.215-45.315-101.215-101.208c0-8.656,1.084-17.911,3.131-27.378l19.646,12.718l13.889-8.995l25.324-16.395l12.751,8.258
	l26.467,17.133l39.219-25.39l6.495,4.202v0.007l32.723,21.182l19.653-12.718C-143.577,133.086-142.493,142.34-142.493,150.996z"/>
<path fill="#CCC8C4" d="M-227.693,250.947c-5.212,0.825-10.564,1.257-16.016,1.257c-55.9,0-101.215-45.315-101.215-101.208
	c0-8.656,1.084-17.911,3.131-27.378l19.646,12.718l13.889-8.995l25.324-16.395l12.752,8.258c0,0-35.908,91.195,42.483,131.737
	C-227.698,250.941-227.693,250.941-227.693,250.947z"/>
<g id="pAoIAU_1_">
	
		<image overflow="visible" width="400" height="400" id="pAoIAU_3_" xlink:href="90138746967A574.jpg"  transform="matrix(1 0 0 1 362.2523 -67.4614)">
	</image>
</g>
<circle fill="#1E3322" cx="143.999" cy="145.76" r="143.999"/>
<path fill="#D0A77B" d="M288,145.761c0,15.752-2.533,30.916-7.206,45.104l-0.006,0.017c-1.781,5.407-3.873,10.673-6.26,15.775
	l-3.715-1.27l-25.026-8.575l-71.353-24.439l-8.04-2.757l-28.518-9.768l-20.571-7.047l-20.077-6.877l-8.035-2.751h-0.006
	L25.746,121.44l-22.193-7.599c0.623-2.745,1.322-5.466,2.098-8.146C10.893,87.55,19.61,70.882,31.036,56.458l6.847,2.345
	l25.026,8.57l95.61,32.755l8.035,2.751l16.069,5.501l5.36,1.84l6.677,2.287l2.086,0.711l27.113,9.293l11.861,4.061l8.04,2.757
	l39.191,13.418l5.043,1.728C288,144.903,288,145.332,288,145.761z"/>
<g>
	<path fill="#3D3028" d="M74.828,92.3c-4.008-1.37-8.011-0.559-9.809,4.702l-2.78,8.105c-1.798,5.26,0.864,8.358,4.867,9.727
		c4.373,1.498,8.475,0.305,9.868-3.761c0.629-1.834,0.006-2.522-1.64-3.086c-1.229-0.423-2.369-0.47-2.851,0.629
		c-0.499,1.158-1.293,2.974-3.738,2.134c-1.775-0.605-2.445-1.928-1.734-4.008l2.774-8.105c0.711-2.075,2.057-2.71,3.802-2.116
		c2.598,0.893,2.016,2.88,1.775,3.685c-0.312,1.123,0.611,1.816,1.893,2.257c1.622,0.552,2.533,0.388,3.162-1.446
		C81.746,97.131,79.201,93.798,74.828,92.3z"/>
	<path fill="#3D3028" d="M93.754,98.782l-6.33-2.169c-0.888-0.3-1.699,0.17-1.957,0.934l-6.665,19.448
		c-0.335,0.982,0.694,1.875,1.887,2.287c1.193,0.406,2.551,0.329,2.886-0.653l2.522-7.37l2.022,0.694l1.405,9.569
		c0.112,0.758,0.611,1.199,1.222,1.411c1.405,0.482,3.439-0.259,3.844-1.452c0.053-0.153,0.094-0.376,0.035-0.6l-1.416-8.04
		c2.427-0.088,4.655-1.51,5.83-4.937C100.743,102.92,97.945,100.216,93.754,98.782z M94.107,106.729
		c-0.729,2.139-2.01,2.486-3.727,1.898l-3.027-1.034l1.951-5.69l3.027,1.04C94.042,103.532,94.841,104.589,94.107,106.729z"/>
	<path fill="#3D3028" d="M107.243,103.402c-1.193-0.406-2.533-0.388-2.88,0.623l-6.659,19.443c-0.335,0.982,0.688,1.881,1.881,2.287
		c1.193,0.411,2.551,0.329,2.886-0.653l6.665-19.443C109.477,104.648,108.436,103.813,107.243,103.402z"/>
	<path fill="#3D3028" d="M130.048,111.219c-1.711-0.588-2.504-0.658-4.514,1.117l-5.037,4.426l-1.264-6.583
		c-0.499-2.633-1.169-3.068-2.88-3.656c-1.193-0.406-2.604-0.176-3.203,1.569l-6.336,18.497c-0.335,0.982,0.688,1.881,1.881,2.287
		c1.193,0.411,2.551,0.329,2.886-0.652l4.038-11.767l1.082,6.312c0.123,0.829,0.641,1.21,1.193,1.399
		c0.582,0.2,1.264,0.194,1.893-0.341l4.655-4.008l-0.641,1.863v0.006l-3.286,9.598c-0.024,0.07-0.041,0.141-0.047,0.212
		c-0.135,0.893,0.823,1.693,1.928,2.074c1.193,0.406,2.551,0.323,2.886-0.652l1.916-5.601l3.368-9.833v-0.006l1.052-3.062
		C132.216,112.677,131.276,111.637,130.048,111.219z"/>
	<path fill="#3D3028" d="M149.743,117.961l-4.819-1.651l-6.065-2.075c-1.04-0.358-2.245-0.223-2.58,0.752l-2.909,8.499l-3.744,10.92
		c-0.335,0.976,0.535,1.822,1.575,2.181l4.173,1.428l5.137,1.757l1.575,0.541c0.365,0.123,0.699,0.082,0.993-0.059
		c0.529-0.264,0.929-0.87,1.146-1.499c0.388-1.128,0.206-2.287-0.711-2.598l-3.033-1.04l-5.167-1.769l1.781-5.196l4.591,1.569
		c1.011,0.346,1.769-0.488,2.051-1.311c0.335-0.982,0.123-2.045-0.794-2.357l-4.591-1.575l1.769-5.167l8.199,2.81
		c0.917,0.312,1.769-0.488,2.157-1.616C150.813,119.523,150.754,118.307,149.743,117.961z"/>
	<path fill="#3D3028" d="M173.929,127.729c-0.735-1.716-3.803-2.991-5.102-3.439c-1.252-0.429-2.586-0.676-3.867-0.646
		c-1.211,0.012-2.374,0.271-3.386,0.847c-1.193,0.664-2.175,1.775-2.745,3.45c-0.053,0.159-0.1,0.312-0.141,0.464
		c-0.641,2.321,0.035,4.155,1.152,5.713c0.776,1.082,1.769,2.022,2.68,2.904c1.64,1.569,3.027,2.921,2.504,4.455
		c-0.112,0.323-0.282,0.57-0.499,0.764c-0.153,0.141-0.335,0.253-0.535,0.329c-0.752,0.312-1.752,0.206-2.621-0.094
		c-0.294-0.1-0.559-0.218-0.799-0.346c-2.086-1.14-2.333-3.256-3.626-3.697c-1.164-0.394-2.604,0.817-2.957,1.857
		c-0.065,0.194-0.106,0.4-0.112,0.611c-0.029,1.193,0.881,2.633,2.398,3.862c1.005,0.817,2.28,1.534,3.72,2.028
		c1.675,0.576,3.291,0.746,4.737,0.499c1.693-0.282,3.151-1.14,4.185-2.598c0.423-0.588,0.776-1.281,1.046-2.075
		c0.406-1.193,0.517-2.263,0.406-3.238c-0.564-5.325-7.494-7.676-6.612-10.262c0.329-0.946,1.517-1.528,3.685-0.787
		c0.206,0.07,0.394,0.141,0.564,0.218c1.981,0.852,2.216,2.033,3.227,2.38c1.346,0.458,2.474-1.034,2.757-1.857
		c0.035-0.106,0.065-0.206,0.076-0.312C174.123,128.399,174.07,128.058,173.929,127.729z"/>
	<path fill="#3D3028" d="M188.753,131.767c-0.823-0.57-1.793-1.052-2.868-1.423c-2.38-0.817-4.767-0.858-6.682,0.353
		c-0.899,0.564-1.693,1.399-2.339,2.563c-0.294,0.529-0.559,1.123-0.787,1.786l-1.434,4.185l-1.34,3.914
		c-1.798,5.26,0.864,8.358,4.867,9.733c4.373,1.499,8.47,0.305,9.862-3.761c0.629-1.834,0.012-2.527-1.64-3.091
		c-1.222-0.417-2.369-0.47-2.845,0.629c-0.499,1.164-1.293,2.974-3.738,2.139c-1.775-0.611-2.451-1.934-1.734-4.015l2.774-8.099
		c0.711-2.081,2.057-2.715,3.797-2.116c2.604,0.888,2.022,2.88,1.781,3.685c-0.317,1.123,0.605,1.81,1.893,2.251
		c1.622,0.559,2.533,0.388,3.162-1.446C192.479,136.134,191.28,133.518,188.753,131.767z"/>
	<path fill="#3D3028" d="M209.982,138.597l-10.885-3.727c-1.04-0.358-2.245-0.223-2.58,0.752l-6.654,19.42v0.006
		c-0.329,0.975,0.535,1.816,1.575,2.175l4.767,1.634l6.118,2.092c1.011,0.346,1.805-0.576,2.139-1.558
		c0.388-1.128,0.206-2.287-0.711-2.604l-2.715-0.929l-5.484-1.875l1.076-3.139l0.705-2.063l1.687,0.576l2.904,0.999
		c1.005,0.346,1.769-0.488,2.051-1.317c0.323-0.946,0.135-1.969-0.705-2.321h-0.006c-0.029-0.017-0.053-0.024-0.082-0.035
		l-4.591-1.569l1.769-5.167l8.199,2.803c0.917,0.317,1.769-0.482,2.157-1.616C211.052,140.16,210.993,138.943,209.982,138.597z"/>
	<path fill="#3D3028" d="M227.779,144.691c-1.193-0.406-2.533-0.388-2.88,0.623l-3.562,10.392l-1.716-11.144
		c-0.012-0.076-0.024-0.153-0.035-0.223c-0.394-2.427-0.999-2.798-2.662-3.368c-1.193-0.406-2.545-0.358-2.886,0.653l-2.68,7.823
		l-3.973,11.596c-0.335,0.976,0.688,1.875,1.881,2.28c1.193,0.411,2.557,0.329,2.892-0.646l3.562-10.397l2.181,12.572
		c0.218,1.264,1.123,1.816,2.222,2.192c1.193,0.411,2.551,0.329,2.886-0.652l6.665-19.443
		C230.018,145.938,228.972,145.103,227.779,144.691z"/>
	<path fill="#3D3028" d="M247.469,151.439l-10.885-3.732c-1.04-0.353-2.245-0.223-2.58,0.758l-6.653,19.414
		c-0.335,0.982,0.541,1.828,1.581,2.181l10.885,3.732c1.005,0.341,1.798-0.582,2.134-1.558c0.388-1.135,0.206-2.287-0.711-2.604
		l-8.193-2.804l1.781-5.201l4.584,1.569c1.011,0.346,1.769-0.482,2.057-1.311c0.335-0.976,0.118-2.04-0.799-2.357l-4.591-1.569
		l1.775-5.167l8.193,2.803c0.917,0.317,1.769-0.482,2.157-1.616C248.538,153.002,248.48,151.786,247.469,151.439z"/>
	<path fill="#3D3028" d="M288,145.761c0,15.752-2.533,30.916-7.206,45.104l-0.006,0.017l-9.974,14.506l-25.026-8.575l37.164-54.068
		l5.043,1.728C288,144.903,288,145.332,288,145.761z"/>
</g>
<polygon fill="#A05D30" points="243.76,129.328 174.435,172.375 97.228,145.926 166.553,102.879 "/>
<g>
	<path fill="#303C69" d="M120.467,131.497l6.73-4.179l-1.916,5.601c-0.335,0.976-1.693,1.058-2.886,0.653
		C121.29,133.189,120.332,132.39,120.467,131.497z"/>
	<path fill="#303C69" d="M150.478,120.506c-0.388,1.128-1.24,1.928-2.157,1.616l-8.199-2.81l-1.769,5.167l4.591,1.575
		c0.917,0.312,1.128,1.375,0.794,2.357c-0.282,0.823-1.04,1.658-2.051,1.311l-4.591-1.569l-1.781,5.196l5.167,1.769l3.033,1.04
		c0.917,0.312,1.099,1.469,0.711,2.598c-0.218,0.629-0.617,1.234-1.146,1.498c-0.294,0.141-0.629,0.182-0.993,0.059l-1.575-0.541
		l-5.137-1.757l-4.173-1.428c-1.04-0.358-1.91-1.205-1.575-2.181l3.744-10.919l11.555-7.176l4.819,1.651
		C150.754,118.307,150.813,119.523,150.478,120.506z"/>
	<path fill="#303C69" d="M171.231,130.926c-1.011-0.347-1.246-1.528-3.227-2.381c-0.17-0.076-0.358-0.147-0.564-0.218
		c-2.169-0.741-3.356-0.159-3.685,0.788c-0.881,2.586,6.048,4.937,6.612,10.262c0.112,0.976,0,2.045-0.406,3.238
		c-0.271,0.794-0.623,1.487-1.046,2.074c-1.034,1.457-2.492,2.316-4.185,2.598c-1.446,0.247-3.062,0.076-4.737-0.5
		c-1.44-0.494-2.715-1.21-3.72-2.028c-1.517-1.229-2.427-2.669-2.398-3.862c0.006-0.212,0.047-0.417,0.112-0.611
		c0.353-1.04,1.793-2.251,2.956-1.857c1.293,0.441,1.54,2.557,3.626,3.697c0.241,0.129,0.506,0.247,0.799,0.346
		c0.87,0.3,1.869,0.406,2.621,0.094c0.2-0.077,0.382-0.188,0.535-0.329c0.218-0.194,0.388-0.441,0.499-0.764
		c0.523-1.534-0.864-2.886-2.504-4.455c-0.911-0.881-1.904-1.822-2.68-2.904c-1.117-1.558-1.793-3.391-1.152-5.713
		c0.041-0.153,0.088-0.305,0.141-0.464c0.57-1.675,1.552-2.786,2.745-3.45c1.011-0.576,2.175-0.835,3.386-0.847
		c1.281-0.029,2.616,0.218,3.867,0.646c1.299,0.447,4.367,1.722,5.102,3.439c0.141,0.329,0.194,0.67,0.135,1.029
		c-0.012,0.106-0.041,0.206-0.076,0.312C173.706,129.892,172.577,131.385,171.231,130.926z"/>
	<path fill="#303C69" d="M188.317,140.501c-1.287-0.441-2.21-1.128-1.893-2.251c0.241-0.805,0.823-2.798-1.781-3.685
		c-1.74-0.6-3.086,0.035-3.797,2.116l-2.774,8.099c-0.717,2.081-0.041,3.403,1.734,4.015c2.445,0.835,3.238-0.975,3.738-2.139
		c0.476-1.099,1.622-1.046,2.845-0.629c1.652,0.564,2.269,1.258,1.64,3.092c-1.393,4.067-5.489,5.26-9.862,3.761
		c-4.003-1.375-6.665-4.473-4.867-9.733l1.34-3.914l1.434-4.185c0.229-0.664,0.494-1.258,0.787-1.786
		c0.646-1.164,1.44-1.999,2.339-2.563c1.916-1.21,4.303-1.169,6.682-0.353c1.076,0.37,2.045,0.852,2.868,1.423
		c2.527,1.752,3.727,4.367,2.727,7.288C190.851,140.889,189.939,141.059,188.317,140.501z"/>
	<path fill="#303C69" d="M210.716,141.136c-0.388,1.135-1.24,1.934-2.157,1.616l-8.199-2.803l-1.769,5.167l4.591,1.569
		c0.029,0.012,0.053,0.017,0.082,0.035h0.006c0.84,0.353,1.029,1.375,0.705,2.321c-0.282,0.829-1.046,1.663-2.051,1.317
		l-2.904-0.999l-1.687-0.576l-0.705,2.063l-1.076,3.139l5.484,1.875l-4.831,2.998l-4.767-1.634c-1.04-0.358-1.904-1.199-1.575-2.175
		v-0.006l6.653-19.419c0.335-0.976,1.54-1.111,2.58-0.752l10.885,3.727C210.993,138.943,211.052,140.16,210.716,141.136z"/>
	<path fill="#303C69" d="M219.586,144.339l-8.228,5.107l2.68-7.823c0.341-1.011,1.693-1.058,2.886-0.652
		C218.586,141.541,219.192,141.912,219.586,144.339z"/>
</g>
<path fill="#3D3028" d="M62.909,67.373L25.746,121.44l-22.193-7.599c0.623-2.745,1.322-5.466,2.098-8.146l32.232-46.891
	L62.909,67.373z"/>
<path fill="#D0A77B" d="M280.218,98.941l-10.015,6.218l-21.053,13.071l-13.43,8.34l-9.039,5.613l-23.41,14.535h-0.006l-4.243,2.639
	l-2.392,1.487l-6.765,4.197v0.006l-23.469,14.57L41.667,247.066c-9.657-9.751-17.932-20.883-24.504-33.067l-0.006-0.012
	c-3.521-6.536-6.554-13.371-9.051-20.465l2.616-1.628l78.465-48.719h0.006l34.607-21.488v-0.006l6.765-4.197v-0.006l27.953-17.35
	l49.806-30.927L230.8,55.248l16.234-10.086c2.95,3.021,5.766,6.166,8.44,9.439l0.006,0.006
	C266.177,67.667,274.617,82.642,280.218,98.941z"/>
<g>
	<path fill="#3D3028" d="M53.463,208.657c-1.023-1.652-1.951-1.605-3.432-0.688c-1.099,0.682-1.863,1.54-1.311,2.604
		c0.582,1.123,1.481,2.886-0.717,4.25c-1.587,0.987-3.039,0.67-4.202-1.199l-4.514-7.277c-1.164-1.863-0.799-3.303,0.764-4.279
		c2.333-1.446,3.509,0.259,3.979,0.952c0.67,0.958,1.786,0.682,2.945-0.035c1.452-0.905,1.898-1.716,0.876-3.362
		c-2.163-3.491-6.36-3.626-10.286-1.187c-3.597,2.234-5.496,5.848-2.563,10.574l4.514,7.277c2.933,4.726,7.018,4.62,10.615,2.386
		C54.057,216.239,55.726,212.307,53.463,208.657z"/>
	<path fill="#3D3028" d="M72.672,201.598c-0.088-0.135-0.235-0.312-0.447-0.406l-7.118-3.991c1.464-1.934,1.769-4.561-0.141-7.635
		c-2.774-4.479-6.641-4.02-10.403-1.681l-5.683,3.526c-0.794,0.494-0.94,1.423-0.517,2.11l10.844,17.462
		c0.547,0.881,1.893,0.653,2.962-0.012c1.07-0.664,1.869-1.769,1.322-2.645l-4.108-6.618l1.81-1.128l8.299,4.966
		c0.658,0.394,1.317,0.288,1.869-0.053C72.624,204.713,73.335,202.667,72.672,201.598z M60.053,196.725l-2.715,1.687l-3.174-5.107
		l2.721-1.687c1.534-0.958,2.863-0.905,4.056,1.017C62.133,194.556,61.592,195.767,60.053,196.725z"/>
	<path fill="#3D3028" d="M80.459,197.789l-10.844-17.468c-0.559-0.905-1.869-0.623-2.938,0.041s-1.904,1.716-1.34,2.621
		l10.844,17.462c0.541,0.881,1.887,0.652,2.956-0.012C80.206,199.77,81.006,198.665,80.459,197.789z"/>
	<path fill="#3D3028" d="M100.942,185.07l-10.315-16.616c-0.97-1.563-2.369-1.493-3.468-0.811c-1.54,0.958-2.098,1.528-1.992,4.208
		l0.241,6.694l-5.901-3.185c-2.351-1.275-3.115-1.034-4.649-0.076c-1.07,0.664-1.786,1.904-0.811,3.468l10.315,16.616
		c0.541,0.876,1.887,0.652,2.956-0.012c1.076-0.664,1.869-1.769,1.322-2.65l-6.559-10.568l5.572,3.156
		c0.723,0.429,1.346,0.271,1.84-0.041c0.523-0.323,0.952-0.858,0.934-1.681l-0.159-6.142l6.394,10.297
		c0.541,0.881,1.887,0.652,2.957-0.012C100.695,187.051,101.489,185.946,100.942,185.07z"/>
	<path fill="#3D3028" d="M117.452,174.097c-0.629-1.017-1.64-1.605-2.463-1.093l-7.359,4.567l-2.904-4.667l4.12-2.557
		c0.905-0.564,0.746-1.681,0.288-2.422c-0.547-0.881-1.51-1.387-2.333-0.876l-4.12,2.557l-2.88-4.637l7.359-4.573
		c0.823-0.511,0.746-1.675,0.118-2.692c-0.547-0.881-1.528-1.605-2.433-1.04l-9.78,6.072c-0.929,0.576-1.593,1.599-1.046,2.474
		l10.826,17.439c0.547,0.876,1.752,0.735,2.686,0.159l9.775-6.072C118.21,176.172,117.999,174.972,117.452,174.097z"/>
	<path fill="#3D3028" d="M137.877,159.85c-0.094-1.058-0.464-2.145-1.146-3.238c-4.296-6.924-12.678-0.993-14.382-3.738
		c-0.529-0.852-0.23-2.145,1.722-3.356c2.251-1.399,3.421-0.676,4.408-1.293c1.21-0.746,0.764-2.563,0.305-3.309
		c-1.328-2.139-5.507,0.076-6.965,0.982c-2.533,1.569-4.632,4.056-4.514,6.906c0.029,1.005,0.346,2.063,1.017,3.139
		c3.985,6.424,12.331,0.447,14.394,3.768c0.823,1.317-0.271,2.68-1.534,3.468c-2.557,1.587-4.643,0.065-5.93,0.864
		c-1.046,0.646-1.017,2.533-0.435,3.468c1.123,1.81,5.237,1.693,8.834-0.541C136.531,165.18,138.141,162.624,137.877,159.85z"/>
	<path fill="#3D3028" d="M153.193,146.731c-1.023-1.651-1.946-1.61-3.432-0.688c-1.099,0.682-1.857,1.54-1.311,2.604
		c0.582,1.123,1.487,2.886-0.711,4.25c-1.593,0.987-3.045,0.67-4.202-1.199l-4.52-7.277c-1.158-1.863-0.799-3.309,0.764-4.279
		c0.259-0.159,0.499-0.282,0.729-0.37c1.193-0.458,2.016-0.041,2.568,0.482c0.312,0.294,0.535,0.617,0.682,0.84
		c0.67,0.958,1.793,0.682,2.945-0.035c1.457-0.905,1.904-1.716,0.881-3.362c-1.587-2.551-4.255-3.309-7.106-2.58
		c-1.052,0.271-2.128,0.741-3.18,1.393c-0.717,0.447-1.37,0.946-1.928,1.505c-2.239,2.216-2.986,5.29-0.641,9.069l4.52,7.277
		c2.933,4.72,7.018,4.62,10.615,2.386C153.793,154.307,155.462,150.381,153.193,146.731z"/>
	<path fill="#3D3028" d="M171.549,140.507c-0.317-0.518-0.741-0.923-1.181-1.128c-0.429-0.2-0.881-0.218-1.287,0.035l-4.555,2.827
		l-0.535,0.329l-2.269,1.411l-1.152-1.851l-1.745-2.815l3.697-2.292l0.423-0.264c0.905-0.564,0.746-1.681,0.282-2.422
		c-0.547-0.876-1.505-1.387-2.328-0.876l-1.058,0.658l-3.062,1.904l-2.88-4.643l4.79-2.974l2.568-1.593
		c0.723-0.447,0.752-1.405,0.317-2.321c-0.059-0.129-0.129-0.253-0.206-0.376c-0.547-0.881-1.528-1.605-2.433-1.04l-9.775,6.072
		c-0.934,0.582-1.593,1.599-1.046,2.474l5.76,9.281l2.398,3.862l2.668,4.296c0.541,0.881,1.752,0.741,2.686,0.159l3.103-1.928
		l4.185-2.598l2.486-1.546C172.307,142.588,172.095,141.383,171.549,140.507z"/>
	<path fill="#3D3028" d="M188.705,130.574l-10.844-17.462c-0.564-0.905-1.869-0.623-2.945,0.041c-1.07,0.664-1.898,1.711-1.34,2.621
		l5.801,9.334l-9.722-5.725c-2.287-1.352-2.95-1.135-4.485-0.176c-1.07,0.664-1.887,1.74-1.322,2.645l1.111,1.793l3.045,4.902
		l6.636,10.685l0.035,0.059c0.541,0.876,1.887,0.652,2.957-0.012c1.076-0.664,1.869-1.769,1.322-2.65l-2.092-3.368l-2.798-4.502
		l-0.905-1.464l0.77,0.435l5.272,2.968l5.078,2.856c1.117,0.641,2.116,0.282,3.103-0.329c0.611-0.382,1.14-0.911,1.37-1.457
		C188.929,131.361,188.94,130.95,188.705,130.574z"/>
	<path fill="#3D3028" d="M205.215,119.601c-0.634-1.011-1.646-1.605-2.469-1.093l-7.359,4.573l-2.897-4.667l4.114-2.557
		c0.911-0.564,0.746-1.681,0.288-2.422c-0.047-0.076-0.094-0.147-0.147-0.218c-0.541-0.711-1.352-1.093-2.086-0.711
		c-0.035,0.012-0.065,0.029-0.1,0.053l-4.114,2.557l-2.886-4.637l0.423-0.259l6.941-4.314c0.823-0.511,0.741-1.681,0.112-2.698
		c-0.547-0.876-1.528-1.599-2.433-1.034l-9.775,6.065c-0.07,0.041-0.141,0.088-0.206,0.141c-0.823,0.593-1.352,1.522-0.847,2.339
		l10.826,17.439c0.547,0.876,1.757,0.735,2.686,0.153l9.775-6.065C205.973,121.681,205.762,120.482,205.215,119.601z"/>
	<polygon fill="#3D3028" points="230.798,55.245 208.325,69.199 226.677,132.186 249.151,118.232 	"/>
	<path fill="#3D3028" d="M280.218,98.941l-10.015,6.218L255.48,54.607C266.177,67.667,274.617,82.642,280.218,98.941z"/>
</g>
<path fill="#D0A77B" d="M233.457,258.604c-5.743,4.567-11.837,8.693-18.244,12.343c-7.658,4.367-15.763,8.052-24.221,10.968
	c-6.9,2.386-14.041,4.261-21.377,5.572c-7.094,1.275-14.371,2.033-21.782,2.227c-1.275,0.029-2.551,0.047-3.832,0.047
	c-5.325,0-10.585-0.288-15.764-0.858c-6.871-0.741-13.589-1.975-20.136-3.656c-19.825-5.084-38.004-14.288-53.567-26.643
	L233.457,258.604L233.457,258.604z"/>
<g>
	<path fill="#3D3028" d="M136.695,258.604l-8.458,30.299c-6.871-0.741-13.589-1.975-20.136-3.656l7.435-26.643L136.695,258.604
		L136.695,258.604z"/>
	<path fill="#3D3028" d="M177.673,258.604l-8.058,28.882c-7.094,1.275-14.371,2.033-21.782,2.227l8.681-31.11H177.673
		L177.673,258.604z"/>
	<path fill="#3D3028" d="M218.657,258.604l-3.444,12.343c-7.658,4.367-15.763,8.052-24.221,10.968l6.506-23.31L218.657,258.604
		L218.657,258.604z"/>
</g>
</svg>
