<?xml version="1.0" encoding="utf-8"?>
<!-- Generator: Adobe Illustrator 17.0.0, SVG Export Plug-In . SVG Version: 6.00 Build 0)  -->
<!DOCTYPE svg PUBLIC "-//W3C//DTD SVG 1.1//EN" "http://www.w3.org/Graphics/SVG/1.1/DTD/svg11.dtd">
<svg version="1.1" id="Layer_1" xmlns="http://www.w3.org/2000/svg" xmlns:xlink="http://www.w3.org/1999/xlink" x="0px" y="0px"
	 width="288px" height="288px" viewBox="0 0 288 288" enable-background="new 0 0 288 288" xml:space="preserve">
<g>
	<path fill="#536D55" d="M107.711,108.205c-0.259,2.261-0.592,4.494-0.984,6.688c-1.316,7.36-3.337,14.3-5.651,20.55
		c-16.488-24.127-44.604-29.805-44.604-29.805c0-14.467-6.968-23.608-13.011-28.814c-4.627-3.982-8.702-5.664-8.702-5.664
		S76.617,70.043,107.711,108.205z"/>
	<path fill="#536D55" d="M108.344,95.014v2.287c0,1.297-0.026,2.586-0.08,3.869c-0.1,2.373-0.286,4.72-0.552,7.034
		C76.617,70.043,34.76,71.16,34.76,71.16c0.559-1.669,0.931-3.337,1.144-4.986c2.759-21.042-20.304-39.717-20.304-39.717
		c28.88,3.398,49.284,13.855,63.658,26.287C95.405,66.719,103.948,83.2,108.344,95.014z"/>
</g>
<path fill="#1E3322" d="M114.725,108.916l-7.732,6.303l-0.266-0.326l-2.886-3.544c-20.942-25.702-47.117-32.657-60.38-34.525
	c-4.627-3.983-8.702-5.664-8.702-5.664c0.559-1.669,0.931-3.337,1.144-4.986c7.327,0.113,43.294,2.393,72.361,34.997
	c1.117,1.25,2.221,2.54,3.311,3.882L114.725,108.916z"/>
<path fill="#9F5D36" enable-background="new    " d="M158.713,0c28.914,0,41.306,46.472,41.306,46.472l-0.173,0.425
	c-7.021-2.846-14.587-5.199-22.544-6.968h-0.007v-0.007C177.389,17.871,158.713,0,158.713,0z"/>
<path fill="#CEA67F" enable-background="new    " d="M248.83,100.28c0,23.782-25.377,30.264-59.496,19.846
	c-0.007-0.007-0.007-0.007-0.014-0.007c1.217,4.109,2.4,8.576,3.464,13.27c1.337,5.884,2.473,12.14,3.218,18.556l-6.495-4.202
	l-39.219,25.39l-17.332-11.216v-0.007l-21.886-14.168l-25.324,16.395c3.523-4.155,10.159-14.706,15.338-28.688v-0.007
	c3.005-8.111,5.511-17.385,6.635-27.239c0.406-3.57,0.632-7.214,0.632-10.904v-2.287c-0.02-16.608-0.033-34.778,7.612-46.472
	c4.082-6.256,10.418-10.657,20.231-11.98c-3.969-17.432-17.485-30.363-17.485-30.363c17.445,0,28.874,16.927,35.196,30.343
	c1.709,0.12,3.41,0.266,5.093,0.439c6.283,0.632,12.399,1.629,18.303,2.952h0.007c7.958,1.768,15.524,4.122,22.544,6.968
	c11.449,4.62,21.454,10.524,29.386,17.286C241.517,74.663,248.83,87.209,248.83,100.28z"/>
<g enable-background="new    ">
	<path fill="#9F5D36" d="M156.056,41.446c0,0-34.438,40.834-23.103,120.462l-21.886-14.168l-25.324,16.395
		c3.523-4.155,10.159-14.706,15.338-28.688v-0.007c3.005-8.111,5.511-17.385,6.635-27.238c0.406-3.57,0.632-7.214,0.632-10.904
		v-2.287c-0.02-16.608-0.033-34.778,7.612-46.472c4.082-6.256,10.418-10.657,20.231-11.98
		c-3.969-17.432-17.485-30.363-17.485-30.363c17.445,0,28.874,16.927,35.196,30.343c1.709,0.12,3.41,0.266,5.093,0.439
		L156.056,41.446z"/>
	<path fill="#9F5D36" d="M192.784,133.388c-34.286-9.959-50.075-35.436-50.075-35.436c16.262,10.378,32.218,17.778,46.605,22.159
		c0,0,0,0,0.007,0.007C190.536,124.227,191.72,128.695,192.784,133.388z"/>
</g>
<g>
	<path fill="#4D4D4D" d="M184.172,69.066c-0.765,0-1.532-0.292-2.116-0.876c-1.695-1.695-3.949-2.629-6.347-2.629
		c-2.397,0-4.651,0.933-6.347,2.63c-1.168,1.168-3.063,1.168-4.231,0c-1.169-1.168-1.169-3.062,0-4.231
		c2.825-2.825,6.582-4.381,10.578-4.381c3.995,0,7.752,1.556,10.577,4.382c1.169,1.168,1.169,3.062,0,4.231
		C185.704,68.774,184.937,69.066,184.172,69.066z"/>
	<path fill="#4D4D4D" d="M225.03,69.066c-0.765,0-1.532-0.292-2.116-0.876c-1.695-1.695-3.949-2.629-6.347-2.629
		s-4.652,0.933-6.347,2.629c-1.167,1.169-3.062,1.168-4.231,0c-1.169-1.168-1.169-3.062,0-4.231
		c2.825-2.825,6.581-4.382,10.577-4.382c3.995,0,7.752,1.556,10.577,4.382c1.169,1.168,1.169,3.062,0,4.231
		C226.562,68.774,225.796,69.066,225.03,69.066z"/>
</g>
<g enable-background="new    ">
	<path fill="#9F5D36" d="M224.064,103.484c-1.81,0-3.323-1.519-3.324-3.324c-0.002-1.831,1.549-3.368,3.385-3.323
		c1.745,0.043,3.198,1.463,3.259,3.213C227.448,101.891,225.907,103.484,224.064,103.484z"/>
	<path fill="#9F5D36" d="M242.014,99.495c-1.848,0-3.38-1.582-3.321-3.425c0.056-1.765,1.54-3.234,3.318-3.228
		c1.732,0.005,3.216,1.396,3.321,3.128C245.446,97.842,243.893,99.495,242.014,99.495z"/>
</g>
<path fill="#EEE4D1" enable-background="new    " d="M251.507,186.792c0,50.441-36.912,92.273-85.199,99.951
	c-5.212,0.825-10.564,1.257-16.016,1.257c-55.9,0-101.215-45.315-101.215-101.208c0-8.656,1.084-17.911,3.131-27.378l19.646,12.718
	l13.889-8.995l25.324-16.395L123.818,155l26.467,17.133l39.219-25.39l6.495,4.202v0.007l32.723,21.182l19.653-12.718
	C250.423,168.882,251.507,178.136,251.507,186.792z"/>
<path fill="#CCC8C4" d="M166.307,286.743c-5.212,0.825-10.564,1.257-16.016,1.257c-55.9,0-101.215-45.315-101.215-101.208
	c0-8.656,1.084-17.911,3.131-27.378l19.646,12.718l13.889-8.995l25.324-16.395L123.818,155c0,0-35.908,91.195,42.483,131.737
	C166.302,286.737,166.307,286.737,166.307,286.743z"/>
</svg>
