<?xml version="1.0" encoding="utf-8"?>
<!-- Generator: Adobe Illustrator 17.0.0, SVG Export Plug-In . SVG Version: 6.00 Build 0)  -->
<!DOCTYPE svg PUBLIC "-//W3C//DTD SVG 1.1//EN" "http://www.w3.org/Graphics/SVG/1.1/DTD/svg11.dtd">
<svg version="1.1" id="Layer_1" xmlns="http://www.w3.org/2000/svg" xmlns:xlink="http://www.w3.org/1999/xlink" x="0px" y="0px"
	 width="288px" height="288px" viewBox="0 0 288 288" enable-background="new 0 0 288 288" xml:space="preserve">
<polygon fill="#9F5F35" points="184.728,29.876 143.862,29.876 143.862,4.345 184.728,4.345 175.92,17.111 "/>
<path fill="#B8C1C8" d="M143.862,65.047c-2.432,0-4.404-1.946-4.404-4.345V4.345c0-2.4,1.972-4.345,4.404-4.345
	s4.404,1.946,4.404,4.345v56.356C148.266,63.101,146.294,65.047,143.862,65.047z"/>
<polyline fill="#EDE6D2" points="101.526,215.858 101.526,101.146 186.198,101.146 186.198,215.858 "/>
<polygon fill="#E3D1C7" points="186.198,101.146 122.192,101.146 101.526,101.146 101.526,117.078 101.526,215.858 122.192,215.858 
	122.192,117.078 186.198,117.078 "/>
<polygon fill="#D1A982" points="220.832,175.881 220.832,288.254 62.295,288.254 62.295,175.881 101.526,175.881 101.526,193.663 
	117.5,193.663 117.5,175.881 135.878,175.881 135.878,193.663 151.845,193.663 151.845,175.881 170.231,175.881 170.231,193.663 
	186.198,193.663 186.198,175.881 "/>
<rect x="14.737" y="157.631" fill="#EDE6D2" width="66.053" height="130.623"/>
<polygon fill="#E3D1C7" points="80.79,157.631 34.112,157.631 14.73,157.631 14.73,172.41 14.73,288.254 34.112,288.254 
	34.112,172.41 80.79,172.41 "/>
<rect x="206.926" y="157.631" fill="#EDE6D2" width="66.053" height="130.623"/>
<polygon fill="#E3D1C7" points="272.986,157.631 226.308,157.631 206.926,157.631 206.926,172.41 206.926,288.254 226.308,288.254 
	226.308,172.41 272.986,172.41 "/>
<g>
	<path fill="#D1A982" d="M65.057,124.711v16.46H49.09v-16.46H31.707v16.46H15.74v-16.46H0v23.599c0,5.152,4.232,9.328,9.454,9.328
		h71.35v-32.92H65.057V124.711z"/>
	<path fill="#D1A982" d="M271.99,124.711v16.46h-15.967v-16.46H238.64v16.46h-15.967v-16.46h-15.74v32.92h71.35
		c5.222,0,9.454-4.176,9.454-9.328v-23.599H271.99V124.711z"/>
</g>
<g>
	<path fill="#283340" d="M238.455,179.359L238.455,179.359c-6.809,0-12.332,5.451-12.332,12.169V217.6h24.665v-26.073
		C250.781,184.809,245.264,179.359,238.455,179.359z"/>
	<path fill="#283340" d="M46.444,179.359L46.444,179.359c-6.809,0-12.332,5.451-12.332,12.169V217.6H58.77v-26.073
		C58.77,184.809,53.253,179.359,46.444,179.359z"/>
</g>
<polygon fill="#9F5F35" points="143.862,44.939 86.225,101.146 201.492,101.146 "/>
<polygon fill="#6D2313" points="123.951,101.146 143.862,44.939 86.225,101.146 "/>
<g>
	<path fill="#283340" d="M143.862,117.078L143.862,117.078c-6.809,0-12.332,5.451-12.332,12.169v26.073h24.665v-26.073
		C156.194,122.521,150.671,117.078,143.862,117.078z"/>
	<path fill="#283340" d="M143.862,215.858L143.862,215.858c-16.537,0-29.949,13.226-29.949,29.551v42.587h59.89v-42.587
		C173.81,229.091,160.399,215.858,143.862,215.858z"/>
</g>
<g>
	<path fill="#E3D1C7" d="M42.04,246.277H29.708c-2.432,0-4.404-1.946-4.404-4.345c0-2.4,1.972-4.345,4.404-4.345H42.04
		c2.432,0,4.404,1.946,4.404,4.345C46.444,244.331,44.473,246.277,42.04,246.277z"/>
	<path fill="#E3D1C7" d="M56.132,260.181H43.8c-2.432,0-4.404-1.946-4.404-4.345s1.972-4.345,4.404-4.345h12.332
		c2.432,0,4.404,1.946,4.404,4.345S58.564,260.181,56.132,260.181z"/>
	<path fill="#E3D1C7" d="M235.81,246.277h-12.332c-2.432,0-4.404-1.946-4.404-4.345c0-2.4,1.972-4.345,4.404-4.345h12.332
		c2.432,0,4.404,1.946,4.404,4.345C240.214,244.331,238.242,246.277,235.81,246.277z"/>
	<path fill="#E3D1C7" d="M249.902,260.181h-12.332c-2.432,0-4.404-1.946-4.404-4.345s1.972-4.345,4.404-4.345h12.332
		c2.432,0,4.404,1.946,4.404,4.345S252.334,260.181,249.902,260.181z"/>
	<path fill="#E3D1C7" d="M192.649,220.204h-12.332c-2.432,0-4.404-1.946-4.404-4.345s1.972-4.345,4.404-4.345h12.332
		c2.432,0,4.404,1.946,4.404,4.345C197.053,218.258,195.082,220.204,192.649,220.204z"/>
	<path fill="#E3D1C7" d="M125.428,117.654h-12.332c-2.432,0-4.404-1.946-4.404-4.345s1.972-4.345,4.404-4.345h12.332
		c2.432,0,4.404,1.946,4.404,4.345S127.86,117.654,125.428,117.654z"/>
	<path fill="#E3D1C7" d="M106.335,230.637H94.003c-2.432,0-4.404-1.946-4.404-4.345s1.972-4.345,4.404-4.345h12.332
		c2.432,0,4.404,1.946,4.404,4.345C110.739,228.691,108.767,230.637,106.335,230.637z"/>
</g>
</svg>
