<?xml version="1.0" encoding="utf-8"?>
<!-- Generator: Adobe Illustrator 16.0.0, SVG Export Plug-In . SVG Version: 6.00 Build 0)  -->
<!DOCTYPE svg PUBLIC "-//W3C//DTD SVG 1.1//EN" "http://www.w3.org/Graphics/SVG/1.1/DTD/svg11.dtd">
<svg version="1.1" xmlns="http://www.w3.org/2000/svg" xmlns:xlink="http://www.w3.org/1999/xlink" x="0px" y="0px" width="50px"
	 height="50px" viewBox="0 0 50 50" enable-background="new 0 0 50 50" xml:space="preserve">
<g id="Layer_1" display="none">
	<g display="inline">
		<rect x="-62.851" y="35.482" fill="#FFFFFF" width="195.997" height="21.689"/>
		<rect x="-73.146" y="29.758" fill="#A05D30" width="211.597" height="29.971"/>
		<rect x="-61.248" y="39.436" fill="#FFFFFF" width="202.687" height="10.623"/>
		<rect x="-85.187" y="59.018" fill="#536D55" width="211.598" height="29.975"/>
		<rect x="-85.393" y="68.691" fill="#FFFFFF" width="203.184" height="10.623"/>
	</g>
	<rect x="-131.869" y="-21.464" display="inline" fill="none" width="328.058" height="54.155"/>
	
		<text transform="matrix(1 0 0 1 -69.0225 18.2969)" display="inline" fill="#3D3027" font-family="'NightWindSentSample'" font-size="68" letter-spacing="1">novelty</text>
</g>
<g id="Layer_4">
	<g>
		<polygon fill="none" stroke="#CFA77D" stroke-width="1.7674" stroke-miterlimit="10" points="36.328,35.777 5.18,35.777 
			2.283,14.047 39.227,14.047 		"/>
		<line fill="none" stroke="#CFA77D" stroke-width="1.811" stroke-miterlimit="10" x1="3.369" y1="26" x2="37.053" y2="26"/>
		
			<line fill="none" stroke="#CFA77D" stroke-width="1.0471" stroke-miterlimit="10" x1="10.432" y1="14.047" x2="12.605" y2="35.234"/>
		
			<line fill="none" stroke="#CFA77D" stroke-width="1.0489" stroke-miterlimit="10" x1="21.297" y1="13.504" x2="21.297" y2="35.777"/>
		
			<line fill="none" stroke="#CFA77D" stroke-width="1.0514" stroke-miterlimit="10" x1="31.631" y1="14.416" x2="29.457" y2="35.777"/>
		<circle fill="none" stroke="#CFA77D" stroke-width="1.811" stroke-miterlimit="10" cx="8.259" cy="44.109" r="2.716"/>
		<circle fill="none" stroke="#CFA77D" stroke-width="1.811" stroke-miterlimit="10" cx="33.25" cy="44.289" r="2.717"/>
		<line fill="none" stroke="#CFA77D" stroke-width="1.811" stroke-miterlimit="10" x1="5" y1="40.305" x2="36.51" y2="40.305"/>
		<line fill="none" stroke="#CFA77D" stroke-width="1.811" stroke-miterlimit="10" x1="36.51" y1="41.029" x2="40.855" y2="8.433"/>
		<line fill="none" stroke="#CFA77D" stroke-width="2.5355" stroke-miterlimit="10" x1="40.855" y1="9.52" x2="48.461" y2="9.52"/>
	</g>
</g>
</svg>
