<?xml version="1.0" encoding="utf-8"?>
<!-- Generator: Adobe Illustrator 17.0.0, SVG Export Plug-In . SVG Version: 6.00 Build 0)  -->
<!DOCTYPE svg PUBLIC "-//W3C//DTD SVG 1.1//EN" "http://www.w3.org/Graphics/SVG/1.1/DTD/svg11.dtd">
<svg version="1.1" id="Layer_1" xmlns="http://www.w3.org/2000/svg" xmlns:xlink="http://www.w3.org/1999/xlink" x="0px" y="0px"
	 width="288px" height="288px" viewBox="0 0 288 288" enable-background="new 0 0 288 288" xml:space="preserve">
<g>
	<path fill="#CFA779" d="M818.674-153.326c0,105.276,70.854,142.406,70.854,142.406l-4.525,26.136l-28.889,99.16
		c-1.398,4.799,3.498,9.016,8.038,6.922l21.08-9.73c3.862-1.782,8.27,1.038,8.27,5.291v6.766c0,4.682,5.242,7.453,9.11,4.815
		l12.286-8.376c3.868-2.638,9.11,0.133,9.11,4.815v3.945c0,3.219,2.609,5.827,5.827,5.827h28.301v-282.15
		c0-3.219-2.609-5.827-5.827-5.827H818.674z"/>
	<path fill="#CFA779" d="M675.989-153.326c-3.219,0-5.828,2.609-5.828,5.827v276.32c0,3.219,2.609,5.827,5.827,5.827h22.473
		c3.219,0,5.827-2.609,5.827-5.827v-3.945c0-4.682,5.242-7.453,9.11-4.815l12.286,8.376c3.868,2.638,9.11-0.133,9.11-4.815v-6.766
		c0-4.253,4.409-7.073,8.27-5.291l21.08,9.73c4.539,2.095,9.435-2.122,8.038-6.922l-28.889-99.16v-26.136
		c0,0,70.854-37.13,70.854-142.406L675.989-153.326L675.989-153.326z"/>
</g>
<g>
	<path fill="#536D55" d="M-286.289,72.409c-0.259,2.261-0.592,4.494-0.984,6.688c-1.316,7.36-3.337,14.3-5.651,20.55
		c-16.488-24.127-44.604-29.805-44.604-29.805c0-14.467-6.968-23.608-13.011-28.814c-4.627-3.982-8.702-5.664-8.702-5.664
		S-317.383,34.247-286.289,72.409z"/>
	<path fill="#536D55" d="M-285.656,59.218v2.287c0,1.297-0.026,2.586-0.08,3.869c-0.1,2.373-0.286,4.72-0.552,7.034
		c-31.095-38.161-72.952-37.044-72.952-37.044c0.559-1.669,0.931-3.337,1.144-4.986C-355.337,9.336-378.4-9.339-378.4-9.339
		c28.88,3.398,49.284,13.855,63.658,26.287C-298.595,30.923-290.052,47.404-285.656,59.218z"/>
</g>
<path fill="#1E3322" d="M-279.275,73.12l-7.732,6.303l-0.266-0.326l-2.886-3.544c-20.942-25.702-47.117-32.657-60.38-34.525
	c-4.627-3.983-8.702-5.664-8.702-5.664c0.559-1.669,0.931-3.337,1.144-4.986c7.327,0.113,43.294,2.393,72.361,34.997
	c1.117,1.25,2.221,2.54,3.311,3.882L-279.275,73.12z"/>
<path fill="#9F5D36" d="M-235.287-35.796c28.914,0,41.306,46.472,41.306,46.472l-0.173,0.425
	c-7.021-2.846-14.587-5.199-22.544-6.968h-0.007V4.126C-216.611-17.925-235.287-35.796-235.287-35.796z"/>
<path fill="#CEA67F" d="M-145.17,64.484c0,23.782-25.377,30.264-59.496,19.846c-0.007-0.007-0.007-0.007-0.014-0.007
	c1.217,4.109,2.4,8.576,3.464,13.27c1.337,5.884,2.473,12.14,3.218,18.556l-6.495-4.202l-39.219,25.39l-17.332-11.216v-0.007
	l-21.886-14.168l-25.324,16.395c3.523-4.155,10.159-14.706,15.338-28.688v-0.007c3.005-8.111,5.511-17.385,6.635-27.239
	c0.406-3.57,0.632-7.214,0.632-10.904v-2.287c-0.02-16.608-0.033-34.778,7.612-46.472c4.082-6.256,10.418-10.657,20.231-11.98
	c-3.969-17.432-17.485-30.363-17.485-30.363c17.445,0,28.874,16.927,35.196,30.343c1.709,0.12,3.41,0.266,5.093,0.439
	c6.283,0.632,12.399,1.629,18.303,2.952h0.007c7.958,1.768,15.524,4.122,22.544,6.968c11.449,4.62,21.454,10.524,29.386,17.286
	C-152.483,38.867-145.17,51.413-145.17,64.484z"/>
<g enable-background="new    ">
	<path fill="#9F5D36" d="M-237.944,5.65c0,0-34.438,40.834-23.103,120.462l-21.886-14.168l-25.324,16.395
		c3.523-4.155,10.159-14.706,15.338-28.688v-0.007c3.005-8.111,5.511-17.385,6.635-27.238c0.406-3.57,0.632-7.214,0.632-10.904
		v-2.287c-0.02-16.608-0.033-34.778,7.612-46.472c4.082-6.256,10.418-10.657,20.231-11.98
		c-3.969-17.432-17.485-30.363-17.485-30.363c17.445,0,28.874,16.927,35.196,30.343c1.709,0.12,3.41,0.266,5.093,0.439
		L-237.944,5.65z"/>
	<path fill="#9F5D36" d="M-201.216,97.592c-34.286-9.959-50.075-35.436-50.075-35.436c16.262,10.378,32.218,17.778,46.605,22.159
		c0,0,0,0,0.007,0.007C-203.464,88.431-202.28,92.899-201.216,97.592z"/>
</g>
<g>
	<path fill="#4D4D4D" d="M-209.828,33.27c-0.765,0-1.532-0.292-2.116-0.876c-1.695-1.695-3.949-2.629-6.347-2.629
		c-2.397,0-4.651,0.933-6.347,2.63c-1.168,1.168-3.063,1.168-4.231,0c-1.169-1.168-1.169-3.062,0-4.231
		c2.825-2.825,6.582-4.381,10.578-4.381c3.995,0,7.752,1.556,10.577,4.382c1.169,1.168,1.169,3.062,0,4.231
		C-208.296,32.978-209.063,33.27-209.828,33.27z"/>
	<path fill="#4D4D4D" d="M-168.97,33.27c-0.765,0-1.532-0.292-2.116-0.876c-1.695-1.695-3.949-2.629-6.347-2.629
		s-4.652,0.933-6.347,2.629c-1.167,1.169-3.062,1.168-4.231,0s-1.169-3.062,0-4.231c2.825-2.825,6.581-4.382,10.577-4.382
		c3.995,0,7.752,1.556,10.577,4.382c1.169,1.168,1.169,3.062,0,4.231C-167.438,32.978-168.204,33.27-168.97,33.27z"/>
</g>
<g enable-background="new    ">
	<path fill="#9F5D36" d="M-169.936,67.688c-1.81,0-3.323-1.519-3.324-3.324c-0.002-1.831,1.549-3.368,3.385-3.323
		c1.745,0.043,3.198,1.463,3.259,3.213C-166.552,66.095-168.093,67.688-169.936,67.688z"/>
	<path fill="#9F5D36" d="M-151.986,63.699c-1.848,0-3.38-1.582-3.321-3.425c0.056-1.765,1.54-3.234,3.318-3.228
		c1.732,0.005,3.216,1.396,3.321,3.128C-148.554,62.046-150.107,63.699-151.986,63.699z"/>
</g>
<path fill="#EEE4D1" d="M-142.493,150.996c0,50.441-36.912,92.273-85.199,99.951c-5.212,0.825-10.564,1.257-16.016,1.257
	c-55.9,0-101.215-45.315-101.215-101.208c0-8.656,1.084-17.911,3.131-27.378l19.646,12.718l13.889-8.995l25.324-16.395l12.751,8.258
	l26.467,17.133l39.219-25.39l6.495,4.202v0.007l32.723,21.182l19.653-12.718C-143.577,133.086-142.493,142.34-142.493,150.996z"/>
<path fill="#CCC8C4" d="M-227.693,250.947c-5.212,0.825-10.564,1.257-16.016,1.257c-55.9,0-101.215-45.315-101.215-101.208
	c0-8.656,1.084-17.911,3.131-27.378l19.646,12.718l13.889-8.995l25.324-16.395l12.752,8.258c0,0-35.908,91.195,42.483,131.737
	C-227.698,250.941-227.693,250.941-227.693,250.947z"/>
<path fill="#A25C30" d="M743.295,15.215v-26.136c0,0,70.854-37.13,70.854-142.406h-78.391c0.308,11.579-0.531,83.887-65.597,141.811
	v140.338c0,3.219,2.609,5.827,5.827,5.827h22.473c3.219,0,5.827-2.609,5.827-5.827v-3.946c0-4.682,5.242-7.453,9.11-4.815
	l12.286,8.376c3.868,2.638,9.11-0.133,9.11-4.815v-6.766c0-4.253,4.409-7.073,8.27-5.291l21.08,9.73
	c4.539,2.095,9.435-2.122,8.038-6.922L743.295,15.215z"/>
<path fill="#A25C30" d="M885.027,15.215l4.501-26.136c0,0-70.854-37.13-70.854-142.406h73.891
	c-0.309,11.578,0.53,83.886,65.596,141.811v140.338c0,3.219-2.609,5.827-5.827,5.827h-22.473c-3.219,0-5.827-2.609-5.827-5.827
	v-3.945c0-4.682-5.242-7.453-9.11-4.815l-12.286,8.376c-3.868,2.638-9.11-0.133-9.11-4.815v-6.766c0-4.253-4.409-7.073-8.27-5.291
	l-21.08,9.73c-4.539,2.095-9.435-2.122-8.038-6.922L885.027,15.215z"/>
<g>
	<path fill="#6C2210" d="M930.21,62.695c-2.414,0-4.371-1.957-4.371-4.371V17.1c0-2.414,1.956-4.371,4.371-4.371
		c2.414,0,4.371,1.957,4.371,4.371v41.224C934.581,60.738,932.624,62.695,930.21,62.695z"/>
</g>
<g>
	<path fill="#6C2210" d="M908.42,62.695c-2.414,0-4.371-1.957-4.371-4.371V17.1c0-2.414,1.956-4.371,4.371-4.371
		c2.415,0,4.371,1.957,4.371,4.371v41.224C912.79,60.738,910.834,62.695,908.42,62.695z"/>
</g>
<g>
	<path fill="#6C2210" d="M720.851,62.695c-2.414,0-4.371-1.957-4.371-4.371V13.081c0-2.414,1.956-4.371,4.371-4.371
		s4.371,1.957,4.371,4.371v45.243C725.221,60.738,723.265,62.695,720.851,62.695z"/>
</g>
<g>
	<path fill="#6C2210" d="M699.06,62.695c-2.414,0-4.371-1.957-4.371-4.371V13.081c0-2.414,1.956-4.371,4.371-4.371
		c2.415,0,4.371,1.957,4.371,4.371v45.243C703.431,60.738,701.474,62.695,699.06,62.695z"/>
</g>
<g>
	<path fill="#6C2210" d="M718.853-10.921l-18.047,9.768h42.67v-9.768c0,0,70.854-37.13,70.854-142.406h-32.68
		C781.751-141.599,779.633-72.612,718.853-10.921z"/>
</g>
<g>
	<path fill="#6C2210" d="M914.151-10.921l18.047,9.768h-42.67v-9.768c0,0-70.854-37.13-70.854-142.406h32.681
		C851.253-141.599,853.372-72.612,914.151-10.921z"/>
</g>
<g>
	<path fill="#60453C" d="M750.535,15.215h-80.374v-26.136h80.374c3.219,0,5.827,2.609,5.827,5.827v14.48
		C756.363,12.606,753.754,15.215,750.535,15.215z"/>
	<path fill="#60453C" d="M877.763,15.215h80.374v-26.136h-80.374c-3.219,0-5.827,2.609-5.827,5.827v14.48
		C871.935,12.606,874.544,15.215,877.763,15.215z"/>
</g>
<path fill="#3C2C25" d="M949.201-10.921v17.2h-77.266v3.108c0,3.219,2.609,5.827,5.827,5.827h80.374v-26.136h-8.935V-10.921
	L949.201-10.921z"/>
<path fill="#3C2C25" d="M679.097-10.921v17.2h77.266v3.108c0,3.219-2.609,5.827-5.827,5.827h-80.375v-26.136h8.935L679.097-10.921
	L679.097-10.921z"/>
<circle fill="#CEA67F" cx="144" cy="144" r="144"/>
<path fill="#9F5D36" d="M283.444,180.079L243,78.75c0-2.475-2.025-4.5-4.5-4.5h-2.25v-1.042c-0.729-0.146-1.478-0.301-2.25-0.466
	v-0.688v-1.152V69.75C222.75,67.5,207.104,63,182.25,63s-36,4.5-38.25,6.75c-0.164-0.166-0.396-0.346-0.659-0.533
	c-0.07-0.049-0.153-0.101-0.234-0.153c-0.232-0.151-0.493-0.308-0.785-0.468c-0.088-0.047-0.169-0.094-0.266-0.144
	c-1.267-0.664-3.085-1.386-5.492-2.086c-0.014-0.002-0.022-0.005-0.031-0.007c-2.484-0.72-5.616-1.406-9.448-1.973
	C121.522,63.562,114.505,63,105.75,63c-24.853,0-40.5,4.5-51.75,6.75v1.152v1.152v2.196h-4.5c-2.475,0-4.5,2.025-4.5,4.5v1.152
	v1.152V204.75v1.152v1.152v2.196v1.152v1.098l22.003,54.158C89.28,279.788,115.67,288,144,288
	C211.075,288,267.428,242.147,283.444,180.079z"/>
<path fill="#536D55" d="M238.5,74.25h-189c-2.475,0-4.5,2.025-4.5,4.5v130.5c0,2.475,2.025,4.5,4.5,4.5h78.75
	c0,4.97,7.054,9,15.75,9s15.75-4.03,15.75-9h78.75c2.475,0,4.5-2.025,4.5-4.5V78.75C243,76.275,240.975,74.25,238.5,74.25z"/>
<rect x="148.5" y="74.25" fill="#597A5B" width="90" height="132.75"/>
<path fill="#1E3322" d="M238.5,209.25h-78.75c0,4.97-7.054,9-15.75,9s-15.75-4.03-15.75-9H49.5c-2.475,0-4.5-2.025-4.5-4.5v4.5
	c0,2.475,2.025,4.5,4.5,4.5h78.75c0,4.97,7.054,9,15.75,9s15.75-4.03,15.75-9h78.75c2.475,0,4.5-2.025,4.5-4.5v-4.5
	C243,207.225,240.975,209.25,238.5,209.25z"/>
<path fill="#EEE4D1" d="M105.75,63c-24.853,0-40.5,4.5-51.75,6.75v135h90v-135C141.75,67.5,130.604,63,105.75,63z"/>
<path fill="#CCC8C4" d="M144,204.75c0-6.212-13.396-11.25-38.25-11.25S58.5,200.25,54,204.75H144z"/>
<path fill="#EEE4D1" d="M182.25,63c24.854,0,40.5,4.5,51.75,6.75v135h-90v-135C146.25,67.5,157.396,63,182.25,63z"/>
<path fill="#CCC8C4" d="M144,204.75c0-6.212,13.396-11.25,38.25-11.25s47.25,6.75,51.75,11.25H144z"/>
<path fill="#F2E7CE" d="M144,191.25V69.75c-1.454-1.458-6.685-3.854-16.916-5.364L144,191.25z"/>
<rect x="56.25" y="204.75" fill="#597A5B" width="92.25" height="2.25"/>
<g>
	<path fill="#CCC8C4" d="M225,92.25c-24.001,0-47.999,0-72,0c0-6.3,0-9.45,0-15.75c26.285-4.066,45.715-4.068,72,0
		C225,82.8,225,85.95,225,92.25z"/>
	<rect x="164.25" y="103.5" fill="#CCC8C4" width="60.75" height="4.5"/>
	<rect x="153" y="112.5" fill="#CCC8C4" width="72" height="4.5"/>
	<rect x="153" y="121.5" fill="#CCC8C4" width="72" height="4.5"/>
	<rect x="153" y="130.5" fill="#CCC8C4" width="72" height="4.5"/>
	<rect x="153" y="139.5" fill="#CCC8C4" width="72" height="4.5"/>
	<rect x="153" y="148.5" fill="#CCC8C4" width="72" height="4.5"/>
	<rect x="153" y="157.5" fill="#CCC8C4" width="72" height="4.5"/>
	<rect x="153" y="166.5" fill="#CCC8C4" width="72" height="4.5"/>
	<rect x="153" y="175.5" fill="#CCC8C4" width="60.75" height="4.5"/>
	<rect x="76.5" y="78.75" fill="#CCC8C4" width="60.75" height="4.5"/>
	<rect x="65.25" y="87.75" fill="#CCC8C4" width="72" height="4.5"/>
	<rect x="65.25" y="96.75" fill="#CCC8C4" width="72" height="4.5"/>
	<rect x="65.25" y="105.75" fill="#CCC8C4" width="72" height="4.5"/>
	<rect x="65.25" y="114.75" fill="#CCC8C4" width="72" height="4.5"/>
	<rect x="65.25" y="123.75" fill="#CCC8C4" width="72" height="4.5"/>
	<rect x="65.25" y="132.75" fill="#CCC8C4" width="72" height="4.5"/>
	<rect x="65.25" y="141.75" fill="#CCC8C4" width="72" height="4.5"/>
	<rect x="65.25" y="150.75" fill="#CCC8C4" width="60.75" height="4.5"/>
</g>
</svg>
