<?xml version="1.0" encoding="utf-8"?>
<!-- Generator: Adobe Illustrator 17.0.0, SVG Export Plug-In . SVG Version: 6.00 Build 0)  -->
<!DOCTYPE svg PUBLIC "-//W3C//DTD SVG 1.1//EN" "http://www.w3.org/Graphics/SVG/1.1/DTD/svg11.dtd">
<svg version="1.1" id="Layer_1" xmlns="http://www.w3.org/2000/svg" xmlns:xlink="http://www.w3.org/1999/xlink" x="0px" y="0px"
	 width="288px" height="288px" viewBox="0 0 288 288" enable-background="new 0 0 288 288" xml:space="preserve">
<g>
	<path fill="#536D55" d="M-286.289,72.409c-0.259,2.261-0.592,4.494-0.984,6.688c-1.316,7.36-3.337,14.3-5.651,20.55
		c-16.488-24.127-44.604-29.805-44.604-29.805c0-14.467-6.968-23.608-13.011-28.814c-4.627-3.982-8.702-5.664-8.702-5.664
		S-317.383,34.247-286.289,72.409z"/>
	<path fill="#536D55" d="M-285.656,59.218v2.287c0,1.297-0.026,2.586-0.08,3.869c-0.1,2.373-0.286,4.72-0.552,7.034
		c-31.095-38.161-72.952-37.044-72.952-37.044c0.559-1.669,0.931-3.337,1.144-4.986C-355.337,9.336-378.4-9.339-378.4-9.339
		c28.88,3.398,49.284,13.855,63.658,26.287C-298.595,30.923-290.052,47.404-285.656,59.218z"/>
</g>
<path fill="#1E3322" d="M-279.275,73.12l-7.732,6.303l-0.266-0.326l-2.886-3.544c-20.942-25.702-47.117-32.657-60.38-34.525
	c-4.627-3.983-8.702-5.664-8.702-5.664c0.559-1.669,0.931-3.337,1.144-4.986c7.327,0.113,43.294,2.393,72.361,34.997
	c1.117,1.25,2.221,2.54,3.311,3.882L-279.275,73.12z"/>
<path fill="#9F5D36" d="M-235.287-35.796c28.914,0,41.306,46.472,41.306,46.472l-0.173,0.425
	c-7.021-2.846-14.587-5.199-22.544-6.968h-0.007V4.126C-216.611-17.925-235.287-35.796-235.287-35.796z"/>
<path fill="#CEA67F" d="M-145.17,64.484c0,23.782-25.377,30.264-59.496,19.846c-0.007-0.007-0.007-0.007-0.014-0.007
	c1.217,4.109,2.4,8.576,3.464,13.27c1.337,5.884,2.473,12.14,3.218,18.556l-6.495-4.202l-39.219,25.39l-17.332-11.216v-0.007
	l-21.886-14.168l-25.324,16.395c3.523-4.155,10.159-14.706,15.338-28.688v-0.007c3.005-8.111,5.511-17.385,6.635-27.239
	c0.406-3.57,0.632-7.214,0.632-10.904v-2.287c-0.02-16.608-0.033-34.778,7.612-46.472c4.082-6.256,10.418-10.657,20.231-11.98
	c-3.969-17.432-17.485-30.363-17.485-30.363c17.445,0,28.874,16.927,35.196,30.343c1.709,0.12,3.41,0.266,5.093,0.439
	c6.283,0.632,12.399,1.629,18.303,2.952h0.007c7.958,1.768,15.524,4.122,22.544,6.968c11.449,4.62,21.454,10.524,29.386,17.286
	C-152.483,38.867-145.17,51.413-145.17,64.484z"/>
<g enable-background="new    ">
	<path fill="#9F5D36" d="M-237.944,5.65c0,0-34.438,40.834-23.103,120.462l-21.886-14.168l-25.324,16.395
		c3.523-4.155,10.159-14.706,15.338-28.688v-0.007c3.005-8.111,5.511-17.385,6.635-27.238c0.406-3.57,0.632-7.214,0.632-10.904
		v-2.287c-0.02-16.608-0.033-34.778,7.612-46.472c4.082-6.256,10.418-10.657,20.231-11.98
		c-3.969-17.432-17.485-30.363-17.485-30.363c17.445,0,28.874,16.927,35.196,30.343c1.709,0.12,3.41,0.266,5.093,0.439
		L-237.944,5.65z"/>
	<path fill="#9F5D36" d="M-201.216,97.592c-34.286-9.959-50.075-35.436-50.075-35.436c16.262,10.378,32.218,17.778,46.605,22.159
		c0,0,0,0,0.007,0.007C-203.464,88.431-202.28,92.899-201.216,97.592z"/>
</g>
<g>
	<path fill="#4D4D4D" d="M-209.828,33.27c-0.765,0-1.532-0.292-2.116-0.876c-1.695-1.695-3.949-2.629-6.347-2.629
		c-2.397,0-4.651,0.933-6.347,2.63c-1.168,1.168-3.063,1.168-4.231,0c-1.169-1.168-1.169-3.062,0-4.231
		c2.825-2.825,6.582-4.381,10.578-4.381c3.995,0,7.752,1.556,10.577,4.382c1.169,1.168,1.169,3.062,0,4.231
		C-208.296,32.978-209.063,33.27-209.828,33.27z"/>
	<path fill="#4D4D4D" d="M-168.97,33.27c-0.765,0-1.532-0.292-2.116-0.876c-1.695-1.695-3.949-2.629-6.347-2.629
		s-4.652,0.933-6.347,2.629c-1.167,1.169-3.062,1.168-4.231,0s-1.169-3.062,0-4.231c2.825-2.825,6.581-4.382,10.577-4.382
		c3.995,0,7.752,1.556,10.577,4.382c1.169,1.168,1.169,3.062,0,4.231C-167.438,32.978-168.204,33.27-168.97,33.27z"/>
</g>
<g enable-background="new    ">
	<path fill="#9F5D36" d="M-169.936,67.688c-1.81,0-3.323-1.519-3.324-3.324c-0.002-1.831,1.549-3.368,3.385-3.323
		c1.745,0.043,3.198,1.463,3.259,3.213C-166.552,66.095-168.093,67.688-169.936,67.688z"/>
	<path fill="#9F5D36" d="M-151.986,63.699c-1.848,0-3.38-1.582-3.321-3.425c0.056-1.765,1.54-3.234,3.318-3.228
		c1.732,0.005,3.216,1.396,3.321,3.128C-148.554,62.046-150.107,63.699-151.986,63.699z"/>
</g>
<path fill="#EEE4D1" d="M-142.493,150.996c0,50.441-36.912,92.273-85.199,99.951c-5.212,0.825-10.564,1.257-16.016,1.257
	c-55.9,0-101.215-45.315-101.215-101.208c0-8.656,1.084-17.911,3.131-27.378l19.646,12.718l13.889-8.995l25.324-16.395l12.751,8.258
	l26.467,17.133l39.219-25.39l6.495,4.202v0.007l32.723,21.182l19.653-12.718C-143.577,133.086-142.493,142.34-142.493,150.996z"/>
<path fill="#CCC8C4" d="M-227.693,250.947c-5.212,0.825-10.564,1.257-16.016,1.257c-55.9,0-101.215-45.315-101.215-101.208
	c0-8.656,1.084-17.911,3.131-27.378l19.646,12.718l13.889-8.995l25.324-16.395l12.752,8.258c0,0-35.908,91.195,42.483,131.737
	C-227.698,250.941-227.693,250.941-227.693,250.947z"/>
<g id="pAoIAU_1_">
	
		<image overflow="visible" width="400" height="400" id="pAoIAU_3_" xlink:href="2583861FAD1EAFCC.jpg"  transform="matrix(1 0 0 1 362.2523 -67.4614)">
	</image>
</g>
<circle fill="#536D55" cx="144" cy="143.999" r="143.999"/>
<path fill="#2C3F2F" d="M182.018,282.916c49.941-13.637,89.06-53.474,101.669-103.832L174.059,69.456l-67.23,56.119l-9.485,10.757
	l38.431,38.431l-16.506,45.403L182.018,282.916z"/>
<polygon fill="#6C2211" points="102.3,126.297 102.3,182.168 143.92,179.442 143.92,123.572 "/>
<polygon fill="#6C2211" points="185.551,120.847 143.92,123.572 143.92,179.442 185.551,176.717 "/>
<path fill="#FED8B2" d="M156.32,171.464v-13.662h-24.639v13.662c0,1.09-0.883,1.974-1.974,1.974h-16.98v47.146h62.545v-47.146
	h-16.98C157.204,173.438,156.32,172.555,156.32,171.464z"/>
<path fill="#EABE96" d="M175.273,173.438h-16.98c-1.09,0-1.974-0.883-1.974-1.974v-13.662h-12.398v62.783h31.352V173.438z"/>
<circle fill="#FED8B2" cx="104.097" cy="129.183" r="9.847"/>
<circle fill="#EABE96" cx="183.903" cy="129.173" r="9.847"/>
<path fill="#F4E3C3" d="M145.109,170.182h-2.218c-20.523,0-37.161-16.637-37.161-37.16V99.092c0-20.523,16.638-37.161,37.161-37.161
	h2.218c20.523,0,37.161,16.637,37.161,37.16v33.929C182.271,153.544,165.633,170.182,145.109,170.182z"/>
<path fill="#FED8B2" d="M145.109,61.93h-1.189v108.252h1.189c20.523,0,37.161-16.638,37.161-37.161V99.091
	C182.271,78.567,165.633,61.93,145.109,61.93z"/>
<path fill="#822A1C" d="M178.241,74.488c-7.298-10.396-19.368-17.197-33.036-17.197h-2.41c-22.283,0-40.494,18.065-40.494,40.347
	v3.121v53.675h6.071v-41.922c-0.001,0-0.003,0-0.004,0c17.974-1.826,35.649-5.353,51.139-13.097
	c5.575,6.402,12.012,12.117,19.119,16.755v38.263h6.924v-46.502V97.638C185.551,89.021,182.841,81.042,178.241,74.488z"/>
<path fill="#6C2211" d="M178.241,74.488c-7.298-10.396-19.368-17.197-33.036-17.197h-1.284v48.372
	c5.38-1.704,10.598-3.755,15.587-6.25c5.575,6.402,12.012,12.117,19.119,16.755v38.263h6.924V107.93V97.637
	C185.551,89.021,182.841,81.042,178.241,74.488z"/>
<circle fill="#59595B" cx="125.954" cy="134.875" r="3.827"/>
<circle fill="#272525" cx="162.046" cy="134.875" r="3.827"/>
<path fill="#FD8469" d="M143.999,151.489c4.79,0,8.687,3.897,8.687,8.687c0,0.812-0.659,1.47-1.47,1.47
	c-0.813,0-1.47-0.659-1.47-1.47c0-3.169-2.578-5.746-5.746-5.746c-3.169,0-5.746,2.579-5.746,5.748c0,0.813-0.659,1.47-1.47,1.47
	c-0.811,0-1.47-0.659-1.47-1.47C135.312,155.386,139.209,151.489,143.999,151.489z"/>
<path fill="#FC6F58" d="M136.783,161.647c0.812,0,1.47-0.659,1.47-1.47c0-3.169,2.577-5.748,5.746-5.748
	c0.019,0,0.037,0.003,0.055,0.003v-2.941c-0.019,0-0.037-0.003-0.055-0.003c-4.79,0-8.687,3.897-8.687,8.687
	C135.312,160.989,135.97,161.647,136.783,161.647z"/>
<path fill="#564139" d="M177.957,173.438h-13.109c0,11.514-9.334,36.663-20.848,36.663s-20.848-25.149-20.848-36.663h-13.109
	c-15.789,0-28.587,12.8-28.587,28.588v71.715c18.915,9.136,40.131,14.258,62.545,14.258c21.535,0,41.961-4.735,60.306-13.209
	c0.749-0.401,1.499-0.797,2.239-1.212v-71.551C206.545,186.237,193.746,173.438,177.957,173.438z"/>
<path fill="#3C2D26" d="M206.545,273.741v-71.715c0-15.789-12.799-28.587-28.587-28.587h-13.109
	c0,11.514-9.334,36.663-20.848,36.663c-0.026,0-0.052-0.005-0.079-0.005v77.901c0.026,0,0.052,0.001,0.079,0.001
	C166.413,287.999,187.63,282.877,206.545,273.741z"/>
<g>
	<path fill="#A05D30" d="M145.614,287.979c27.901-0.307,53.9-8.539,75.842-22.566l26.556-26.556c13.13-13.13,13.13-34.418,0-47.549
		l-1.358-1.358c-13.13-13.13-34.418-13.13-47.549,0l-51.325,51.325C135.012,254.041,134.15,274.43,145.614,287.979z"/>
	<path fill="#A05D30" d="M246.652,189.948c-13.13-13.13-34.418-13.13-47.549,0l-51.325,51.325
		c-12.768,12.768-13.629,33.156-2.165,46.705c1.32-0.015,2.631-0.064,3.942-0.114l97.663-97.35L246.652,189.948z"/>
</g>
<path fill="#634337" d="M248.012,191.307l-0.792-0.792l-97.664,97.35c26.406-1.003,50.995-9.089,71.899-22.452l26.556-26.556
	C261.142,225.725,261.142,204.438,248.012,191.307z"/>
<path fill="#FED8B2" d="M204.558,243.659l5.688-5.688l-10.257-10.257l-5.688,5.688c-0.454,0.454-1.19,0.454-1.644,0l-7.069-7.069
	l-19.628,19.628L192,272l19.628-19.628l-7.069-7.069C204.105,244.849,204.105,244.113,204.558,243.659z"/>
<path fill="#EDBF96" d="M204.559,243.659l5.688-5.688l-5.31-5.31l-26.179,26.095L192,271.999l19.628-19.628l-7.069-7.068
	C204.105,244.849,204.105,244.113,204.559,243.659z"/>
<circle fill="#FED8B2" cx="199.98" cy="203.878" r="5.798"/>
<circle fill="#EABE96" cx="233.212" cy="237.1" r="5.798"/>
<path fill="#F4E3C3" d="M199.989,238.021l-0.924-0.924c-8.544-8.544-8.544-22.397,0-30.941l6.991-6.991
	c8.544-8.544,22.397-8.544,30.942,0l0.924,0.924c8.544,8.544,8.544,22.397,0,30.942l-6.991,6.991
	C222.386,246.566,208.533,246.566,199.989,238.021z"/>
<path fill="#FED8B2" d="M237.768,199.935l-37.993,37.872l0.214,0.214c8.544,8.544,22.397,8.544,30.942,0l6.991-6.991
	c8.544-8.545,8.544-22.398,0-30.942L237.768,199.935z"/>
<circle fill="#59595B" cx="208.058" cy="215.204" r="2.073"/>
<circle fill="#272525" cx="221.876" cy="229.032" r="2.073"/>
<circle fill="#D0A77B" cx="207.486" cy="230.477" r="8.005"/>
<g>
	<path fill="#A05D30" d="M212.966,224.658l-11.321,11.285c0.06,0.064,0.114,0.133,0.177,0.196c3.126,3.126,8.195,3.126,11.321,0
		c3.126-3.126,3.126-8.195,0-11.321C213.086,224.761,213.024,224.713,212.966,224.658z"/>
	<path fill="#A05D30" d="M203.633,240.906c-1.757,0-3.409-0.685-4.651-1.927c-1.242-1.242-1.927-2.894-1.927-4.651
		s0.685-3.409,1.927-4.652l0,0l0,0c1.242-1.242,2.893-1.927,4.651-1.927c1.757,0,3.409,0.685,4.651,1.927
		c1.242,1.242,1.927,2.895,1.927,4.652s-0.685,3.409-1.927,4.652C207.041,240.223,205.389,240.906,203.633,240.906z
		 M203.633,230.659c-0.98,0-1.901,0.382-2.594,1.074l0,0c-0.692,0.694-1.074,1.614-1.074,2.595s0.382,1.901,1.074,2.594
		c1.385,1.385,3.801,1.387,5.189,0c0.692-0.694,1.074-1.614,1.074-2.594c0-0.98-0.382-1.902-1.074-2.594
		C205.534,231.041,204.613,230.659,203.633,230.659z"/>
</g>
<path fill="#822A1C" d="M208.099,229.509l-2.069,2.063c0.064,0.056,0.136,0.101,0.197,0.162c0.692,0.692,1.074,1.614,1.074,2.594
	s-0.382,1.901-1.074,2.594c-1.387,1.387-3.802,1.385-5.189,0c-0.064-0.063-0.111-0.139-0.169-0.205l-2.069,2.063
	c0.061,0.066,0.118,0.137,0.181,0.201c1.242,1.243,2.894,1.927,4.651,1.927s3.409-0.683,4.651-1.926
	c1.242-1.242,1.927-2.895,1.927-4.652c0-1.757-0.685-3.409-1.927-4.652C208.225,229.618,208.161,229.566,208.099,229.509z"/>
<path fill="#EEE4D1" d="M147.78,241.273c-12.768,12.768-13.629,33.156-2.165,46.705c27.901-0.307,53.9-8.539,75.842-22.566
	l7.95-7.95l-65.846-31.969L147.78,241.273z"/>
<path fill="#CCC8C4" d="M149.556,287.865c26.406-1.003,50.995-9.089,71.899-22.452l7.95-7.95l-33.185-16.112L149.556,287.865z"/>
<polygon fill="#AFA9A3" points="163.56,225.494 193.126,239.848 181.935,207.118 "/>
<line fill="#6C2211" stroke="#661A0E" stroke-width="3" stroke-miterlimit="10" x1="154.174" y1="132.375" x2="162.264" y2="125.97"/>
<line fill="#6C2211" stroke="#661A0E" stroke-width="3" stroke-miterlimit="10" x1="133.264" y1="132.375" x2="125.174" y2="125.97"/>
</svg>
