<?xml version="1.0" encoding="utf-8"?>
<!-- Generator: Adobe Illustrator 17.0.0, SVG Export Plug-In . SVG Version: 6.00 Build 0)  -->
<!DOCTYPE svg PUBLIC "-//W3C//DTD SVG 1.1//EN" "http://www.w3.org/Graphics/SVG/1.1/DTD/svg11.dtd">
<svg version="1.1" id="Layer_1" xmlns="http://www.w3.org/2000/svg" xmlns:xlink="http://www.w3.org/1999/xlink" x="0px" y="0px"
	 width="288px" height="288px" viewBox="0 0 288 288" enable-background="new 0 0 288 288" xml:space="preserve">
<g>
	<path fill="#536D55" d="M-286.289,72.409c-0.259,2.261-0.592,4.494-0.984,6.688c-1.316,7.36-3.337,14.3-5.651,20.55
		c-16.488-24.127-44.604-29.805-44.604-29.805c0-14.467-6.968-23.608-13.011-28.814c-4.627-3.982-8.702-5.664-8.702-5.664
		S-317.383,34.247-286.289,72.409z"/>
	<path fill="#536D55" d="M-285.656,59.218v2.287c0,1.297-0.026,2.586-0.08,3.869c-0.1,2.373-0.286,4.72-0.552,7.034
		c-31.095-38.161-72.952-37.044-72.952-37.044c0.559-1.669,0.931-3.337,1.144-4.986C-355.337,9.336-378.4-9.339-378.4-9.339
		c28.88,3.398,49.284,13.855,63.658,26.287C-298.595,30.923-290.052,47.404-285.656,59.218z"/>
</g>
<path fill="#1E3322" d="M-279.275,73.12l-7.732,6.303l-0.266-0.326l-2.886-3.544c-20.942-25.702-47.117-32.657-60.38-34.525
	c-4.627-3.983-8.702-5.664-8.702-5.664c0.559-1.669,0.931-3.337,1.144-4.986c7.327,0.113,43.294,2.393,72.361,34.997
	c1.117,1.25,2.221,2.54,3.311,3.882L-279.275,73.12z"/>
<path fill="#9F5D36" d="M-235.287-35.796c28.914,0,41.306,46.472,41.306,46.472l-0.173,0.425
	c-7.021-2.846-14.587-5.199-22.544-6.968h-0.007V4.126C-216.611-17.925-235.287-35.796-235.287-35.796z"/>
<path fill="#CEA67F" d="M-145.17,64.484c0,23.782-25.377,30.264-59.496,19.846c-0.007-0.007-0.007-0.007-0.014-0.007
	c1.217,4.109,2.4,8.576,3.464,13.27c1.337,5.884,2.473,12.14,3.218,18.556l-6.495-4.202l-39.219,25.39l-17.332-11.216v-0.007
	l-21.886-14.168l-25.324,16.395c3.523-4.155,10.159-14.706,15.338-28.688v-0.007c3.005-8.111,5.511-17.385,6.635-27.239
	c0.406-3.57,0.632-7.214,0.632-10.904v-2.287c-0.02-16.608-0.033-34.778,7.612-46.472c4.082-6.256,10.418-10.657,20.231-11.98
	c-3.969-17.432-17.485-30.363-17.485-30.363c17.445,0,28.874,16.927,35.196,30.343c1.709,0.12,3.41,0.266,5.093,0.439
	c6.283,0.632,12.399,1.629,18.303,2.952h0.007c7.958,1.768,15.524,4.122,22.544,6.968c11.449,4.62,21.454,10.524,29.386,17.286
	C-152.483,38.867-145.17,51.413-145.17,64.484z"/>
<g enable-background="new    ">
	<path fill="#9F5D36" d="M-237.944,5.65c0,0-34.438,40.834-23.103,120.462l-21.886-14.168l-25.324,16.395
		c3.523-4.155,10.159-14.706,15.338-28.688v-0.007c3.005-8.111,5.511-17.385,6.635-27.238c0.406-3.57,0.632-7.214,0.632-10.904
		v-2.287c-0.02-16.608-0.033-34.778,7.612-46.472c4.082-6.256,10.418-10.657,20.231-11.98
		c-3.969-17.432-17.485-30.363-17.485-30.363c17.445,0,28.874,16.927,35.196,30.343c1.709,0.12,3.41,0.266,5.093,0.439
		L-237.944,5.65z"/>
	<path fill="#9F5D36" d="M-201.216,97.592c-34.286-9.959-50.075-35.436-50.075-35.436c16.262,10.378,32.218,17.778,46.605,22.159
		c0,0,0,0,0.007,0.007C-203.464,88.431-202.28,92.899-201.216,97.592z"/>
</g>
<g>
	<path fill="#4D4D4D" d="M-209.828,33.27c-0.765,0-1.532-0.292-2.116-0.876c-1.695-1.695-3.949-2.629-6.347-2.629
		c-2.397,0-4.651,0.933-6.347,2.63c-1.168,1.168-3.063,1.168-4.231,0c-1.169-1.168-1.169-3.062,0-4.231
		c2.825-2.825,6.582-4.381,10.578-4.381c3.995,0,7.752,1.556,10.577,4.382c1.169,1.168,1.169,3.062,0,4.231
		C-208.296,32.978-209.063,33.27-209.828,33.27z"/>
	<path fill="#4D4D4D" d="M-168.97,33.27c-0.765,0-1.532-0.292-2.116-0.876c-1.695-1.695-3.949-2.629-6.347-2.629
		s-4.652,0.933-6.347,2.629c-1.167,1.169-3.062,1.168-4.231,0s-1.169-3.062,0-4.231c2.825-2.825,6.581-4.382,10.577-4.382
		c3.995,0,7.752,1.556,10.577,4.382c1.169,1.168,1.169,3.062,0,4.231C-167.438,32.978-168.204,33.27-168.97,33.27z"/>
</g>
<g enable-background="new    ">
	<path fill="#9F5D36" d="M-169.936,67.688c-1.81,0-3.323-1.519-3.324-3.324c-0.002-1.831,1.549-3.368,3.385-3.323
		c1.745,0.043,3.198,1.463,3.259,3.213C-166.552,66.095-168.093,67.688-169.936,67.688z"/>
	<path fill="#9F5D36" d="M-151.986,63.699c-1.848,0-3.38-1.582-3.321-3.425c0.056-1.765,1.54-3.234,3.318-3.228
		c1.732,0.005,3.216,1.396,3.321,3.128C-148.554,62.046-150.107,63.699-151.986,63.699z"/>
</g>
<path fill="#EEE4D1" d="M-142.493,150.996c0,50.441-36.912,92.273-85.199,99.951c-5.212,0.825-10.564,1.257-16.016,1.257
	c-55.9,0-101.215-45.315-101.215-101.208c0-8.656,1.084-17.911,3.131-27.378l19.646,12.718l13.889-8.995l25.324-16.395l12.751,8.258
	l26.467,17.133l39.219-25.39l6.495,4.202v0.007l32.723,21.182l19.653-12.718C-143.577,133.086-142.493,142.34-142.493,150.996z"/>
<path fill="#CCC8C4" d="M-227.693,250.947c-5.212,0.825-10.564,1.257-16.016,1.257c-55.9,0-101.215-45.315-101.215-101.208
	c0-8.656,1.084-17.911,3.131-27.378l19.646,12.718l13.889-8.995l25.324-16.395l12.752,8.258c0,0-35.908,91.195,42.483,131.737
	C-227.698,250.941-227.693,250.941-227.693,250.947z"/>
<g id="pAoIAU_1_">
	
		<image overflow="visible" width="400" height="400" id="pAoIAU_3_" xlink:href="D7C5DE21EE1A6FCD.jpg"  transform="matrix(1 0 0 1 362.2523 -67.4614)">
	</image>
</g>
<path fill="#536D55" d="M240.999,140.546V242.37c0,2.448-1.47,4.659-3.728,5.605l-6.494,2.729
	c-22.04,9.254-45.645,13.309-69.06,12.157c-15.499-0.756-30.913-3.802-45.73-9.127c-2.617-0.936-5.219-1.946-7.795-3.03
	l-6.494-2.729c-2.258-0.947-3.728-3.157-3.728-5.605V140.546H240.999z"/>
<path fill="#1E3322" d="M167.047,257.53l-5.33,5.33c-15.499-0.756-30.913-3.802-45.73-9.127l-18.016-18.016v-54.73l69.076,69.081
	C169.109,252.126,169.109,255.468,167.047,257.53z"/>
<path fill="#1E3322" d="M240.999,188.381v27.201c-19.068,3.326-44.096,8.513-71.513,8.513c-10.518,0-20.686-0.762-30.3-1.893
	c-15.446-1.814-29.464-4.569-41.214-6.621V188.38c2.866,0.497,5.87,1.042,8.995,1.602c17.656,3.167,39.225,6.911,62.519,6.911
	C196.903,196.894,221.93,191.707,240.999,188.381z"/>
<path fill="#142317" d="M139.185,222.202c-15.446-1.814-29.464-4.569-41.214-6.621v-27.201c2.866,0.497,5.87,1.042,8.995,1.602
	L139.185,222.202z"/>
<path fill="#1E3322" d="M240.998,140.546v16.033c-19.068,3.326-44.096,5.341-71.513,5.341s-52.445-2.015-71.513-5.341v-16.033
	H240.998z"/>
<ellipse fill="#536D55" cx="169.487" cy="128.52" rx="118.513" ry="21.414"/>
<path fill="#1E3322" d="M288,128.522c0,1.491-0.845,2.945-2.449,4.352c-11.123-9.74-58.867-17.064-116.066-17.064
	s-104.942,7.324-116.066,17.064c-1.604-1.407-2.449-2.861-2.449-4.352c0-11.829,53.065-21.416,118.515-21.416
	S288,116.693,288,128.522z"/>
<g>
	<path fill="#EEE4D1" d="M195.109,49.67c-6.376,15.082-7.92,27.915-3.448,28.663c4.472,0.749,13.266-10.87,19.642-25.952
		c6.376-15.082,7.92-27.915,3.448-28.663C210.279,22.97,201.485,34.589,195.109,49.67z"/>
	<path fill="#EEE4D1" d="M143.86,49.67c6.376,15.082,7.92,27.915,3.448,28.663c-4.472,0.749-13.266-10.87-19.642-25.952
		c-6.376-15.081-7.92-27.915-3.448-28.663C128.69,22.97,137.485,34.589,143.86,49.67z"/>
	<path fill="#EEE4D1" d="M205.977,100.057c0,4.584-0.846,8.974-2.401,13.019c-2.104,5.52-5.515,10.396-9.857,14.251H145.25
		c-4.341-3.855-7.752-8.731-9.857-14.251c-1.555-4.046-2.401-8.434-2.401-13.019c0-20.157,16.339-36.492,36.492-36.492
		C189.637,63.565,205.977,79.899,205.977,100.057z"/>
</g>
<path fill="#CCC8C4" d="M136.516,115.693c2.111,4.447,5.093,8.4,8.734,11.634h48.469c3.641-3.233,6.624-7.186,8.734-11.634H136.516z
	"/>
<g>
	<path fill="#3C2D26" d="M234.366,131.608H104.604c-2.365,0-4.282-1.917-4.282-4.281c0-2.365,1.916-4.281,4.282-4.281h129.762
		c2.365,0,4.282,1.917,4.282,4.281S236.73,131.608,234.366,131.608z"/>
	<path fill="#3C2D26" d="M152.595,257.028l-5.95,5.95c-1.784,1.784-4.675,1.784-6.459,0L48.339,171.13
		c-1.637-1.637-1.637-4.291,0-5.927l6.481-6.481c1.637-1.637,4.291-1.637,5.927,0l91.848,91.847
		C154.379,252.353,154.379,255.245,152.595,257.028z"/>
</g>
<g>
	<path fill="#EEE4D1" d="M61.294,159.269l-12.408,12.408l-15.672-15.672c-3.426-3.426-3.426-8.981,0-12.408l0,0
		c3.426-3.426,8.981-3.426,12.408,0L61.294,159.269z"/>
	<path fill="#EEE4D1" d="M18.326,130.562c-1.095,0-2.191-0.418-3.027-1.254l-6.644-6.643c-1.672-1.672-1.672-4.382-0.001-6.055
		c1.672-1.672,4.384-1.672,6.055,0l6.644,6.643c1.672,1.672,1.672,4.382,0.001,6.055C20.517,130.144,19.421,130.562,18.326,130.562z
		"/>
	<path fill="#EEE4D1" d="M14.015,143.377c-0.051,0-0.102-0.001-0.155-0.003L4.13,143.03c-2.363-0.084-4.211-2.067-4.127-4.43
		c0.084-2.363,2.06-4.217,4.43-4.127l9.731,0.345c2.363,0.084,4.211,2.067,4.127,4.43C18.209,141.559,16.309,143.377,14.015,143.377
		z"/>
	<path fill="#EEE4D1" d="M31.138,126.25c-2.294,0-4.194-1.818-4.276-4.13l-0.345-9.731c-0.084-2.363,1.764-4.346,4.127-4.43
		c2.349-0.095,4.346,1.764,4.43,4.127l0.345,9.731c0.084,2.363-1.764,4.346-4.127,4.43C31.241,126.249,31.189,126.25,31.138,126.25z
		"/>
</g>
<g>
	<path fill="#EEE4D1" d="M117.928,135.815L117.928,135.815c-5.168,0-9.358-4.189-9.358-9.358v-1.668
		c0-1.558,1.263-2.822,2.822-2.822h13.073c1.558,0,2.822,1.263,2.822,2.822v1.668C127.286,131.625,123.096,135.815,117.928,135.815z
		"/>
	<path fill="#EEE4D1" d="M221.042,135.815L221.042,135.815c-5.168,0-9.358-4.189-9.358-9.358v-1.668
		c0-1.558,1.263-2.822,2.822-2.822h13.073c1.558,0,2.821,1.263,2.821,2.822v1.668C230.4,131.625,226.21,135.815,221.042,135.815z"/>
</g>
</svg>
