<?xml version="1.0" encoding="utf-8"?>
<!-- Generator: Adobe Illustrator 17.0.0, SVG Export Plug-In . SVG Version: 6.00 Build 0)  -->
<!DOCTYPE svg PUBLIC "-//W3C//DTD SVG 1.1//EN" "http://www.w3.org/Graphics/SVG/1.1/DTD/svg11.dtd">
<svg version="1.1" id="Layer_1" xmlns="http://www.w3.org/2000/svg" xmlns:xlink="http://www.w3.org/1999/xlink" x="0px" y="0px"
	 width="288px" height="288px" viewBox="0 0 288 288" enable-background="new 0 0 288 288" xml:space="preserve">
<g>
	<path fill="#536D55" d="M-286.289,72.409c-0.259,2.261-0.592,4.494-0.984,6.688c-1.316,7.36-3.337,14.3-5.651,20.55
		c-16.488-24.127-44.604-29.805-44.604-29.805c0-14.467-6.968-23.608-13.011-28.814c-4.627-3.982-8.702-5.664-8.702-5.664
		S-317.383,34.247-286.289,72.409z"/>
	<path fill="#536D55" d="M-285.656,59.218v2.287c0,1.297-0.026,2.586-0.08,3.869c-0.1,2.373-0.286,4.72-0.552,7.034
		c-31.095-38.161-72.952-37.044-72.952-37.044c0.559-1.669,0.931-3.337,1.144-4.986C-355.337,9.336-378.4-9.339-378.4-9.339
		c28.88,3.398,49.284,13.855,63.658,26.287C-298.595,30.923-290.052,47.404-285.656,59.218z"/>
</g>
<path fill="#1E3322" d="M-279.275,73.12l-7.732,6.303l-0.266-0.326l-2.886-3.544c-20.942-25.702-47.117-32.657-60.38-34.525
	c-4.627-3.983-8.702-5.664-8.702-5.664c0.559-1.669,0.931-3.337,1.144-4.986c7.327,0.113,43.294,2.393,72.361,34.997
	c1.117,1.25,2.221,2.54,3.311,3.882L-279.275,73.12z"/>
<path fill="#9F5D36" d="M-235.287-35.796c28.914,0,41.306,46.472,41.306,46.472l-0.173,0.425
	c-7.021-2.846-14.587-5.199-22.544-6.968h-0.007V4.126C-216.611-17.925-235.287-35.796-235.287-35.796z"/>
<path fill="#CEA67F" d="M-145.17,64.484c0,23.782-25.377,30.264-59.496,19.846c-0.007-0.007-0.007-0.007-0.014-0.007
	c1.217,4.109,2.4,8.576,3.464,13.27c1.337,5.884,2.473,12.14,3.218,18.556l-6.495-4.202l-39.219,25.39l-17.332-11.216v-0.007
	l-21.886-14.168l-25.324,16.395c3.523-4.155,10.159-14.706,15.338-28.688v-0.007c3.005-8.111,5.511-17.385,6.635-27.239
	c0.406-3.57,0.632-7.214,0.632-10.904v-2.287c-0.02-16.608-0.033-34.778,7.612-46.472c4.082-6.256,10.418-10.657,20.231-11.98
	c-3.969-17.432-17.485-30.363-17.485-30.363c17.445,0,28.874,16.927,35.196,30.343c1.709,0.12,3.41,0.266,5.093,0.439
	c6.283,0.632,12.399,1.629,18.303,2.952h0.007c7.958,1.768,15.524,4.122,22.544,6.968c11.449,4.62,21.454,10.524,29.386,17.286
	C-152.483,38.867-145.17,51.413-145.17,64.484z"/>
<g enable-background="new    ">
	<path fill="#9F5D36" d="M-237.944,5.65c0,0-34.438,40.834-23.103,120.462l-21.886-14.168l-25.324,16.395
		c3.523-4.155,10.159-14.706,15.338-28.688v-0.007c3.005-8.111,5.511-17.385,6.635-27.238c0.406-3.57,0.632-7.214,0.632-10.904
		v-2.287c-0.02-16.608-0.033-34.778,7.612-46.472c4.082-6.256,10.418-10.657,20.231-11.98
		c-3.969-17.432-17.485-30.363-17.485-30.363c17.445,0,28.874,16.927,35.196,30.343c1.709,0.12,3.41,0.266,5.093,0.439
		L-237.944,5.65z"/>
	<path fill="#9F5D36" d="M-201.216,97.592c-34.286-9.959-50.075-35.436-50.075-35.436c16.262,10.378,32.218,17.778,46.605,22.159
		c0,0,0,0,0.007,0.007C-203.464,88.431-202.28,92.899-201.216,97.592z"/>
</g>
<g>
	<path fill="#4D4D4D" d="M-209.828,33.27c-0.765,0-1.532-0.292-2.116-0.876c-1.695-1.695-3.949-2.629-6.347-2.629
		c-2.397,0-4.651,0.933-6.347,2.63c-1.168,1.168-3.063,1.168-4.231,0c-1.169-1.168-1.169-3.062,0-4.231
		c2.825-2.825,6.582-4.381,10.578-4.381c3.995,0,7.752,1.556,10.577,4.382c1.169,1.168,1.169,3.062,0,4.231
		C-208.296,32.978-209.063,33.27-209.828,33.27z"/>
	<path fill="#4D4D4D" d="M-168.97,33.27c-0.765,0-1.532-0.292-2.116-0.876c-1.695-1.695-3.949-2.629-6.347-2.629
		s-4.652,0.933-6.347,2.629c-1.167,1.169-3.062,1.168-4.231,0s-1.169-3.062,0-4.231c2.825-2.825,6.581-4.382,10.577-4.382
		c3.995,0,7.752,1.556,10.577,4.382c1.169,1.168,1.169,3.062,0,4.231C-167.438,32.978-168.204,33.27-168.97,33.27z"/>
</g>
<g enable-background="new    ">
	<path fill="#9F5D36" d="M-169.936,67.688c-1.81,0-3.323-1.519-3.324-3.324c-0.002-1.831,1.549-3.368,3.385-3.323
		c1.745,0.043,3.198,1.463,3.259,3.213C-166.552,66.095-168.093,67.688-169.936,67.688z"/>
	<path fill="#9F5D36" d="M-151.986,63.699c-1.848,0-3.38-1.582-3.321-3.425c0.056-1.765,1.54-3.234,3.318-3.228
		c1.732,0.005,3.216,1.396,3.321,3.128C-148.554,62.046-150.107,63.699-151.986,63.699z"/>
</g>
<path fill="#EEE4D1" d="M-142.493,150.996c0,50.441-36.912,92.273-85.199,99.951c-5.212,0.825-10.564,1.257-16.016,1.257
	c-55.9,0-101.215-45.315-101.215-101.208c0-8.656,1.084-17.911,3.131-27.378l19.646,12.718l13.889-8.995l25.324-16.395l12.751,8.258
	l26.467,17.133l39.219-25.39l6.495,4.202v0.007l32.723,21.182l19.653-12.718C-143.577,133.086-142.493,142.34-142.493,150.996z"/>
<path fill="#CCC8C4" d="M-227.693,250.947c-5.212,0.825-10.564,1.257-16.016,1.257c-55.9,0-101.215-45.315-101.215-101.208
	c0-8.656,1.084-17.911,3.131-27.378l19.646,12.718l13.889-8.995l25.324-16.395l12.752,8.258c0,0-35.908,91.195,42.483,131.737
	C-227.698,250.941-227.693,250.941-227.693,250.947z"/>
<g id="pAoIAU_1_">
	
		<image overflow="visible" width="400" height="400" id="pAoIAU_3_" xlink:href="15770AACCC048043.jpg"  transform="matrix(1 0 0 1 362.2523 -67.4614)">
	</image>
</g>
<path fill="#6C2211" d="M245.028,167.111h-24.076l-25.355-25.355l2.106-6.317c4.537-13.61,1.054-28.366-9.091-38.511l-8.877-8.876
	c-5.883-5.883-13.704-9.123-22.025-9.123c-3.881,0-7.531-1.511-10.276-4.256l-5.542-5.542c-2.745-2.745-4.256-6.394-4.256-10.276
	c0-8.32-3.24-16.142-9.123-22.025l-12.232-12.231c-2.026-2.026-4.952-2.865-7.742-2.22l-30.747,7.096
	c-1.517,0.35-2.905,1.119-4.006,2.22L6.395,99.084c-3.785,3.785-5.869,8.817-5.869,14.169c0,5.352,2.084,10.385,5.869,14.168
	l135.981,135.981c0.611,0.612,1.31,1.118,2.065,1.506c1.142,0.592,2.441,0.926,3.817,0.926h131.96c4.588,0,8.308-3.72,8.308-8.308
	v-46.919C288.526,186.624,269.013,167.111,245.028,167.111z"/>
<path fill="#A05D30" d="M144.526,71.764l-2.634-2.634c-2.745-2.745-4.256-6.394-4.256-10.276c0-8.32-3.24-16.142-9.123-22.025
	l-12.231-12.232c-2.026-2.026-4.952-2.865-7.742-2.22l-30.747,7.096c-1.517,0.35-2.905,1.119-4.006,2.22L6.395,99.084
	c-3.785,3.785-5.869,8.817-5.869,14.169c0,5.352,2.084,10.385,5.869,14.168l135.981,135.981c0.611,0.612,1.31,1.118,2.065,1.506
	c0.028,0.015,0.057,0.024,0.086,0.038L144.526,71.764L144.526,71.764z"/>
<g>
	<path fill="#EFE4D0" d="M159.984,160.269c-3.56,0-6.852-2.306-7.944-5.887c-1.338-4.389,1.135-9.031,5.524-10.37l48.71-14.851
		c4.39-1.338,9.031,1.135,10.37,5.524c1.338,4.389-1.135,9.031-5.524,10.37l-48.71,14.851
		C161.603,160.152,160.786,160.269,159.984,160.269z"/>
	<path fill="#EFE4D0" d="M179.979,180.263c-3.559,0-6.852-2.306-7.944-5.887c-1.338-4.389,1.135-9.031,5.524-10.37l42.438-12.939
		c4.391-1.338,9.032,1.135,10.37,5.524c1.338,4.389-1.135,9.031-5.524,10.37l-42.439,12.939
		C181.597,180.146,180.781,180.263,179.979,180.263z"/>
	<path fill="#EFE4D0" d="M148.257,265.835H55.91c-4.588,0-8.308-3.72-8.308-8.308c0-4.588,3.72-8.308,8.308-8.308h92.347
		c4.588,0,8.308,3.72,8.308,8.308S152.845,265.835,148.257,265.835z"/>
	<path fill="#EFE4D0" d="M115.019,232.605H78.065c-4.588,0-8.308-3.72-8.308-8.308s3.72-8.308,8.308-8.308h36.955
		c4.588,0,8.308,3.72,8.308,8.308S119.607,232.605,115.019,232.605z"/>
</g>
<path fill="#CCC8C4" d="M280.218,219.895H167.951L32.642,84.586c-1.558-1.558-3.671-2.433-5.874-2.433s-4.316,0.876-5.874,2.433
	L6.395,99.085c-7.813,7.813-7.813,20.524,0,28.337l135.981,135.981c0.911,0.911,2.01,1.588,3.207,1.994
	c0.51,0.173,1.042,0.299,1.591,0.37c0.348,0.046,0.701,0.069,1.056,0.07c0.01,0,0.018,0,0.028,0h131.961
	c4.588,0,8.308-3.72,8.308-8.308v-29.324C288.526,223.615,284.806,219.895,280.218,219.895z"/>
<path fill="#DDD9D4" d="M144.526,196.47L32.642,84.586c-1.558-1.558-3.671-2.433-5.874-2.433s-4.316,0.876-5.874,2.433L6.395,99.085
	c-7.813,7.813-7.813,20.525,0,28.337l135.981,135.981c0.634,0.634,1.363,1.146,2.15,1.541V196.47z"/>
</svg>
