<?xml version="1.0" encoding="utf-8"?>
<!-- Generator: Adobe Illustrator 17.0.0, SVG Export Plug-In . SVG Version: 6.00 Build 0)  -->
<!DOCTYPE svg PUBLIC "-//W3C//DTD SVG 1.1//EN" "http://www.w3.org/Graphics/SVG/1.1/DTD/svg11.dtd">
<svg version="1.1" id="Layer_1" xmlns="http://www.w3.org/2000/svg" xmlns:xlink="http://www.w3.org/1999/xlink" x="0px" y="0px"
	 width="288px" height="288px" viewBox="0 0 288 288" enable-background="new 0 0 288 288" xml:space="preserve">
<g>
	<path fill="#536D55" d="M-286.289,72.409c-0.259,2.261-0.592,4.494-0.984,6.688c-1.316,7.36-3.337,14.3-5.651,20.55
		c-16.488-24.127-44.604-29.805-44.604-29.805c0-14.467-6.968-23.608-13.011-28.814c-4.627-3.982-8.702-5.664-8.702-5.664
		S-317.383,34.247-286.289,72.409z"/>
	<path fill="#536D55" d="M-285.656,59.218v2.287c0,1.297-0.026,2.586-0.08,3.869c-0.1,2.373-0.286,4.72-0.552,7.034
		c-31.095-38.161-72.952-37.044-72.952-37.044c0.559-1.669,0.931-3.337,1.144-4.986C-355.337,9.336-378.4-9.339-378.4-9.339
		c28.88,3.398,49.284,13.855,63.658,26.287C-298.595,30.923-290.052,47.404-285.656,59.218z"/>
</g>
<path fill="#1E3322" d="M-279.275,73.12l-7.732,6.303l-0.266-0.326l-2.886-3.544c-20.942-25.702-47.117-32.657-60.38-34.525
	c-4.627-3.983-8.702-5.664-8.702-5.664c0.559-1.669,0.931-3.337,1.144-4.986c7.327,0.113,43.294,2.393,72.361,34.997
	c1.117,1.25,2.221,2.54,3.311,3.882L-279.275,73.12z"/>
<path fill="#9F5D36" d="M-235.287-35.796c28.914,0,41.306,46.472,41.306,46.472l-0.173,0.425
	c-7.021-2.846-14.587-5.199-22.544-6.968h-0.007V4.126C-216.611-17.925-235.287-35.796-235.287-35.796z"/>
<path fill="#CEA67F" d="M-145.17,64.484c0,23.782-25.377,30.264-59.496,19.846c-0.007-0.007-0.007-0.007-0.014-0.007
	c1.217,4.109,2.4,8.576,3.464,13.27c1.337,5.884,2.473,12.14,3.218,18.556l-6.495-4.202l-39.219,25.39l-17.332-11.216v-0.007
	l-21.886-14.168l-25.324,16.395c3.523-4.155,10.159-14.706,15.338-28.688v-0.007c3.005-8.111,5.511-17.385,6.635-27.239
	c0.406-3.57,0.632-7.214,0.632-10.904v-2.287c-0.02-16.608-0.033-34.778,7.612-46.472c4.082-6.256,10.418-10.657,20.231-11.98
	c-3.969-17.432-17.485-30.363-17.485-30.363c17.445,0,28.874,16.927,35.196,30.343c1.709,0.12,3.41,0.266,5.093,0.439
	c6.283,0.632,12.399,1.629,18.303,2.952h0.007c7.958,1.768,15.524,4.122,22.544,6.968c11.449,4.62,21.454,10.524,29.386,17.286
	C-152.483,38.867-145.17,51.413-145.17,64.484z"/>
<g enable-background="new    ">
	<path fill="#9F5D36" d="M-237.944,5.65c0,0-34.438,40.834-23.103,120.462l-21.886-14.168l-25.324,16.395
		c3.523-4.155,10.159-14.706,15.338-28.688v-0.007c3.005-8.111,5.511-17.385,6.635-27.238c0.406-3.57,0.632-7.214,0.632-10.904
		v-2.287c-0.02-16.608-0.033-34.778,7.612-46.472c4.082-6.256,10.418-10.657,20.231-11.98
		c-3.969-17.432-17.485-30.363-17.485-30.363c17.445,0,28.874,16.927,35.196,30.343c1.709,0.12,3.41,0.266,5.093,0.439
		L-237.944,5.65z"/>
	<path fill="#9F5D36" d="M-201.216,97.592c-34.286-9.959-50.075-35.436-50.075-35.436c16.262,10.378,32.218,17.778,46.605,22.159
		c0,0,0,0,0.007,0.007C-203.464,88.431-202.28,92.899-201.216,97.592z"/>
</g>
<g>
	<path fill="#4D4D4D" d="M-209.828,33.27c-0.765,0-1.532-0.292-2.116-0.876c-1.695-1.695-3.949-2.629-6.347-2.629
		c-2.397,0-4.651,0.933-6.347,2.63c-1.168,1.168-3.063,1.168-4.231,0c-1.169-1.168-1.169-3.062,0-4.231
		c2.825-2.825,6.582-4.381,10.578-4.381c3.995,0,7.752,1.556,10.577,4.382c1.169,1.168,1.169,3.062,0,4.231
		C-208.296,32.978-209.063,33.27-209.828,33.27z"/>
	<path fill="#4D4D4D" d="M-168.97,33.27c-0.765,0-1.532-0.292-2.116-0.876c-1.695-1.695-3.949-2.629-6.347-2.629
		s-4.652,0.933-6.347,2.629c-1.167,1.169-3.062,1.168-4.231,0s-1.169-3.062,0-4.231c2.825-2.825,6.581-4.382,10.577-4.382
		c3.995,0,7.752,1.556,10.577,4.382c1.169,1.168,1.169,3.062,0,4.231C-167.438,32.978-168.204,33.27-168.97,33.27z"/>
</g>
<g enable-background="new    ">
	<path fill="#9F5D36" d="M-169.936,67.688c-1.81,0-3.323-1.519-3.324-3.324c-0.002-1.831,1.549-3.368,3.385-3.323
		c1.745,0.043,3.198,1.463,3.259,3.213C-166.552,66.095-168.093,67.688-169.936,67.688z"/>
	<path fill="#9F5D36" d="M-151.986,63.699c-1.848,0-3.38-1.582-3.321-3.425c0.056-1.765,1.54-3.234,3.318-3.228
		c1.732,0.005,3.216,1.396,3.321,3.128C-148.554,62.046-150.107,63.699-151.986,63.699z"/>
</g>
<path fill="#EEE4D1" d="M-142.493,150.996c0,50.441-36.912,92.273-85.199,99.951c-5.212,0.825-10.564,1.257-16.016,1.257
	c-55.9,0-101.215-45.315-101.215-101.208c0-8.656,1.084-17.911,3.131-27.378l19.646,12.718l13.889-8.995l25.324-16.395l12.751,8.258
	l26.467,17.133l39.219-25.39l6.495,4.202v0.007l32.723,21.182l19.653-12.718C-143.577,133.086-142.493,142.34-142.493,150.996z"/>
<path fill="#CCC8C4" d="M-227.693,250.947c-5.212,0.825-10.564,1.257-16.016,1.257c-55.9,0-101.215-45.315-101.215-101.208
	c0-8.656,1.084-17.911,3.131-27.378l19.646,12.718l13.889-8.995l25.324-16.395l12.752,8.258c0,0-35.908,91.195,42.483,131.737
	C-227.698,250.941-227.693,250.941-227.693,250.947z"/>
<g id="pAoIAU_1_">
	
		<image overflow="visible" width="400" height="400" id="pAoIAU_3_" xlink:href="D7877C7C556AB642.jpg"  transform="matrix(1 0 0 1 362.2523 -67.4614)">
	</image>
</g>
<polygon fill="#3C563D" points="99.692,243.692 0,276.923 0,38.769 99.692,5.538 "/>
<polygon fill="#1E3322" points="288,232.615 193.846,282.462 193.846,55.385 288,5.538 "/>
<line fill="#CCC8C4" stroke="#9B9692" stroke-width="6" stroke-miterlimit="10" x1="55.385" y1="94.154" x2="55.385" y2="110.769"/>
<circle fill="#6C2211" cx="55.385" cy="72" r="22.154"/>
<path fill="#536D55" d="M174.007,185.522c-3.002-0.576-4.962-3.489-4.386-6.491s3.478-4.974,6.491-4.381
	c6.198,1.196,11.991,1.678,17.734,1.473V55.385L99.692,5.538v156.34c3.462-0.421,6.995-0.703,10.623-0.781c0.039,0,0.083,0,0.122,0
	c3.002,0,5.472,2.404,5.538,5.422c0.066,3.063-2.359,5.594-5.422,5.655c-3.733,0.078-7.355,0.377-10.861,0.858v70.66l94.154,38.769
	v-95.267c-0.775,0.022-1.562,0.089-2.332,0.089C185.932,187.283,180.044,186.69,174.007,185.522z M158.998,175.791
	c-0.892,2.127-2.946,3.401-5.112,3.401c-0.709,0-1.434-0.133-2.132-0.426c-1.977-0.825-3.401-1.495-4.143-1.85
	c-5.45-1.385-10.806-2.481-15.934-3.268c-3.024-0.46-5.101-3.29-4.641-6.314c0.46-3.024,3.29-5.112,6.314-4.636
	c5.666,0.864,11.575,2.082,17.574,3.622c0.393,0.105,0.775,0.249,1.135,0.432c0.094,0.05,1.523,0.764,3.966,1.783
	C158.843,169.726,160.172,172.966,158.998,175.791z"/>
<path fill="#EFE4D0" d="M87.153,164.232c-2.958,0.786-4.719,3.816-3.932,6.774c0.659,2.481,2.897,4.121,5.35,4.121
	c0.465,0,0.947-0.061,1.423-0.183c3.102-0.82,6.347-1.451,9.698-1.911v-11.154C95.356,162.404,91.158,163.174,87.153,164.232z"/>
<path fill="#EFE4D0" d="M65.382,173.586c-6.685,4.193-12.711,9.443-17.917,15.618c-1.972,2.337-1.673,5.832,0.665,7.804
	c1.041,0.875,2.31,1.302,3.567,1.302c1.578,0,3.14-0.67,4.237-1.966c4.464-5.295,9.62-9.798,15.33-13.37
	c2.592-1.628,3.373-5.046,1.75-7.638C71.391,172.745,67.968,171.958,65.382,173.586z"/>
<path fill="#EFE4D0" d="M42.242,206.452c-2.78-1.274-6.07-0.072-7.35,2.708c-5.682,12.329-7.089,22.281-7.15,22.702
	c-0.415,3.03,1.7,5.815,4.73,6.231c0.255,0.039,0.515,0.055,0.764,0.055c2.719,0,5.09-2.005,5.483-4.769
	c0.011-0.089,1.279-8.845,6.231-19.573C46.23,211.026,45.017,207.737,42.242,206.452z"/>
<path fill="#9F5D36" d="M260.684,77.09c-0.055-3.063-2.714-5.389-5.638-5.439c-3.057,0.055-5.494,2.581-5.439,5.638
	c0.033,1.922,0.055,3.81,0.055,5.66c0,5.538-0.166,10.927-0.493,16.023c-0.194,3.052,2.121,5.682,5.173,5.882
	c0.122,0.006,0.238,0.011,0.36,0.011c2.897,0,5.334-2.249,5.522-5.19c0.343-5.322,0.515-10.955,0.515-16.726
	C260.74,81.028,260.723,79.073,260.684,77.09z"/>
<path fill="#9F5D36" d="M253.052,115.831c-3.024-0.498-5.898,1.423-6.463,4.431c-1.396,7.466-3.295,14.289-5.644,20.287
	c-1.113,2.847,0.288,6.059,3.135,7.178c0.665,0.26,1.346,0.377,2.016,0.377c2.215,0,4.303-1.335,5.162-3.522
	c2.603-6.641,4.691-14.14,6.22-22.287C258.037,119.293,256.06,116.402,253.052,115.831z"/>
<path fill="#9F5D36" d="M230.965,158.3c-4.298,5.356-9.393,9.559-15.148,12.5c-2.725,1.396-3.805,4.73-2.409,7.455
	c0.98,1.916,2.919,3.018,4.935,3.018c0.847,0,1.711-0.194,2.514-0.604c7.156-3.661,13.464-8.856,18.742-15.43
	c1.916-2.387,1.534-5.876-0.853-7.787C236.37,155.548,232.881,155.913,230.965,158.3z"/>
<path fill="#9F5D36" d="M196.682,176.007c-0.942,0.072-1.889,0.083-2.836,0.116v11.071c1.23-0.039,2.454-0.05,3.694-0.144
	c3.046-0.238,5.328-2.897,5.09-5.948C202.398,178.05,199.722,175.73,196.682,176.007z"/>
<path fill="#D0A77B" d="M156.018,168.546c-2.442-1.025-3.871-1.734-3.966-1.783c-0.36-0.183-0.742-0.332-1.135-0.432
	c-5.998-1.54-11.908-2.758-17.574-3.622c-3.018-0.476-5.849,1.612-6.314,4.636c-0.46,3.024,1.617,5.854,4.641,6.314
	c5.129,0.786,10.484,1.883,15.934,3.268c0.742,0.354,2.16,1.025,4.143,1.85c0.698,0.294,1.423,0.426,2.132,0.426
	c2.166,0,4.226-1.274,5.112-3.401C160.172,172.966,158.843,169.726,156.018,168.546z"/>
<path fill="#D0A77B" d="M176.118,174.65c-3.013-0.593-5.91,1.379-6.491,4.381c-0.582,3.002,1.385,5.91,4.386,6.491
	c6.031,1.169,11.924,1.761,17.502,1.761c0.77,0,1.556-0.066,2.332-0.089v-11.071C188.103,176.328,182.31,175.846,176.118,174.65z"/>
<path fill="#D0A77B" d="M115.975,166.514c-0.066-3.018-2.531-5.422-5.538-5.422c-0.039,0-0.083,0-0.122,0
	c-3.628,0.078-7.167,0.36-10.623,0.781v11.154c3.506-0.482,7.134-0.775,10.861-0.858
	C113.616,172.108,116.042,169.577,115.975,166.514z"/>
<line fill="#231E1A" stroke="#231E19" stroke-width="6" stroke-miterlimit="10" x1="44.308" y1="127.385" x2="66.462" y2="149.538"/>
<line fill="#231E1A" stroke="#231E19" stroke-width="6" stroke-miterlimit="10" x1="44.308" y1="149.538" x2="66.462" y2="127.385"/>
</svg>
