<?xml version="1.0" encoding="utf-8"?>
<!-- Generator: Adobe Illustrator 17.0.0, SVG Export Plug-In . SVG Version: 6.00 Build 0)  -->
<!DOCTYPE svg PUBLIC "-//W3C//DTD SVG 1.1//EN" "http://www.w3.org/Graphics/SVG/1.1/DTD/svg11.dtd">
<svg version="1.1" id="Layer_1" xmlns="http://www.w3.org/2000/svg" xmlns:xlink="http://www.w3.org/1999/xlink" x="0px" y="0px"
	 width="288px" height="288px" viewBox="0 0 288 288" enable-background="new 0 0 288 288" xml:space="preserve">
<path fill="#D1A982" d="M143.559,288.014c-1.482,0-2.965-0.402-4.294-1.207c-0.856-0.52-21.309-12.999-47.551-37.591
	c-24.183-22.66-58.039-60.353-81.978-111.243C3.368,124.513,0,109.274,0,93.919C0,42.129,37.44,0.001,83.467,0.001
	c13.32,0,26.576,3.623,38.337,10.466c8.059,4.691,15.442,10.913,21.761,18.276c6.319-7.363,13.702-13.584,21.761-18.276
	c11.754-6.85,25.011-10.466,38.337-10.466c46.027,0,83.467,42.129,83.467,93.918c0,15.356-3.368,30.601-9.743,44.075
	c-23.932,50.875-57.788,88.568-81.971,111.228c-26.243,24.592-46.695,37.071-47.551,37.591
	C146.53,287.611,145.048,288.014,143.559,288.014z"/>
<path fill="#9F5F35" d="M203.657,0c-13.32,0-26.576,3.623-38.337,10.466c-8.059,4.691-15.442,10.913-21.761,18.276
	c-0.174-0.205-0.355-0.402-0.536-0.608v259.864c0.181,0.015,0.355,0.022,0.536,0.022c1.482,0,2.965-0.402,4.294-1.207
	c0.856-0.52,21.309-12.999,47.551-37.591c24.183-22.66,58.039-60.353,81.971-111.228c6.375-13.474,9.743-28.713,9.743-44.075
	C287.124,42.129,249.677,0,203.657,0z"/>
</svg>
