<?xml version="1.0" encoding="utf-8"?>
<!-- Generator: Adobe Illustrator 17.0.0, SVG Export Plug-In . SVG Version: 6.00 Build 0)  -->
<!DOCTYPE svg PUBLIC "-//W3C//DTD SVG 1.1//EN" "http://www.w3.org/Graphics/SVG/1.1/DTD/svg11.dtd">
<svg version="1.1" id="Layer_1" xmlns="http://www.w3.org/2000/svg" xmlns:xlink="http://www.w3.org/1999/xlink" x="0px" y="0px"
	 width="288px" height="288px" viewBox="0 0 288 288" enable-background="new 0 0 288 288" xml:space="preserve">
<g>
	<path fill="#536D55" d="M-286.289,72.409c-0.259,2.261-0.592,4.494-0.984,6.688c-1.316,7.36-3.337,14.3-5.651,20.55
		c-16.488-24.127-44.604-29.805-44.604-29.805c0-14.467-6.968-23.608-13.011-28.814c-4.627-3.982-8.702-5.664-8.702-5.664
		S-317.383,34.247-286.289,72.409z"/>
	<path fill="#536D55" d="M-285.656,59.218v2.287c0,1.297-0.026,2.586-0.08,3.869c-0.1,2.373-0.286,4.72-0.552,7.034
		c-31.095-38.161-72.952-37.044-72.952-37.044c0.559-1.669,0.931-3.337,1.144-4.986C-355.337,9.336-378.4-9.339-378.4-9.339
		c28.88,3.398,49.284,13.855,63.658,26.287C-298.595,30.923-290.052,47.404-285.656,59.218z"/>
</g>
<path fill="#1E3322" d="M-279.275,73.12l-7.732,6.303l-0.266-0.326l-2.886-3.544c-20.942-25.702-47.117-32.657-60.38-34.525
	c-4.627-3.983-8.702-5.664-8.702-5.664c0.559-1.669,0.931-3.337,1.144-4.986c7.327,0.113,43.294,2.393,72.361,34.997
	c1.117,1.25,2.221,2.54,3.311,3.882L-279.275,73.12z"/>
<path fill="#9F5D36" d="M-235.287-35.796c28.914,0,41.306,46.472,41.306,46.472l-0.173,0.425
	c-7.021-2.846-14.587-5.199-22.544-6.968h-0.007V4.126C-216.611-17.925-235.287-35.796-235.287-35.796z"/>
<path fill="#CEA67F" d="M-145.17,64.484c0,23.782-25.377,30.264-59.496,19.846c-0.007-0.007-0.007-0.007-0.014-0.007
	c1.217,4.109,2.4,8.576,3.464,13.27c1.337,5.884,2.473,12.14,3.218,18.556l-6.495-4.202l-39.219,25.39l-17.332-11.216v-0.007
	l-21.886-14.168l-25.324,16.395c3.523-4.155,10.159-14.706,15.338-28.688v-0.007c3.005-8.111,5.511-17.385,6.635-27.239
	c0.406-3.57,0.632-7.214,0.632-10.904v-2.287c-0.02-16.608-0.033-34.778,7.612-46.472c4.082-6.256,10.418-10.657,20.231-11.98
	c-3.969-17.432-17.485-30.363-17.485-30.363c17.445,0,28.874,16.927,35.196,30.343c1.709,0.12,3.41,0.266,5.093,0.439
	c6.283,0.632,12.399,1.629,18.303,2.952h0.007c7.958,1.768,15.524,4.122,22.544,6.968c11.449,4.62,21.454,10.524,29.386,17.286
	C-152.483,38.867-145.17,51.413-145.17,64.484z"/>
<g enable-background="new    ">
	<path fill="#9F5D36" d="M-237.944,5.65c0,0-34.438,40.834-23.103,120.462l-21.886-14.168l-25.324,16.395
		c3.523-4.155,10.159-14.706,15.338-28.688v-0.007c3.005-8.111,5.511-17.385,6.635-27.238c0.406-3.57,0.632-7.214,0.632-10.904
		v-2.287c-0.02-16.608-0.033-34.778,7.612-46.472c4.082-6.256,10.418-10.657,20.231-11.98
		c-3.969-17.432-17.485-30.363-17.485-30.363c17.445,0,28.874,16.927,35.196,30.343c1.709,0.12,3.41,0.266,5.093,0.439
		L-237.944,5.65z"/>
	<path fill="#9F5D36" d="M-201.216,97.592c-34.286-9.959-50.075-35.436-50.075-35.436c16.262,10.378,32.218,17.778,46.605,22.159
		c0,0,0,0,0.007,0.007C-203.464,88.431-202.28,92.899-201.216,97.592z"/>
</g>
<g>
	<path fill="#4D4D4D" d="M-209.828,33.27c-0.765,0-1.532-0.292-2.116-0.876c-1.695-1.695-3.949-2.629-6.347-2.629
		c-2.397,0-4.651,0.933-6.347,2.63c-1.168,1.168-3.063,1.168-4.231,0c-1.169-1.168-1.169-3.062,0-4.231
		c2.825-2.825,6.582-4.381,10.578-4.381c3.995,0,7.752,1.556,10.577,4.382c1.169,1.168,1.169,3.062,0,4.231
		C-208.296,32.978-209.063,33.27-209.828,33.27z"/>
	<path fill="#4D4D4D" d="M-168.97,33.27c-0.765,0-1.532-0.292-2.116-0.876c-1.695-1.695-3.949-2.629-6.347-2.629
		s-4.652,0.933-6.347,2.629c-1.167,1.169-3.062,1.168-4.231,0s-1.169-3.062,0-4.231c2.825-2.825,6.581-4.382,10.577-4.382
		c3.995,0,7.752,1.556,10.577,4.382c1.169,1.168,1.169,3.062,0,4.231C-167.438,32.978-168.204,33.27-168.97,33.27z"/>
</g>
<g enable-background="new    ">
	<path fill="#9F5D36" d="M-169.936,67.688c-1.81,0-3.323-1.519-3.324-3.324c-0.002-1.831,1.549-3.368,3.385-3.323
		c1.745,0.043,3.198,1.463,3.259,3.213C-166.552,66.095-168.093,67.688-169.936,67.688z"/>
	<path fill="#9F5D36" d="M-151.986,63.699c-1.848,0-3.38-1.582-3.321-3.425c0.056-1.765,1.54-3.234,3.318-3.228
		c1.732,0.005,3.216,1.396,3.321,3.128C-148.554,62.046-150.107,63.699-151.986,63.699z"/>
</g>
<path fill="#EEE4D1" d="M-142.493,150.996c0,50.441-36.912,92.273-85.199,99.951c-5.212,0.825-10.564,1.257-16.016,1.257
	c-55.9,0-101.215-45.315-101.215-101.208c0-8.656,1.084-17.911,3.131-27.378l19.646,12.718l13.889-8.995l25.324-16.395l12.751,8.258
	l26.467,17.133l39.219-25.39l6.495,4.202v0.007l32.723,21.182l19.653-12.718C-143.577,133.086-142.493,142.34-142.493,150.996z"/>
<path fill="#CCC8C4" d="M-227.693,250.947c-5.212,0.825-10.564,1.257-16.016,1.257c-55.9,0-101.215-45.315-101.215-101.208
	c0-8.656,1.084-17.911,3.131-27.378l19.646,12.718l13.889-8.995l25.324-16.395l12.752,8.258c0,0-35.908,91.195,42.483,131.737
	C-227.698,250.941-227.693,250.941-227.693,250.947z"/>
<g id="pAoIAU_1_">
	
		<image overflow="visible" width="400" height="400" id="pAoIAU_3_" xlink:href="E86E57EB4EC67F59.jpg"  transform="matrix(1 0 0 1 362.2523 -67.4614)">
	</image>
</g>
<path fill="#CEA67F" d="M89.588,203.001c12.604,12.604,12.604,33.312,0,45.916c-12.604,12.604-49.742,29.035-62.347,16.431
	c-12.604-12.604,3.826-49.742,16.431-62.347C56.276,190.397,76.758,190.397,89.588,203.001z"/>
<path fill="#9F5D36" d="M52,196.924v1.35c0,23.408,19.132,42.54,42.54,42.54h0.9c6.302-12.154,4.276-27.459-6.077-37.813
	C79.459,192.872,64.154,190.846,52,196.924z"/>
<path fill="#6C2211" d="M155.761,132.326c38.489,38.489,46.141,93.182,9.678,129.645l-17.331,17.331
	c-36.463,36.463-11.254-51.093-49.742-89.581s-126.269-13.055-89.581-49.742l17.331-17.331
	C62.578,86.185,117.272,93.838,155.761,132.326L155.761,132.326z"/>
<path fill="#EEE4D1" d="M283.155,4.931c11.704,11.704,6.528,85.98-65.273,158.005c-46.816,46.591-76.302,63.022-76.302,63.022
	c-31.286,21.158-46.366,6.752-66.173-13.055s-34.437-34.887-13.055-66.173c0,0,16.656-29.711,63.247-76.527
	C197.4-1.595,271.451-6.997,283.155,4.931L283.155,4.931z"/>
<path fill="#CCC8C4" d="M153.96,215.83c-32.637,21.833-48.392,6.977-68.874-13.505c-20.707-20.707-35.788-36.238-13.505-68.874
	l3.376-5.402c-8.778,11.929-12.604,18.681-12.604,18.681c-21.382,31.286-6.752,46.366,13.055,66.173s34.887,33.987,66.173,13.055
	c0,0,13.955-7.878,38.038-27.91C163.188,210.654,153.96,215.83,153.96,215.83z"/>
<path fill="#536D55" d="M207.754,80.333c11.029,11.029,11.029,28.81,0,39.839c-11.029,11.029-28.81,11.029-39.839,0
	c-11.029-11.029-11.029-28.81,0-39.839S196.95,69.304,207.754,80.333z"/>
<path fill="#6C2211" d="M142.706,150.107c5.627,5.627-5.177,25.659-32.637,53.119s-44.116,34.887-49.742,29.035
	c-5.627-5.627,1.576-22.283,29.035-49.742C117.047,155.059,136.854,144.255,142.706,150.107z"/>
<path fill="#1E3322" d="M187.947,78.758c5.627,0,11.029,2.251,15.08,6.302c4.051,4.051,6.302,9.454,6.302,15.08
	c0,5.627-2.251,11.029-6.302,15.08c-4.051,4.051-9.454,6.302-15.08,6.302c-5.627,0-11.029-2.251-15.08-6.302
	c-4.051-4.051-6.302-9.454-6.302-15.08c0-5.627,2.251-11.029,6.302-15.08C176.918,81.008,182.32,78.758,187.947,78.758
	 M187.947,72.005c-7.202,0-14.405,2.701-19.807,8.328c-11.029,11.029-11.029,28.81,0,39.839c5.402,5.402,12.604,8.328,19.807,8.328
	s14.405-2.701,19.807-8.328c11.029-11.029,11.029-28.81,0-39.839C202.352,74.706,195.15,72.005,187.947,72.005z"/>
<path fill="#6C2211" d="M214.281,10.559c2.026,15.08,10.128,31.061,23.408,44.341c11.704,11.479,25.209,19.132,38.489,22.283
	c14.855-36.914,13.729-65.273,6.977-72.251C276.628-1.821,249.619-2.946,214.281,10.559z"/>
</svg>
