<?xml version="1.0" encoding="utf-8"?>
<!-- Generator: Adobe Illustrator 17.0.0, SVG Export Plug-In . SVG Version: 6.00 Build 0)  -->
<!DOCTYPE svg PUBLIC "-//W3C//DTD SVG 1.1//EN" "http://www.w3.org/Graphics/SVG/1.1/DTD/svg11.dtd">
<svg version="1.1" id="Capa_1" xmlns="http://www.w3.org/2000/svg" xmlns:xlink="http://www.w3.org/1999/xlink" x="0px" y="0px"
	 width="2916.36px" height="512px" viewBox="41.324 0 2916.36 512" enable-background="new 41.324 0 2916.36 512"
	 xml:space="preserve">
<path fill="#CFA77D" d="M2537.976,506.022c-1.92,0-3.84-0.594-5.453-1.771c-2.856-2.077-4.285-5.592-3.682-9.07l28.667-167.105
	l-121.411-118.332c-2.522-2.467-3.431-6.149-2.346-9.497c1.094-3.357,3.997-5.806,7.494-6.316l167.773-24.382l75.039-152.035
	c1.558-3.172,4.786-5.175,8.31-5.175l0,0c3.534,0,6.761,2.003,8.31,5.175l75.03,152.035l167.782,24.382
	c3.496,0.51,6.39,2.949,7.494,6.316c1.085,3.348,0.186,7.039-2.346,9.497l-121.411,118.35l28.658,167.096
	c0.594,3.478-0.835,6.993-3.682,9.07c-2.856,2.096-6.65,2.365-9.775,0.705l-150.059-78.888l-150.078,78.888
	C2540.935,505.67,2539.451,506.022,2537.976,506.022z M2462.501,209.577l111.441,108.631c2.179,2.124,3.181,5.203,2.662,8.208
	l-26.311,153.379l137.761-72.414c2.699-1.428,5.917-1.428,8.635,0l137.743,72.414l-26.302-153.379
	c-0.52-3.005,0.482-6.075,2.662-8.208l111.441-108.631l-154.001-22.379c-3.023-0.436-5.629-2.337-6.984-5.073l-68.881-139.542
	l-68.881,139.551c-1.354,2.736-3.96,4.637-6.984,5.073L2462.501,209.577z"/>
<polygon fill="#CFA77D" points="305.634,4.629 387.299,170.119 569.934,196.664 437.779,325.473 468.975,507.371 305.634,421.496 
	142.282,507.371 173.479,325.473 41.324,196.664 223.958,170.119 "/>
<polygon fill="#CFA77D" points="901.266,4.629 982.932,170.119 1165.566,196.664 1033.411,325.473 1064.608,507.371 
	901.266,421.496 737.915,507.371 769.111,325.473 636.956,196.664 819.591,170.119 "/>
<polygon fill="#CFA77D" points="1503.069,4.629 1584.734,170.119 1767.369,196.664 1635.214,325.473 1666.41,507.371 
	1503.069,421.496 1339.717,507.371 1370.914,325.473 1238.759,196.664 1421.393,170.119 "/>
<polygon fill="#CFA77D" points="2100.582,4.629 2182.248,170.119 2364.882,196.664 2232.727,325.473 2263.923,507.371 
	2100.582,421.496 1937.23,507.371 1968.427,325.473 1836.272,196.664 2018.906,170.119 "/>
</svg>
