<?xml version="1.0" encoding="utf-8"?>
<!-- Generator: Adobe Illustrator 16.0.0, SVG Export Plug-In . SVG Version: 6.00 Build 0)  -->
<!DOCTYPE svg PUBLIC "-//W3C//DTD SVG 1.1//EN" "http://www.w3.org/Graphics/SVG/1.1/DTD/svg11.dtd">
<svg version="1.1" id="Layer_1" xmlns="http://www.w3.org/2000/svg" xmlns:xlink="http://www.w3.org/1999/xlink" x="0px" y="0px"
	 width="288px" height="288px" viewBox="0 0 288 288" enable-background="new 0 0 288 288" xml:space="preserve">
<g>
	<path fill="#536D55" d="M-286.289,72.409c-0.259,2.261-0.592,4.494-0.984,6.688c-1.316,7.36-3.337,14.3-5.651,20.55
		c-16.488-24.127-44.604-29.805-44.604-29.805c0-14.467-6.968-23.608-13.011-28.814c-4.627-3.982-8.702-5.664-8.702-5.664
		S-317.383,34.247-286.289,72.409z"/>
	<path fill="#536D55" d="M-285.656,59.218v2.287c0,1.297-0.026,2.586-0.08,3.869c-0.1,2.373-0.286,4.72-0.552,7.034
		c-31.095-38.161-72.952-37.044-72.952-37.044c0.559-1.669,0.931-3.337,1.145-4.986C-355.337,9.336-378.4-9.339-378.4-9.339
		c28.88,3.398,49.284,13.855,63.658,26.287C-298.595,30.923-290.052,47.404-285.656,59.218z"/>
</g>
<path fill="#1E3322" d="M-279.275,73.12l-7.732,6.303l-0.266-0.326l-2.886-3.544c-20.942-25.702-47.117-32.657-60.38-34.525
	c-4.627-3.983-8.702-5.664-8.702-5.664c0.559-1.669,0.931-3.337,1.145-4.986c7.327,0.113,43.294,2.393,72.361,34.997
	c1.117,1.25,2.221,2.54,3.311,3.882L-279.275,73.12z"/>
<path fill="#9F5D36" d="M-235.287-35.796c28.914,0,41.306,46.472,41.306,46.472l-0.173,0.425
	c-7.021-2.846-14.587-5.199-22.544-6.968h-0.007V4.126C-216.611-17.925-235.287-35.796-235.287-35.796z"/>
<path fill="#CEA67F" d="M-145.17,64.484c0,23.782-25.377,30.264-59.496,19.846c-0.007-0.007-0.007-0.007-0.014-0.007
	c1.217,4.109,2.4,8.576,3.464,13.27c1.337,5.884,2.473,12.14,3.218,18.556l-6.495-4.202l-39.219,25.39l-17.332-11.216v-0.007
	l-21.886-14.168l-25.324,16.395c3.523-4.155,10.159-14.706,15.338-28.688v-0.007c3.005-8.111,5.511-17.385,6.635-27.239
	c0.406-3.57,0.632-7.214,0.632-10.904v-2.287c-0.02-16.608-0.033-34.778,7.612-46.472c4.082-6.256,10.418-10.657,20.231-11.98
	c-3.969-17.432-17.485-30.363-17.485-30.363c17.445,0,28.874,16.927,35.196,30.343c1.709,0.12,3.41,0.266,5.093,0.439
	c6.283,0.632,12.399,1.629,18.303,2.952h0.007c7.958,1.768,15.524,4.122,22.544,6.968c11.449,4.62,21.454,10.524,29.386,17.286
	C-152.483,38.867-145.17,51.413-145.17,64.484z"/>
<g enable-background="new    ">
	<path fill="#9F5D36" d="M-237.944,5.65c0,0-34.438,40.834-23.103,120.462l-21.886-14.168l-25.324,16.395
		c3.523-4.155,10.159-14.706,15.338-28.688v-0.007c3.005-8.111,5.511-17.385,6.635-27.238c0.406-3.57,0.632-7.214,0.632-10.904
		v-2.287c-0.02-16.608-0.033-34.778,7.612-46.472c4.082-6.256,10.418-10.657,20.231-11.98
		c-3.969-17.432-17.485-30.363-17.485-30.363c17.445,0,28.874,16.927,35.196,30.343c1.709,0.12,3.41,0.266,5.093,0.439
		L-237.944,5.65z"/>
	<path fill="#9F5D36" d="M-201.216,97.592c-34.286-9.959-50.075-35.436-50.075-35.436c16.262,10.378,32.218,17.778,46.605,22.159
		c0,0,0,0,0.007,0.007C-203.464,88.431-202.28,92.899-201.216,97.592z"/>
</g>
<g>
	<path fill="#4D4D4D" d="M-209.828,33.27c-0.765,0-1.532-0.292-2.116-0.876c-1.695-1.695-3.949-2.629-6.347-2.629
		c-2.397,0-4.651,0.933-6.347,2.63c-1.168,1.168-3.063,1.168-4.231,0c-1.169-1.168-1.169-3.062,0-4.231
		c2.825-2.825,6.582-4.381,10.578-4.381c3.995,0,7.752,1.556,10.577,4.382c1.169,1.168,1.169,3.062,0,4.231
		C-208.296,32.978-209.063,33.27-209.828,33.27z"/>
	<path fill="#4D4D4D" d="M-168.97,33.27c-0.765,0-1.532-0.292-2.116-0.876c-1.695-1.695-3.949-2.629-6.347-2.629
		s-4.652,0.933-6.347,2.629c-1.167,1.169-3.062,1.168-4.231,0c-1.169-1.168-1.169-3.062,0-4.231
		c2.825-2.825,6.581-4.382,10.577-4.382c3.995,0,7.752,1.556,10.577,4.382c1.169,1.168,1.169,3.062,0,4.231
		C-167.438,32.978-168.204,33.27-168.97,33.27z"/>
</g>
<g enable-background="new    ">
	<path fill="#9F5D36" d="M-169.936,67.688c-1.81,0-3.323-1.519-3.324-3.324c-0.002-1.831,1.549-3.368,3.385-3.323
		c1.745,0.043,3.198,1.463,3.259,3.213C-166.552,66.095-168.093,67.688-169.936,67.688z"/>
	<path fill="#9F5D36" d="M-151.986,63.699c-1.848,0-3.38-1.582-3.321-3.425c0.056-1.765,1.54-3.234,3.318-3.228
		c1.732,0.005,3.216,1.396,3.321,3.128C-148.554,62.046-150.107,63.699-151.986,63.699z"/>
</g>
<path fill="#EEE4D1" d="M-142.493,150.996c0,50.441-36.912,92.273-85.199,99.951c-5.212,0.824-10.564,1.257-16.016,1.257
	c-55.9,0-101.215-45.315-101.215-101.208c0-8.656,1.084-17.911,3.131-27.378l19.646,12.718l13.889-8.995l25.324-16.395l12.751,8.258
	l26.467,17.133l39.219-25.39l6.495,4.202v0.007l32.723,21.182l19.653-12.718C-143.577,133.086-142.493,142.34-142.493,150.996z"/>
<path fill="#CCC8C4" d="M-227.693,250.947c-5.212,0.824-10.564,1.257-16.016,1.257c-55.9,0-101.215-45.315-101.215-101.208
	c0-8.656,1.084-17.911,3.131-27.378l19.646,12.718l13.889-8.995l25.324-16.395l12.752,8.258c0,0-35.908,91.194,42.483,131.737
	C-227.698,250.941-227.693,250.941-227.693,250.947z"/>
<g id="pAoIAU_1_">
</g>
<circle fill="#536D55" cx="454" cy="150" r="144"/>
<path fill="#1E3322" d="M597.884,155.543l-60.524-60.525l-43.272,79.207l-71.505-71.503l-33.229,29.825l-36.711,28.39
	L482.82,291.113C546.787,278.118,595.34,222.723,597.884,155.543z"/>
<path fill="#FED8B2" d="M524.329,187.562v-12.16h-21.933v12.16c0,0.972-0.785,1.758-1.756,1.758h-15.113v41.965h55.671V189.32
	h-15.112C525.117,189.32,524.329,188.534,524.329,187.562z"/>
<path fill="#EABE96" d="M541.2,189.32h-15.113c-0.971,0-1.757-0.786-1.757-1.758v-12.16h-11.469v55.883H541.2V189.32L541.2,189.32z"
	/>
<circle fill="#FED8B2" cx="476.914" cy="149.922" r="8.766"/>
<circle fill="#EABE96" cx="547.943" cy="149.922" r="8.766"/>
<path fill="#F4E3C3" d="M513.417,186.421h-1.976c-18.268,0-33.076-14.81-33.076-33.077v-30.2c0-18.268,14.81-33.077,33.076-33.077
	h1.976c18.269,0,33.077,14.809,33.077,33.077v30.2C546.495,171.611,531.686,186.421,513.417,186.421z"/>
<path fill="#FED8B2" d="M513.417,90.067h-0.556v96.355h0.556c18.269,0,33.077-14.809,33.077-33.076v-30.201
	C546.495,104.876,531.686,90.067,513.417,90.067z"/>
<path fill="#4F372D" d="M542.908,101.245c-6.496-9.254-17.24-15.308-29.405-15.308h-2.146c-19.834,0-35.912,16.078-35.912,35.913
	v2.777v25.297h5.271v-14.835c-0.001,0-0.002,0-0.003,0c15.999-1.625,31.731-4.764,45.521-11.658
	c4.961,5.698,10.691,10.786,17.017,14.914v11.579h6.163v-18.912v-9.163C549.414,114.181,547.003,107.078,542.908,101.245z"/>
<path fill="#3C2D26" d="M542.908,101.245c-6.496-9.254-17.24-15.308-29.405-15.308h-0.64v42.9c4.611-1.484,9.085-3.264,13.371-5.406
	c4.961,5.698,10.691,10.786,17.017,14.914v11.579h6.163v-18.912v-9.163C549.414,114.181,547.003,107.078,542.908,101.245z"/>
<circle fill="#59595B" cx="496.366" cy="146.034" r="3.406"/>
<circle fill="#272525" cx="528.492" cy="146.034" r="3.406"/>
<path fill="#EEE4D1" d="M569.036,236.623v-21.855c0-14.055-11.392-25.447-25.446-25.447h-11.668
	c0,10.25-18.557,20.203-18.557,20.203s-18.557-9.953-18.557-20.203h-11.668c-14.054,0-25.447,11.394-25.447,25.447v79.188
	C503.191,292.809,543.443,270.555,569.036,236.623z"/>
<path fill="#CCC8C4" d="M543.59,189.32h-11.668c0,10.248-18.557,20.201-18.557,20.201s-0.11-0.059-0.293-0.162v71.996
	c22.223-10.012,41.453-25.491,55.965-44.732v-21.855C569.036,200.712,557.643,189.32,543.59,189.32z"/>
<path fill="#FD8469" d="M512.434,160.934c6.137,0,11.129,4.993,11.129,11.131c0,1.041-0.844,1.884-1.883,1.884
	c-1.041,0-1.885-0.845-1.885-1.884c0-4.06-3.303-7.363-7.363-7.363c-4.06,0-7.363,3.303-7.363,7.363
	c0,1.041-0.844,1.884-1.883,1.884c-1.041,0-1.885-0.845-1.885-1.884C501.302,165.926,506.295,160.934,512.434,160.934z"/>
<path fill="#FC6F58" d="M512.861,160.945v3.767c3.859,0.226,6.932,3.427,6.932,7.341c0,1.041,0.844,1.885,1.884,1.885
	c1.041,0,1.884-0.845,1.884-1.885C523.562,166.062,518.801,161.175,512.861,160.945z"/>
<polygon fill="#935635" points="357.579,152.498 357.579,202.389 394.746,199.956 394.746,150.064 "/>
<polygon fill="#804000" points="431.921,147.631 394.746,150.064 394.746,199.956 431.921,197.523 "/>
<path fill="#FED8B2" d="M405.818,192.832v-12.199h-22.002v12.199c0,0.975-0.789,1.764-1.764,1.764h-15.162v42.1h55.854v-42.1
	h-15.163C406.607,194.594,405.818,193.805,405.818,192.832z"/>
<path fill="#EABE96" d="M422.743,194.594h-15.162c-0.974,0-1.763-0.789-1.763-1.763v-12.199h-11.072v56.063h27.997V194.594z"/>
<circle fill="#FED8B2" cx="359.182" cy="155.071" r="8.795"/>
<circle fill="#EABE96" cx="430.456" cy="155.071" r="8.795"/>
<path fill="#F4E3C3" d="M395.809,191.686h-1.982c-18.327,0-33.184-14.856-33.184-33.184v-30.298
	c0-18.327,14.856-33.184,33.184-33.184h1.982c18.326,0,33.184,14.857,33.184,33.184v30.298
	C428.991,176.828,414.135,191.686,395.809,191.686z"/>
<path fill="#FED8B2" d="M395.809,95.019h-1.062v96.667h1.062c18.326,0,33.184-14.856,33.184-33.184v-30.298
	C428.991,109.876,414.135,95.019,395.809,95.019z"/>
<path fill="#B97850" d="M425.393,106.234c-6.517-9.284-17.295-15.357-29.5-15.357h-2.151c-19.898,0-36.161,16.131-36.161,36.029
	v2.786v47.93h5.421v-37.435c-0.001,0-0.002,0-0.003,0c16.051-1.631,31.834-4.78,45.667-11.695
	c4.979,5.716,10.728,10.821,17.071,14.963v34.168h6.185v-41.524v-9.192C431.921,119.211,429.501,112.086,425.393,106.234z"/>
<path fill="#935635" d="M425.393,106.234c-6.517-9.284-17.295-15.357-29.5-15.357h-1.146v43.196
	c4.804-1.522,9.464-3.353,13.919-5.581c4.979,5.716,10.727,10.821,17.072,14.962v34.169h6.184v-41.524v-9.192
	C431.921,119.211,429.501,112.086,425.393,106.234z"/>
<circle fill="#59595B" cx="378.705" cy="151.164" r="3.417"/>
<circle fill="#272525" cx="410.926" cy="151.164" r="3.417"/>
<path fill="#FD8469" d="M394.816,166.117c6.158,0,11.166,5.008,11.166,11.166c0,1.043-0.844,1.89-1.89,1.89
	c-1.043,0-1.89-0.845-1.89-1.89c0-4.072-3.314-7.387-7.387-7.387c-4.071,0-7.385,3.314-7.385,7.387c0,1.043-0.846,1.89-1.891,1.89
	c-1.043,0-1.891-0.845-1.891-1.89C383.65,171.126,388.66,166.117,394.816,166.117z"/>
<path fill="#FC6F58" d="M405.982,177.284c0-6.158-5.008-11.166-11.166-11.166c-0.023,0-0.047,0.004-0.07,0.004v3.78
	c0.023-0.002,0.047-0.004,0.07-0.004c4.072,0,7.387,3.313,7.387,7.386c0,1.045,0.847,1.89,1.89,1.89
	C405.137,179.174,405.982,178.327,405.982,177.284z"/>
<path fill="#C1A870" d="M425.141,194.594h-11.707c0,10.283-8.336,32.74-18.617,32.74c-10.282,0-18.616-22.457-18.616-32.74h-11.708
	c-14.098,0-25.528,11.43-25.528,25.529v16.5c22.111,29.316,55.163,49.917,93.091,55.716c6.491-2.22,12.719-5.008,18.613-8.321
	v-63.895C450.669,206.023,439.238,194.594,425.141,194.594z"/>
<path fill="#B78D56" d="M425.141,194.594h-11.707c0,10.283-8.336,32.74-18.617,32.74c-0.022,0-0.047-0.004-0.07-0.005v53.953
	c17.119,7.737,36.023,12.223,55.923,12.675v-73.835C450.669,206.023,439.238,194.594,425.141,194.594z"/>
<path fill="#FED8B2" d="M460.977,242.573v-7.737h-13.953v7.737c0,0.618-0.502,1.118-1.119,1.118h-9.614v26.701h35.422v-26.701
	h-9.614C461.479,243.691,460.977,243.189,460.977,242.573z"/>
<path fill="#EABE96" d="M471.711,243.691h-9.615c-0.617,0-1.117-0.502-1.117-1.118v-7.737h-7.297v35.557h18.03L471.711,243.691z"/>
<circle fill="#FED8B2" cx="430.805" cy="218.626" r="5.577"/>
<circle fill="#EABE96" cx="476.002" cy="218.626" r="5.577"/>
<path fill="#F4E3C3" d="M454.034,241.846h-1.257c-11.625,0-21.047-9.422-21.047-21.045v-19.216c0-11.623,9.422-21.045,21.047-21.045
	h1.257c11.624,0,21.047,9.422,21.047,21.045V220.8C475.08,232.424,465.658,241.846,454.034,241.846z"/>
<path fill="#FED8B2" d="M454.034,180.54h-0.353v61.308h0.353c11.624,0,21.047-9.423,21.047-21.046v-19.216
	C475.08,189.962,465.658,180.54,454.034,180.54z"/>
<circle fill="#59595B" cx="443.188" cy="216.144" r="2.167"/>
<circle fill="#272525" cx="463.619" cy="216.144" r="2.167"/>
<path fill="#7F2819" d="M473.232,243.691h-7.424c0,6.521-11.808,12.853-11.808,12.853s-11.808-6.332-11.808-12.853h-7.424
	c-8.94,0-16.189,7.248-16.189,16.189v29.723C429.911,292.471,441.777,294,454,294c12.225,0,24.089-1.529,35.422-4.395v-29.724
	C489.422,250.939,482.173,243.691,473.232,243.691z"/>
<path fill="#6C2211" d="M473.232,243.691h-7.424c0,6.521-11.808,12.853-11.808,12.853s-0.118-0.063-0.323-0.181v37.631
	c0.107,0,0.215,0.005,0.323,0.005c12.224,0,24.089-1.528,35.422-4.396v-29.723C489.422,250.939,482.173,243.691,473.232,243.691z"/>
<path fill="#FD8469" d="M453.404,225.63c3.906,0,7.082,3.177,7.082,7.082c0,0.662-0.535,1.199-1.198,1.199
	c-0.662,0-1.199-0.536-1.199-1.199c0-2.583-2.101-4.685-4.685-4.685c-2.582,0-4.684,2.102-4.684,4.685
	c0,0.662-0.537,1.199-1.199,1.199s-1.199-0.536-1.199-1.199C446.324,228.807,449.501,225.63,453.404,225.63z"/>
<g>
	<path fill="#B57243" d="M460.346,232.643c0.004,0.662-0.515,1.203-1.16,1.205c-0.645,0.004-1.17-0.529-1.172-1.191
		c-0.015-2.49-1.929-4.516-4.318-4.647l-0.014-2.397C457.359,225.738,460.325,228.831,460.346,232.643z"/>
	<path fill="#B57243" d="M436.939,194.525c0,0-1.057-13.416-21.67-19.023l-7.045,21.678L436.939,194.525z"/>
</g>
<g>
	<path fill="#A05D30" d="M471.061,194.525c0,0,1.057-13.416,21.67-19.023l7.045,21.678L471.061,194.525z"/>
	<path fill="#A05D30" d="M473.016,211.257v7.367h3.922v-12.033v-5.83c0-4.88-1.535-9.397-4.142-13.11
		c-4.133-5.887-10.969-9.739-18.709-9.739h-1.364c-12.621,0-22.851,10.229-22.851,22.85v1.767v16.096h3.354v-7.367h39.787
		L473.016,211.257L473.016,211.257z"/>
</g>
<path fill="#89471B" d="M472.798,187.652c-4.133-5.889-10.969-9.74-18.709-9.74h-0.411v33.345h19.34v7.368h3.92v-12.033v-5.83
	C476.938,195.882,475.402,191.363,472.798,187.652z"/>
<g>
	<path fill="#6C2211" d="M12.868,144.801H3.056v22.737c0,22.455,18.204,40.659,40.659,40.659l0,0v-32.55
		C43.715,158.612,29.904,144.801,12.868,144.801z"/>
	<path fill="#6C2211" d="M275.132,144.801h9.812v22.737c0,22.455-18.203,40.659-40.658,40.659l0,0v-32.55
		C244.285,158.612,258.097,144.801,275.132,144.801z"/>
</g>
<path fill="#7F2819" d="M242.235,96.342C230.599,52.985,191.031,21.062,144,21.062l0,0c-47.03,0-86.598,31.922-98.235,75.28
	l-0.084,0.304c-2.212,8.338-3.393,17.094-3.393,26.127v85.422c0,39.491,32.014,71.505,71.504,71.505h60.415
	c39.49,0,71.506-32.014,71.506-71.505v-85.422C245.713,113.63,244.498,104.771,242.235,96.342z"/>
<g>
	<circle fill="#3C2D26" cx="95.476" cy="182.224" r="9.08"/>
	<circle fill="#3C2D26" cx="192.524" cy="182.224" r="9.08"/>
</g>
<path fill="#272525" d="M175.967,214.206c0,17.655-14.312,31.967-31.967,31.967s-31.967-14.312-31.967-31.967H175.967z"/>
<g>
	<path fill="#FFFFFF" d="M125.453,214.206v8.488c0,3.01,2.439,5.449,5.448,5.449c3.011,0,5.449-2.439,5.449-5.449v-8.488H125.453z"
		/>
	<path fill="#FFFFFF" d="M151.649,214.206v8.488c0,3.01,2.438,5.449,5.449,5.449c3.009,0,5.448-2.439,5.448-5.449v-8.488H151.649z"
		/>
</g>
<path fill="#B57243" d="M144,203.506L144,203.506c-4.579,0-8.765-2.508-10.925-6.544l-6.978-13.033
	c-1.42-2.653-0.42-5.955,2.233-7.376s5.955-0.42,7.375,2.233l6.977,13.032c0.349,0.652,0.909,0.789,1.317,0.789
	c0.409,0,0.969-0.136,1.318-0.789l6.977-13.032c1.42-2.652,4.721-3.653,7.374-2.233c2.653,1.421,3.653,4.723,2.233,7.376
	l-6.978,13.033C152.765,200.998,148.578,203.506,144,203.506z"/>
<g>
	<path fill="#3C2D26" d="M110.326,169.797c-0.331,0-0.664-0.03-1-0.093l-29.182-5.409c-2.958-0.548-4.913-3.392-4.364-6.352
		c0.548-2.96,3.395-4.908,6.351-4.365l29.182,5.41c2.957,0.549,4.913,3.393,4.364,6.352
		C115.19,167.964,112.9,169.797,110.326,169.797z"/>
	<path fill="#3C2D26" d="M177.676,169.797c-2.575,0-4.865-1.833-5.351-4.456c-0.549-2.959,1.405-5.802,4.364-6.352l29.181-5.41
		c2.958-0.547,5.802,1.405,6.352,4.365c0.548,2.959-1.406,5.803-4.364,6.352l-29.182,5.409
		C178.34,169.767,178.005,169.797,177.676,169.797z"/>
</g>
<g>
	<polygon fill="#9F5D36" points="77.131,77.28 98.272,3 119.412,77.28 	"/>
	<polygon fill="#9F5D36" points="210.869,77.28 189.729,3 168.588,77.28 	"/>
</g>
<path opacity="0.3" fill="#20272E" enable-background="new    " d="M275.132,144.801c-13.797,0-25.478,9.061-29.419,21.558v-43.584
	c0-9.143-1.215-18.002-3.478-26.431c-6.563-24.452-22.01-45.265-42.667-58.767L189.729,3l-7.283,25.586
	c-11.859-4.847-24.84-7.524-38.445-7.524l0,0v258.639h30.207c39.49,0,71.506-32.014,71.506-71.504v-0.036
	c21.793-0.754,39.23-18.646,39.23-40.623v-22.736L275.132,144.801L275.132,144.801L275.132,144.801z"/>
<g>
</g>
<g>
</g>
<g>
</g>
<g>
</g>
<g>
</g>
<g>
</g>
<g>
</g>
<g>
</g>
<g>
</g>
<g>
</g>
<g>
</g>
<g>
</g>
<g>
</g>
<g>
</g>
<g>
</g>
</svg>
